%
M48
M72
T01C0.0150
T02C0.0236
T03C0.0374
T04C0.0400
%
T01
X10465Y7615
T02
X10915Y10290
T03
X3015Y11265
X2015Y11265
X1015Y11265
X1015Y12265
X2015Y12265
X3015Y12265
T04
X4015Y890
X5015Y890
X6015Y890
X7015Y890
X7015Y1890
X6015Y1890
X5015Y1890
X4015Y1890
X4890Y3840
X5890Y3840
X6890Y3840
X7890Y3840
X8890Y3840
X8890Y4940
X7890Y4940
X6890Y4940
X5890Y4940
X4890Y4940
X4890Y7590
X5890Y7590
X6890Y7590
X7890Y7590
X8890Y7590
X8890Y8690
X7890Y8690
X6890Y8690
X5890Y8690
X4890Y8690
X11597Y9712
X12597Y9712
X13597Y9712
X14597Y9712
X15597Y9712
X16597Y9712
X17597Y9712
X18597Y9712
X19597Y9712
X20597Y9712
X20597Y10712
X19597Y10712
X18597Y10712
X17597Y10712
X16597Y10712
X15597Y10712
X14597Y10712
X13597Y10712
X12597Y10712
X11597Y10712
M30
