G75*
G70*
%OFA0B0*%
%FSLAX24Y24*%
%IPPOS*%
%LPD*%
%AMOC8*
5,1,8,0,0,1.08239X$1,22.5*
%
%ADD10OC8,0.0614*%
%ADD11OC8,0.0740*%
%ADD12C,0.0080*%
%ADD13C,0.0376*%
%ADD14C,0.0290*%
D10*
X001015Y011265D03*
X002015Y011265D03*
X003015Y011265D03*
X003015Y012265D03*
X002015Y012265D03*
X001015Y012265D03*
D11*
X004890Y008690D03*
X005890Y008690D03*
X006890Y008690D03*
X007890Y008690D03*
X008890Y008690D03*
X008890Y007590D03*
X007890Y007590D03*
X006890Y007590D03*
X005890Y007590D03*
X004890Y007590D03*
X004890Y004940D03*
X005890Y004940D03*
X006890Y004940D03*
X007890Y004940D03*
X008890Y004940D03*
X008890Y003840D03*
X007890Y003840D03*
X006890Y003840D03*
X005890Y003840D03*
X004890Y003840D03*
X005015Y001890D03*
X006015Y001890D03*
X007015Y001890D03*
X007015Y000890D03*
X006015Y000890D03*
X005015Y000890D03*
X004015Y000890D03*
X004015Y001890D03*
X011597Y009712D03*
X012597Y009712D03*
X013597Y009712D03*
X014597Y009712D03*
X015597Y009712D03*
X016597Y009712D03*
X017597Y009712D03*
X018597Y009712D03*
X019597Y009712D03*
X020597Y009712D03*
X020597Y010712D03*
X019597Y010712D03*
X018597Y010712D03*
X017597Y010712D03*
X016597Y010712D03*
X015597Y010712D03*
X014597Y010712D03*
X013597Y010712D03*
X012597Y010712D03*
X011597Y010712D03*
D12*
X003070Y007715D02*
X003070Y000965D01*
X003715Y000320D01*
X007315Y000320D01*
X007960Y000965D01*
X007960Y002215D01*
X008460Y002715D01*
X008460Y002715D01*
X008565Y002820D01*
X012315Y002820D01*
X012710Y003215D01*
X012710Y007965D01*
X013550Y008805D01*
X010131Y008805D01*
X009825Y008499D01*
X009825Y007124D01*
X009450Y006749D01*
X009356Y006655D01*
X006499Y006655D01*
X006054Y007100D01*
X005687Y007100D01*
X005400Y007387D01*
X005400Y007793D01*
X005687Y008080D01*
X006093Y008080D01*
X006230Y007943D01*
X006230Y008074D01*
X006098Y008205D01*
X006093Y008200D01*
X005687Y008200D01*
X005550Y008337D01*
X005550Y008024D01*
X005456Y007930D01*
X005456Y007930D01*
X005350Y007823D01*
X005380Y007793D01*
X005380Y007387D01*
X005093Y007100D01*
X004687Y007100D01*
X004400Y007387D01*
X004400Y007793D01*
X004687Y008080D01*
X005093Y008080D01*
X005123Y008050D01*
X005230Y008156D01*
X005230Y008337D01*
X005093Y008200D01*
X004687Y008200D01*
X004400Y008487D01*
X004400Y008893D01*
X004687Y009180D01*
X005093Y009180D01*
X005123Y009150D01*
X005974Y010000D01*
X009049Y010000D01*
X010759Y011710D01*
X004065Y011710D01*
X003960Y011815D01*
X003960Y011815D01*
X003815Y011960D01*
X003710Y012065D01*
X003710Y012565D01*
X003565Y012710D01*
X000465Y012710D01*
X000320Y012565D01*
X000320Y010465D01*
X002965Y007820D01*
X003070Y007715D01*
X003070Y007676D02*
X004400Y007676D01*
X004400Y007598D02*
X003070Y007598D01*
X003070Y007519D02*
X004400Y007519D01*
X004400Y007441D02*
X003070Y007441D01*
X003070Y007362D02*
X004425Y007362D01*
X004504Y007284D02*
X003070Y007284D01*
X003070Y007205D02*
X004582Y007205D01*
X004661Y007127D02*
X003070Y007127D01*
X003070Y007048D02*
X006106Y007048D01*
X006184Y006970D02*
X003070Y006970D01*
X003070Y006891D02*
X006263Y006891D01*
X006341Y006813D02*
X003070Y006813D01*
X003070Y006734D02*
X006420Y006734D01*
X006498Y006656D02*
X003070Y006656D01*
X003070Y006577D02*
X012710Y006577D01*
X012710Y006499D02*
X003070Y006499D01*
X003070Y006420D02*
X012710Y006420D01*
X012710Y006342D02*
X003070Y006342D01*
X003070Y006263D02*
X012710Y006263D01*
X012710Y006185D02*
X003070Y006185D01*
X003070Y006106D02*
X012710Y006106D01*
X012710Y006028D02*
X003070Y006028D01*
X003070Y005949D02*
X012710Y005949D01*
X012710Y005871D02*
X003070Y005871D01*
X003070Y005792D02*
X012710Y005792D01*
X012710Y005714D02*
X003070Y005714D01*
X003070Y005635D02*
X012710Y005635D01*
X012710Y005557D02*
X003070Y005557D01*
X003070Y005478D02*
X012710Y005478D01*
X012710Y005400D02*
X009123Y005400D01*
X009093Y005430D02*
X008687Y005430D01*
X008400Y005143D01*
X008400Y004737D01*
X008687Y004450D01*
X009093Y004450D01*
X009380Y004737D01*
X009380Y005143D01*
X009093Y005430D01*
X009202Y005321D02*
X012710Y005321D01*
X012710Y005243D02*
X009280Y005243D01*
X009359Y005164D02*
X012710Y005164D01*
X012710Y005086D02*
X009380Y005086D01*
X009380Y005007D02*
X012710Y005007D01*
X012710Y004929D02*
X009380Y004929D01*
X009380Y004850D02*
X012710Y004850D01*
X012710Y004772D02*
X009380Y004772D01*
X009336Y004693D02*
X012710Y004693D01*
X012710Y004615D02*
X009257Y004615D01*
X009179Y004536D02*
X012710Y004536D01*
X012710Y004458D02*
X009100Y004458D01*
X009093Y004330D02*
X008687Y004330D01*
X008400Y004043D01*
X008400Y003637D01*
X008687Y003350D01*
X009093Y003350D01*
X009380Y003637D01*
X009380Y004043D01*
X009093Y004330D01*
X009122Y004301D02*
X012710Y004301D01*
X012710Y004379D02*
X006550Y004379D01*
X006550Y004456D02*
X006550Y004193D01*
X006687Y004330D01*
X007093Y004330D01*
X007380Y004043D01*
X007380Y003637D01*
X007093Y003350D01*
X006687Y003350D01*
X006550Y003487D01*
X006550Y002199D01*
X006475Y002123D01*
X006505Y002093D01*
X006505Y001687D01*
X006218Y001400D01*
X005812Y001400D01*
X005675Y001537D01*
X005675Y001456D01*
X005782Y001350D01*
X005812Y001380D01*
X006218Y001380D01*
X006505Y001093D01*
X006505Y000687D01*
X006218Y000400D01*
X005812Y000400D01*
X005525Y000687D01*
X005525Y001093D01*
X005555Y001123D01*
X005449Y001230D01*
X005355Y001324D01*
X005355Y001537D01*
X005218Y001400D01*
X004812Y001400D01*
X004675Y001537D01*
X004675Y001456D01*
X004700Y001431D01*
X004782Y001350D01*
X004812Y001380D01*
X005218Y001380D01*
X005505Y001093D01*
X005505Y000687D01*
X005218Y000400D01*
X004812Y000400D01*
X004525Y000687D01*
X004525Y001093D01*
X004555Y001123D01*
X004474Y001205D01*
X004355Y001324D01*
X004355Y001537D01*
X004218Y001400D01*
X003812Y001400D01*
X003525Y001687D01*
X003525Y002093D01*
X003812Y002380D01*
X004218Y002380D01*
X004355Y002243D01*
X004355Y002806D01*
X004449Y002900D01*
X004474Y002925D01*
X004730Y003181D01*
X004730Y003350D01*
X004687Y003350D01*
X004400Y003637D01*
X004400Y004043D01*
X004687Y004330D01*
X005093Y004330D01*
X005230Y004193D01*
X005230Y004324D01*
X005098Y004455D01*
X005093Y004450D01*
X004687Y004450D01*
X004400Y004737D01*
X004400Y005143D01*
X004687Y005430D01*
X005093Y005430D01*
X005380Y005143D01*
X005380Y004737D01*
X005325Y004682D01*
X005550Y004456D01*
X005550Y004193D01*
X005687Y004330D01*
X006093Y004330D01*
X006230Y004193D01*
X006230Y004324D01*
X006098Y004455D01*
X006093Y004450D01*
X005687Y004450D01*
X005400Y004737D01*
X005400Y005143D01*
X005687Y005430D01*
X006093Y005430D01*
X006380Y005143D01*
X006380Y004737D01*
X006325Y004682D01*
X006550Y004456D01*
X006549Y004458D02*
X006680Y004458D01*
X006687Y004450D02*
X007093Y004450D01*
X007380Y004737D01*
X007380Y005143D01*
X007093Y005430D01*
X006687Y005430D01*
X006400Y005143D01*
X006400Y004737D01*
X006687Y004450D01*
X006601Y004536D02*
X006470Y004536D01*
X006523Y004615D02*
X006392Y004615D01*
X006444Y004693D02*
X006336Y004693D01*
X006380Y004772D02*
X006400Y004772D01*
X006400Y004850D02*
X006380Y004850D01*
X006380Y004929D02*
X006400Y004929D01*
X006400Y005007D02*
X006380Y005007D01*
X006380Y005086D02*
X006400Y005086D01*
X006421Y005164D02*
X006359Y005164D01*
X006280Y005243D02*
X006500Y005243D01*
X006578Y005321D02*
X006202Y005321D01*
X006123Y005400D02*
X006657Y005400D01*
X007123Y005400D02*
X007657Y005400D01*
X007687Y005430D02*
X007400Y005143D01*
X007400Y004737D01*
X007687Y004450D01*
X008093Y004450D01*
X008380Y004737D01*
X008380Y005143D01*
X008093Y005430D01*
X007687Y005430D01*
X007578Y005321D02*
X007202Y005321D01*
X007280Y005243D02*
X007500Y005243D01*
X007421Y005164D02*
X007359Y005164D01*
X007380Y005086D02*
X007400Y005086D01*
X007400Y005007D02*
X007380Y005007D01*
X007380Y004929D02*
X007400Y004929D01*
X007400Y004850D02*
X007380Y004850D01*
X007380Y004772D02*
X007400Y004772D01*
X007444Y004693D02*
X007336Y004693D01*
X007257Y004615D02*
X007523Y004615D01*
X007601Y004536D02*
X007179Y004536D01*
X007100Y004458D02*
X007680Y004458D01*
X007687Y004330D02*
X007400Y004043D01*
X007400Y003637D01*
X007687Y003350D01*
X008093Y003350D01*
X008380Y003637D01*
X008380Y004043D01*
X008093Y004330D01*
X007687Y004330D01*
X007658Y004301D02*
X007122Y004301D01*
X007201Y004222D02*
X007579Y004222D01*
X007501Y004144D02*
X007279Y004144D01*
X007358Y004065D02*
X007422Y004065D01*
X007400Y003987D02*
X007380Y003987D01*
X007380Y003908D02*
X007400Y003908D01*
X007400Y003830D02*
X007380Y003830D01*
X007380Y003751D02*
X007400Y003751D01*
X007400Y003673D02*
X007380Y003673D01*
X007337Y003594D02*
X007443Y003594D01*
X007522Y003516D02*
X007258Y003516D01*
X007180Y003437D02*
X007600Y003437D01*
X007679Y003359D02*
X007101Y003359D01*
X006679Y003359D02*
X006550Y003359D01*
X006550Y003437D02*
X006600Y003437D01*
X006550Y003280D02*
X012710Y003280D01*
X012710Y003359D02*
X009101Y003359D01*
X009180Y003437D02*
X012710Y003437D01*
X012710Y003516D02*
X009258Y003516D01*
X009337Y003594D02*
X012710Y003594D01*
X012710Y003673D02*
X009380Y003673D01*
X009380Y003751D02*
X012710Y003751D01*
X012710Y003830D02*
X009380Y003830D01*
X009380Y003908D02*
X012710Y003908D01*
X012710Y003987D02*
X009380Y003987D01*
X009358Y004065D02*
X012710Y004065D01*
X012710Y004144D02*
X009279Y004144D01*
X009201Y004222D02*
X012710Y004222D01*
X012697Y003202D02*
X006550Y003202D01*
X006550Y003123D02*
X012618Y003123D01*
X012540Y003045D02*
X006550Y003045D01*
X006550Y002966D02*
X012461Y002966D01*
X012383Y002888D02*
X006550Y002888D01*
X006550Y002809D02*
X008554Y002809D01*
X008476Y002731D02*
X006550Y002731D01*
X006550Y002652D02*
X008397Y002652D01*
X008319Y002574D02*
X006550Y002574D01*
X006550Y002495D02*
X008240Y002495D01*
X008162Y002417D02*
X006550Y002417D01*
X006550Y002338D02*
X006770Y002338D01*
X006812Y002380D02*
X006525Y002093D01*
X006525Y001687D01*
X006812Y001400D01*
X007218Y001400D01*
X007505Y001687D01*
X007505Y002093D01*
X007218Y002380D01*
X006812Y002380D01*
X006692Y002260D02*
X006550Y002260D01*
X006532Y002181D02*
X006613Y002181D01*
X006535Y002103D02*
X006495Y002103D01*
X006505Y002024D02*
X006525Y002024D01*
X006525Y001946D02*
X006505Y001946D01*
X006505Y001867D02*
X006525Y001867D01*
X006525Y001789D02*
X006505Y001789D01*
X006505Y001710D02*
X006525Y001710D01*
X006581Y001632D02*
X006449Y001632D01*
X006371Y001553D02*
X006659Y001553D01*
X006738Y001475D02*
X006292Y001475D01*
X006280Y001318D02*
X006721Y001318D01*
X006800Y001396D02*
X005735Y001396D01*
X005738Y001475D02*
X005675Y001475D01*
X005515Y001390D02*
X005515Y002465D01*
X005390Y002590D01*
X005390Y004390D01*
X004890Y004890D01*
X004890Y004940D01*
X005380Y004929D02*
X005400Y004929D01*
X005400Y005007D02*
X005380Y005007D01*
X005380Y005086D02*
X005400Y005086D01*
X005421Y005164D02*
X005359Y005164D01*
X005280Y005243D02*
X005500Y005243D01*
X005578Y005321D02*
X005202Y005321D01*
X005123Y005400D02*
X005657Y005400D01*
X005890Y004940D02*
X005890Y004890D01*
X006390Y004390D01*
X006390Y002265D01*
X006015Y001890D01*
X005355Y001475D02*
X005292Y001475D01*
X005355Y001396D02*
X004735Y001396D01*
X004738Y001475D02*
X004675Y001475D01*
X004540Y001365D02*
X004515Y001390D01*
X004515Y001590D01*
X004515Y002740D01*
X004540Y002765D01*
X004890Y003115D01*
X004890Y003840D01*
X004400Y003830D02*
X003070Y003830D01*
X003070Y003908D02*
X004400Y003908D01*
X004400Y003987D02*
X003070Y003987D01*
X003070Y004065D02*
X004422Y004065D01*
X004501Y004144D02*
X003070Y004144D01*
X003070Y004222D02*
X004579Y004222D01*
X004658Y004301D02*
X003070Y004301D01*
X003070Y004379D02*
X005175Y004379D01*
X005122Y004301D02*
X005230Y004301D01*
X005230Y004222D02*
X005201Y004222D01*
X005550Y004222D02*
X005579Y004222D01*
X005550Y004301D02*
X005658Y004301D01*
X005550Y004379D02*
X006175Y004379D01*
X006122Y004301D02*
X006230Y004301D01*
X006230Y004222D02*
X006201Y004222D01*
X006550Y004222D02*
X006579Y004222D01*
X006550Y004301D02*
X006658Y004301D01*
X005680Y004458D02*
X005549Y004458D01*
X005601Y004536D02*
X005470Y004536D01*
X005523Y004615D02*
X005392Y004615D01*
X005444Y004693D02*
X005336Y004693D01*
X005380Y004772D02*
X005400Y004772D01*
X005400Y004850D02*
X005380Y004850D01*
X004680Y004458D02*
X003070Y004458D01*
X003070Y004536D02*
X004601Y004536D01*
X004523Y004615D02*
X003070Y004615D01*
X003070Y004693D02*
X004444Y004693D01*
X004400Y004772D02*
X003070Y004772D01*
X003070Y004850D02*
X004400Y004850D01*
X004400Y004929D02*
X003070Y004929D01*
X003070Y005007D02*
X004400Y005007D01*
X004400Y005086D02*
X003070Y005086D01*
X003070Y005164D02*
X004421Y005164D01*
X004500Y005243D02*
X003070Y005243D01*
X003070Y005321D02*
X004578Y005321D01*
X004657Y005400D02*
X003070Y005400D01*
X003070Y003751D02*
X004400Y003751D01*
X004400Y003673D02*
X003070Y003673D01*
X003070Y003594D02*
X004443Y003594D01*
X004522Y003516D02*
X003070Y003516D01*
X003070Y003437D02*
X004600Y003437D01*
X004679Y003359D02*
X003070Y003359D01*
X003070Y003280D02*
X004730Y003280D01*
X004730Y003202D02*
X003070Y003202D01*
X003070Y003123D02*
X004672Y003123D01*
X004593Y003045D02*
X003070Y003045D01*
X003070Y002966D02*
X004515Y002966D01*
X004436Y002888D02*
X003070Y002888D01*
X003070Y002809D02*
X004358Y002809D01*
X004355Y002731D02*
X003070Y002731D01*
X003070Y002652D02*
X004355Y002652D01*
X004355Y002574D02*
X003070Y002574D01*
X003070Y002495D02*
X004355Y002495D01*
X004355Y002417D02*
X003070Y002417D01*
X003070Y002338D02*
X003770Y002338D01*
X003692Y002260D02*
X003070Y002260D01*
X003070Y002181D02*
X003613Y002181D01*
X003535Y002103D02*
X003070Y002103D01*
X003070Y002024D02*
X003525Y002024D01*
X003525Y001946D02*
X003070Y001946D01*
X003070Y001867D02*
X003525Y001867D01*
X003525Y001789D02*
X003070Y001789D01*
X003070Y001710D02*
X003525Y001710D01*
X003581Y001632D02*
X003070Y001632D01*
X003070Y001553D02*
X003659Y001553D01*
X003738Y001475D02*
X003070Y001475D01*
X003070Y001396D02*
X004355Y001396D01*
X004355Y001475D02*
X004292Y001475D01*
X004218Y001380D02*
X003812Y001380D01*
X003525Y001093D01*
X003525Y000687D01*
X003812Y000400D01*
X004218Y000400D01*
X004505Y000687D01*
X004505Y001093D01*
X004218Y001380D01*
X004280Y001318D02*
X004361Y001318D01*
X004359Y001239D02*
X004440Y001239D01*
X004437Y001161D02*
X004518Y001161D01*
X004525Y001082D02*
X004505Y001082D01*
X004505Y001004D02*
X004525Y001004D01*
X004525Y000925D02*
X004505Y000925D01*
X004505Y000847D02*
X004525Y000847D01*
X004525Y000768D02*
X004505Y000768D01*
X004505Y000690D02*
X004525Y000690D01*
X004601Y000611D02*
X004429Y000611D01*
X004350Y000533D02*
X004680Y000533D01*
X004758Y000454D02*
X004272Y000454D01*
X003758Y000454D02*
X003581Y000454D01*
X003659Y000376D02*
X007371Y000376D01*
X007300Y000454D02*
X007449Y000454D01*
X007379Y000533D02*
X007528Y000533D01*
X007457Y000611D02*
X007606Y000611D01*
X007525Y000679D02*
X007525Y000850D01*
X007055Y000850D01*
X007055Y000930D01*
X007525Y000930D01*
X007525Y001101D01*
X007226Y001400D01*
X007055Y001400D01*
X007055Y000930D01*
X006975Y000930D01*
X006975Y001400D01*
X006804Y001400D01*
X006505Y001101D01*
X006505Y000930D01*
X006975Y000930D01*
X006975Y000850D01*
X007055Y000850D01*
X007055Y000380D01*
X007226Y000380D01*
X007525Y000679D01*
X007525Y000690D02*
X007685Y000690D01*
X007763Y000768D02*
X007525Y000768D01*
X007525Y000847D02*
X007842Y000847D01*
X007920Y000925D02*
X007055Y000925D01*
X007055Y000847D02*
X006975Y000847D01*
X006975Y000850D02*
X006975Y000380D01*
X006804Y000380D01*
X006505Y000679D01*
X006505Y000850D01*
X006975Y000850D01*
X006975Y000925D02*
X006505Y000925D01*
X006505Y000847D02*
X006505Y000847D01*
X006505Y000768D02*
X006505Y000768D01*
X006505Y000690D02*
X006505Y000690D01*
X006573Y000611D02*
X006429Y000611D01*
X006350Y000533D02*
X006651Y000533D01*
X006730Y000454D02*
X006272Y000454D01*
X006015Y000890D02*
X005515Y001390D01*
X005440Y001239D02*
X005359Y001239D01*
X005361Y001318D02*
X005280Y001318D01*
X005437Y001161D02*
X005518Y001161D01*
X005525Y001082D02*
X005505Y001082D01*
X005505Y001004D02*
X005525Y001004D01*
X005525Y000925D02*
X005505Y000925D01*
X005505Y000847D02*
X005525Y000847D01*
X005525Y000768D02*
X005505Y000768D01*
X005505Y000690D02*
X005525Y000690D01*
X005601Y000611D02*
X005429Y000611D01*
X005350Y000533D02*
X005680Y000533D01*
X005758Y000454D02*
X005272Y000454D01*
X005015Y000890D02*
X004540Y001365D01*
X003750Y001318D02*
X003070Y001318D01*
X003070Y001239D02*
X003671Y001239D01*
X003593Y001161D02*
X003070Y001161D01*
X003070Y001082D02*
X003525Y001082D01*
X003525Y001004D02*
X003070Y001004D01*
X003110Y000925D02*
X003525Y000925D01*
X003525Y000847D02*
X003188Y000847D01*
X003267Y000768D02*
X003525Y000768D01*
X003525Y000690D02*
X003345Y000690D01*
X003424Y000611D02*
X003601Y000611D01*
X003680Y000533D02*
X003502Y000533D01*
X004338Y002260D02*
X004355Y002260D01*
X004355Y002338D02*
X004260Y002338D01*
X006359Y001239D02*
X006643Y001239D01*
X006564Y001161D02*
X006437Y001161D01*
X006505Y001082D02*
X006505Y001082D01*
X006505Y001004D02*
X006505Y001004D01*
X006975Y001004D02*
X007055Y001004D01*
X007055Y001082D02*
X006975Y001082D01*
X006975Y001161D02*
X007055Y001161D01*
X007055Y001239D02*
X006975Y001239D01*
X006975Y001318D02*
X007055Y001318D01*
X007055Y001396D02*
X006975Y001396D01*
X007230Y001396D02*
X007960Y001396D01*
X007960Y001318D02*
X007309Y001318D01*
X007387Y001239D02*
X007960Y001239D01*
X007960Y001161D02*
X007466Y001161D01*
X007525Y001082D02*
X007960Y001082D01*
X007960Y001004D02*
X007525Y001004D01*
X007055Y000768D02*
X006975Y000768D01*
X006975Y000690D02*
X007055Y000690D01*
X007055Y000611D02*
X006975Y000611D01*
X006975Y000533D02*
X007055Y000533D01*
X007055Y000454D02*
X006975Y000454D01*
X007292Y001475D02*
X007960Y001475D01*
X007960Y001553D02*
X007371Y001553D01*
X007449Y001632D02*
X007960Y001632D01*
X007960Y001710D02*
X007505Y001710D01*
X007505Y001789D02*
X007960Y001789D01*
X007960Y001867D02*
X007505Y001867D01*
X007505Y001946D02*
X007960Y001946D01*
X007960Y002024D02*
X007505Y002024D01*
X007495Y002103D02*
X007960Y002103D01*
X007960Y002181D02*
X007417Y002181D01*
X007338Y002260D02*
X008005Y002260D01*
X008083Y002338D02*
X007260Y002338D01*
X008101Y003359D02*
X008679Y003359D01*
X008600Y003437D02*
X008180Y003437D01*
X008258Y003516D02*
X008522Y003516D01*
X008443Y003594D02*
X008337Y003594D01*
X008380Y003673D02*
X008400Y003673D01*
X008400Y003751D02*
X008380Y003751D01*
X008380Y003830D02*
X008400Y003830D01*
X008400Y003908D02*
X008380Y003908D01*
X008380Y003987D02*
X008400Y003987D01*
X008422Y004065D02*
X008358Y004065D01*
X008279Y004144D02*
X008501Y004144D01*
X008579Y004222D02*
X008201Y004222D01*
X008122Y004301D02*
X008658Y004301D01*
X008680Y004458D02*
X008100Y004458D01*
X008179Y004536D02*
X008601Y004536D01*
X008523Y004615D02*
X008257Y004615D01*
X008336Y004693D02*
X008444Y004693D01*
X008400Y004772D02*
X008380Y004772D01*
X008380Y004850D02*
X008400Y004850D01*
X008400Y004929D02*
X008380Y004929D01*
X008380Y005007D02*
X008400Y005007D01*
X008400Y005086D02*
X008380Y005086D01*
X008359Y005164D02*
X008421Y005164D01*
X008500Y005243D02*
X008280Y005243D01*
X008202Y005321D02*
X008578Y005321D01*
X008657Y005400D02*
X008123Y005400D01*
X009357Y006656D02*
X012710Y006656D01*
X012710Y006734D02*
X009435Y006734D01*
X009514Y006813D02*
X012710Y006813D01*
X012710Y006891D02*
X009592Y006891D01*
X009671Y006970D02*
X012710Y006970D01*
X012710Y007048D02*
X009749Y007048D01*
X009825Y007127D02*
X012710Y007127D01*
X012710Y007205D02*
X009825Y007205D01*
X009825Y007284D02*
X012710Y007284D01*
X012710Y007362D02*
X009825Y007362D01*
X009825Y007441D02*
X012710Y007441D01*
X012710Y007519D02*
X009825Y007519D01*
X009825Y007598D02*
X012710Y007598D01*
X012710Y007676D02*
X009825Y007676D01*
X009825Y007755D02*
X012710Y007755D01*
X012710Y007833D02*
X009825Y007833D01*
X009825Y007912D02*
X012710Y007912D01*
X012735Y007990D02*
X009825Y007990D01*
X009825Y008069D02*
X012814Y008069D01*
X012892Y008147D02*
X009825Y008147D01*
X009825Y008226D02*
X012971Y008226D01*
X013049Y008304D02*
X009825Y008304D01*
X009825Y008383D02*
X013128Y008383D01*
X013206Y008461D02*
X009825Y008461D01*
X009866Y008540D02*
X013285Y008540D01*
X013363Y008618D02*
X009944Y008618D01*
X010023Y008697D02*
X013442Y008697D01*
X013520Y008775D02*
X010101Y008775D01*
X010065Y008965D02*
X009665Y008565D01*
X009665Y007190D01*
X009290Y006815D01*
X006565Y006815D01*
X005890Y007490D01*
X005890Y007590D01*
X005400Y007598D02*
X005380Y007598D01*
X005380Y007676D02*
X005400Y007676D01*
X005400Y007755D02*
X005380Y007755D01*
X005359Y007833D02*
X005440Y007833D01*
X005438Y007912D02*
X005519Y007912D01*
X005516Y007990D02*
X005597Y007990D01*
X005550Y008069D02*
X005676Y008069D01*
X005550Y008147D02*
X006157Y008147D01*
X006104Y008069D02*
X006230Y008069D01*
X006230Y007990D02*
X006183Y007990D01*
X006390Y008140D02*
X005890Y008640D01*
X005890Y008690D01*
X005390Y008940D02*
X005390Y008090D01*
X004890Y007590D01*
X004519Y007912D02*
X002873Y007912D01*
X002795Y007990D02*
X004597Y007990D01*
X004676Y008069D02*
X002716Y008069D01*
X002638Y008147D02*
X005221Y008147D01*
X005230Y008226D02*
X005118Y008226D01*
X005197Y008304D02*
X005230Y008304D01*
X005550Y008304D02*
X005583Y008304D01*
X005550Y008226D02*
X005662Y008226D01*
X005142Y008069D02*
X005104Y008069D01*
X004662Y008226D02*
X002559Y008226D01*
X002481Y008304D02*
X004583Y008304D01*
X004505Y008383D02*
X002402Y008383D01*
X002324Y008461D02*
X004426Y008461D01*
X004400Y008540D02*
X002245Y008540D01*
X002167Y008618D02*
X004400Y008618D01*
X004400Y008697D02*
X002088Y008697D01*
X002010Y008775D02*
X004400Y008775D01*
X004400Y008854D02*
X001931Y008854D01*
X001853Y008932D02*
X004439Y008932D01*
X004518Y009011D02*
X001774Y009011D01*
X001696Y009089D02*
X004596Y009089D01*
X004675Y009168D02*
X001617Y009168D01*
X001539Y009246D02*
X005220Y009246D01*
X005298Y009325D02*
X001460Y009325D01*
X001382Y009403D02*
X005377Y009403D01*
X005455Y009482D02*
X001303Y009482D01*
X001225Y009560D02*
X005534Y009560D01*
X005612Y009639D02*
X001146Y009639D01*
X001068Y009717D02*
X005691Y009717D01*
X005769Y009796D02*
X000989Y009796D01*
X000911Y009874D02*
X005848Y009874D01*
X005926Y009953D02*
X000832Y009953D01*
X000754Y010031D02*
X009080Y010031D01*
X009158Y010110D02*
X000675Y010110D01*
X000597Y010188D02*
X009237Y010188D01*
X009315Y010267D02*
X000518Y010267D01*
X000440Y010345D02*
X009394Y010345D01*
X009472Y010424D02*
X000361Y010424D01*
X000320Y010502D02*
X009551Y010502D01*
X009629Y010581D02*
X000320Y010581D01*
X000320Y010659D02*
X009708Y010659D01*
X009786Y010738D02*
X000320Y010738D01*
X000320Y010816D02*
X009865Y010816D01*
X009943Y010895D02*
X003248Y010895D01*
X003192Y010838D02*
X003442Y011088D01*
X003442Y011442D01*
X003192Y011692D01*
X002838Y011692D01*
X002588Y011442D01*
X002588Y011088D01*
X002838Y010838D01*
X003192Y010838D01*
X003327Y010973D02*
X010022Y010973D01*
X010100Y011052D02*
X003405Y011052D01*
X003442Y011130D02*
X010179Y011130D01*
X010257Y011209D02*
X003442Y011209D01*
X003442Y011287D02*
X010336Y011287D01*
X010414Y011366D02*
X003442Y011366D01*
X003440Y011444D02*
X010493Y011444D01*
X010571Y011523D02*
X003361Y011523D01*
X003283Y011601D02*
X010650Y011601D01*
X010728Y011680D02*
X003204Y011680D01*
X003192Y011838D02*
X002838Y011838D01*
X002588Y012088D01*
X002588Y012442D01*
X002838Y012692D01*
X003192Y012692D01*
X003442Y012442D01*
X003442Y012088D01*
X003192Y011838D01*
X003269Y011915D02*
X003860Y011915D01*
X003782Y011994D02*
X003347Y011994D01*
X003426Y012072D02*
X003710Y012072D01*
X003710Y012151D02*
X003442Y012151D01*
X003442Y012229D02*
X003710Y012229D01*
X003710Y012308D02*
X003442Y012308D01*
X003442Y012386D02*
X003710Y012386D01*
X003710Y012465D02*
X003419Y012465D01*
X003341Y012543D02*
X003710Y012543D01*
X003654Y012622D02*
X003262Y012622D01*
X003575Y012700D02*
X000455Y012700D01*
X000376Y012622D02*
X000768Y012622D01*
X000838Y012692D02*
X000588Y012442D01*
X000588Y012088D01*
X000838Y011838D01*
X001192Y011838D01*
X001442Y012088D01*
X001442Y012442D01*
X001192Y012692D01*
X000838Y012692D01*
X000689Y012543D02*
X000320Y012543D01*
X000320Y012465D02*
X000611Y012465D01*
X000588Y012386D02*
X000320Y012386D01*
X000320Y012308D02*
X000588Y012308D01*
X000588Y012229D02*
X000320Y012229D01*
X000320Y012151D02*
X000588Y012151D01*
X000604Y012072D02*
X000320Y012072D01*
X000320Y011994D02*
X000683Y011994D01*
X000761Y011915D02*
X000320Y011915D01*
X000320Y011837D02*
X003939Y011837D01*
X004017Y011758D02*
X000320Y011758D01*
X000320Y011680D02*
X000826Y011680D01*
X000838Y011692D02*
X000588Y011442D01*
X000588Y011088D01*
X000838Y010838D01*
X001192Y010838D01*
X001442Y011088D01*
X001442Y011442D01*
X001192Y011692D01*
X000838Y011692D01*
X000747Y011601D02*
X000320Y011601D01*
X000320Y011523D02*
X000669Y011523D01*
X000590Y011444D02*
X000320Y011444D01*
X000320Y011366D02*
X000588Y011366D01*
X000588Y011287D02*
X000320Y011287D01*
X000320Y011209D02*
X000588Y011209D01*
X000588Y011130D02*
X000320Y011130D01*
X000320Y011052D02*
X000625Y011052D01*
X000703Y010973D02*
X000320Y010973D01*
X000320Y010895D02*
X000782Y010895D01*
X001248Y010895D02*
X001782Y010895D01*
X001838Y010838D02*
X002192Y010838D01*
X002442Y011088D01*
X002442Y011442D01*
X002192Y011692D01*
X001838Y011692D01*
X001588Y011442D01*
X001588Y011088D01*
X001838Y010838D01*
X001703Y010973D02*
X001327Y010973D01*
X001405Y011052D02*
X001625Y011052D01*
X001588Y011130D02*
X001442Y011130D01*
X001442Y011209D02*
X001588Y011209D01*
X001588Y011287D02*
X001442Y011287D01*
X001442Y011366D02*
X001588Y011366D01*
X001590Y011444D02*
X001440Y011444D01*
X001361Y011523D02*
X001669Y011523D01*
X001747Y011601D02*
X001283Y011601D01*
X001204Y011680D02*
X001826Y011680D01*
X001838Y011838D02*
X002192Y011838D01*
X002442Y012088D01*
X002442Y012442D01*
X002192Y012692D01*
X001838Y012692D01*
X001588Y012442D01*
X001588Y012088D01*
X001838Y011838D01*
X001761Y011915D02*
X001269Y011915D01*
X001347Y011994D02*
X001683Y011994D01*
X001604Y012072D02*
X001426Y012072D01*
X001442Y012151D02*
X001588Y012151D01*
X001588Y012229D02*
X001442Y012229D01*
X001442Y012308D02*
X001588Y012308D01*
X001588Y012386D02*
X001442Y012386D01*
X001419Y012465D02*
X001611Y012465D01*
X001689Y012543D02*
X001341Y012543D01*
X001262Y012622D02*
X001768Y012622D01*
X002262Y012622D02*
X002768Y012622D01*
X002689Y012543D02*
X002341Y012543D01*
X002419Y012465D02*
X002611Y012465D01*
X002588Y012386D02*
X002442Y012386D01*
X002442Y012308D02*
X002588Y012308D01*
X002588Y012229D02*
X002442Y012229D01*
X002442Y012151D02*
X002588Y012151D01*
X002604Y012072D02*
X002426Y012072D01*
X002347Y011994D02*
X002683Y011994D01*
X002761Y011915D02*
X002269Y011915D01*
X002204Y011680D02*
X002826Y011680D01*
X002747Y011601D02*
X002283Y011601D01*
X002361Y011523D02*
X002669Y011523D01*
X002590Y011444D02*
X002440Y011444D01*
X002442Y011366D02*
X002588Y011366D01*
X002588Y011287D02*
X002442Y011287D01*
X002442Y011209D02*
X002588Y011209D01*
X002588Y011130D02*
X002442Y011130D01*
X002405Y011052D02*
X002625Y011052D01*
X002703Y010973D02*
X002327Y010973D01*
X002248Y010895D02*
X002782Y010895D01*
X005105Y009168D02*
X005141Y009168D01*
X005390Y008940D02*
X006090Y009640D01*
X009190Y009640D01*
X011115Y011565D01*
X018744Y011565D01*
X019597Y010712D01*
X020597Y010712D02*
X019569Y011740D01*
X011015Y011740D01*
X009115Y009840D01*
X006040Y009840D01*
X004890Y008690D01*
X004440Y007833D02*
X002952Y007833D01*
X003030Y007755D02*
X004400Y007755D01*
X005198Y007205D02*
X005582Y007205D01*
X005661Y007127D02*
X005119Y007127D01*
X005276Y007284D02*
X005504Y007284D01*
X005425Y007362D02*
X005355Y007362D01*
X005380Y007441D02*
X005400Y007441D01*
X005400Y007519D02*
X005380Y007519D01*
X006390Y007240D02*
X006390Y008140D01*
X006390Y007240D02*
X006590Y007040D01*
X009165Y007040D01*
X009440Y007315D01*
X009440Y008690D01*
X009890Y009140D01*
X013025Y009140D01*
X013597Y009712D01*
X013223Y010031D02*
X012999Y010031D01*
X012975Y010055D02*
X013107Y009923D01*
X013107Y009752D01*
X012637Y009752D01*
X012637Y009672D01*
X013107Y009672D01*
X013107Y009501D01*
X012906Y009300D01*
X012959Y009300D01*
X013137Y009479D01*
X013107Y009509D01*
X013107Y009915D01*
X013247Y010055D01*
X012975Y010055D01*
X013077Y009953D02*
X013145Y009953D01*
X013107Y009874D02*
X013107Y009874D01*
X013107Y009796D02*
X013107Y009796D01*
X013107Y009717D02*
X012637Y009717D01*
X012557Y009717D02*
X012087Y009717D01*
X012087Y009752D02*
X012557Y009752D01*
X012557Y009672D01*
X012087Y009672D01*
X012087Y009501D01*
X012287Y009300D01*
X011878Y009300D01*
X012087Y009509D01*
X012087Y009915D01*
X011947Y010055D01*
X012219Y010055D01*
X012087Y009923D01*
X012087Y009752D01*
X012087Y009796D02*
X012087Y009796D01*
X012087Y009874D02*
X012087Y009874D01*
X012116Y009953D02*
X012049Y009953D01*
X011971Y010031D02*
X012195Y010031D01*
X012087Y009639D02*
X012087Y009639D01*
X012087Y009560D02*
X012087Y009560D01*
X012106Y009482D02*
X012060Y009482D01*
X011981Y009403D02*
X012184Y009403D01*
X012263Y009325D02*
X011903Y009325D01*
X012931Y009325D02*
X012983Y009325D01*
X013009Y009403D02*
X013062Y009403D01*
X013088Y009482D02*
X013134Y009482D01*
X013107Y009560D02*
X013107Y009560D01*
X013107Y009639D02*
X013107Y009639D01*
X013615Y008965D02*
X010065Y008965D01*
X009365Y009240D02*
X008740Y009240D01*
X008390Y008890D01*
X008390Y008090D01*
X007890Y007590D01*
X008380Y007598D02*
X008850Y007598D01*
X008850Y007630D02*
X008850Y007550D01*
X008380Y007550D01*
X008380Y007379D01*
X008559Y007200D01*
X008193Y007200D01*
X008380Y007387D01*
X008380Y007793D01*
X008350Y007823D01*
X008550Y008024D01*
X008550Y008337D01*
X008687Y008200D01*
X009093Y008200D01*
X009280Y008387D01*
X009280Y007921D01*
X009101Y008100D01*
X008930Y008100D01*
X008930Y007630D01*
X008850Y007630D01*
X008850Y008100D01*
X008679Y008100D01*
X008380Y007801D01*
X008380Y007630D01*
X008850Y007630D01*
X008850Y007676D02*
X008930Y007676D01*
X008930Y007755D02*
X008850Y007755D01*
X008850Y007833D02*
X008930Y007833D01*
X008930Y007912D02*
X008850Y007912D01*
X008850Y007990D02*
X008930Y007990D01*
X008930Y008069D02*
X008850Y008069D01*
X008647Y008069D02*
X008550Y008069D01*
X008550Y008147D02*
X009280Y008147D01*
X009280Y008069D02*
X009133Y008069D01*
X009211Y007990D02*
X009280Y007990D01*
X009280Y008226D02*
X009118Y008226D01*
X009197Y008304D02*
X009280Y008304D01*
X009275Y008383D02*
X009280Y008383D01*
X008662Y008226D02*
X008550Y008226D01*
X008550Y008304D02*
X008583Y008304D01*
X008569Y007990D02*
X008516Y007990D01*
X008490Y007912D02*
X008438Y007912D01*
X008412Y007833D02*
X008359Y007833D01*
X008380Y007755D02*
X008380Y007755D01*
X008380Y007676D02*
X008380Y007676D01*
X008380Y007519D02*
X008380Y007519D01*
X008380Y007441D02*
X008380Y007441D01*
X008397Y007362D02*
X008355Y007362D01*
X008276Y007284D02*
X008475Y007284D01*
X008554Y007205D02*
X008198Y007205D01*
X007890Y008690D02*
X008640Y009440D01*
X009290Y009440D01*
X011240Y011390D01*
X017665Y011390D01*
X018090Y010965D01*
X018090Y010219D01*
X018597Y009712D01*
X017597Y009712D02*
X017090Y010219D01*
X017090Y010965D01*
X016840Y011215D01*
X011340Y011215D01*
X009365Y009240D01*
X010915Y010290D02*
X010990Y010215D01*
X011065Y010215D01*
X015490Y010215D01*
X016094Y010215D01*
X016597Y009712D01*
X014597Y009712D02*
X014115Y009465D01*
X013615Y008965D01*
D13*
X010915Y010290D03*
D14*
X010465Y007615D03*
M02*
