G75*
G70*
%OFA0B0*%
%FSLAX24Y24*%
%IPPOS*%
%LPD*%
%AMOC8*
5,1,8,0,0,1.08239X$1,22.5*
%
%ADD10C,0.0030*%
%ADD11C,0.0050*%
%ADD12C,0.0060*%
%ADD13C,0.0080*%
D10*
X001155Y010155D02*
X001155Y010445D01*
X001300Y010445D01*
X001348Y010397D01*
X001348Y010300D01*
X001300Y010252D01*
X001155Y010252D01*
X001252Y010252D02*
X001348Y010155D01*
X001450Y010155D02*
X001450Y010348D01*
X001546Y010445D01*
X001643Y010348D01*
X001643Y010155D01*
X001744Y010155D02*
X001744Y010445D01*
X001841Y010348D01*
X001938Y010445D01*
X001938Y010155D01*
X002039Y010155D02*
X002184Y010155D01*
X002232Y010203D01*
X002232Y010252D01*
X002184Y010300D01*
X002039Y010300D01*
X002039Y010155D02*
X002039Y010445D01*
X002184Y010445D01*
X002232Y010397D01*
X002232Y010348D01*
X002184Y010300D01*
X002334Y010300D02*
X002334Y010203D01*
X002382Y010155D01*
X002479Y010155D01*
X002527Y010203D01*
X002527Y010300D01*
X002479Y010348D01*
X002382Y010348D01*
X002334Y010300D01*
X002923Y010348D02*
X003020Y010348D01*
X002971Y010397D02*
X002971Y010203D01*
X003020Y010155D01*
X003119Y010203D02*
X003168Y010155D01*
X003264Y010155D01*
X003313Y010203D01*
X003313Y010300D01*
X003264Y010348D01*
X003168Y010348D01*
X003119Y010300D01*
X003119Y010203D01*
X003709Y010203D02*
X003757Y010155D01*
X003854Y010155D01*
X003902Y010203D01*
X003902Y010252D01*
X003854Y010300D01*
X003757Y010300D01*
X003709Y010348D01*
X003709Y010397D01*
X003757Y010445D01*
X003854Y010445D01*
X003902Y010397D01*
X004003Y010348D02*
X004052Y010348D01*
X004100Y010300D01*
X004148Y010348D01*
X004197Y010300D01*
X004197Y010155D01*
X004100Y010155D02*
X004100Y010300D01*
X004003Y010348D02*
X004003Y010155D01*
X004298Y010203D02*
X004346Y010252D01*
X004491Y010252D01*
X004491Y010300D02*
X004491Y010155D01*
X004346Y010155D01*
X004298Y010203D01*
X004346Y010348D02*
X004443Y010348D01*
X004491Y010300D01*
X004593Y010252D02*
X004689Y010348D01*
X004738Y010348D01*
X004838Y010348D02*
X004935Y010348D01*
X004887Y010397D02*
X004887Y010203D01*
X004935Y010155D01*
X005035Y010203D02*
X005083Y010155D01*
X005180Y010155D01*
X005228Y010203D01*
X005329Y010203D02*
X005378Y010155D01*
X005474Y010155D01*
X005523Y010203D01*
X005523Y010300D01*
X005474Y010348D01*
X005378Y010348D01*
X005329Y010300D01*
X005329Y010203D01*
X005228Y010397D02*
X005180Y010445D01*
X005083Y010445D01*
X005035Y010397D01*
X005035Y010203D01*
X004593Y010155D02*
X004593Y010348D01*
X004695Y010808D02*
X004695Y011098D01*
X004840Y011098D01*
X004889Y011050D01*
X004889Y010953D01*
X004840Y010905D01*
X004695Y010905D01*
X004594Y011002D02*
X004401Y011002D01*
X004401Y011050D02*
X004449Y011098D01*
X004546Y011098D01*
X004594Y011050D01*
X004594Y011002D01*
X004546Y010905D02*
X004449Y010905D01*
X004401Y010953D01*
X004401Y011050D01*
X004300Y011098D02*
X004252Y011098D01*
X004155Y011002D01*
X004155Y011098D02*
X004155Y010905D01*
X004990Y010905D02*
X004990Y011098D01*
X004990Y011002D02*
X005087Y011098D01*
X005135Y011098D01*
X005284Y011098D02*
X005381Y011098D01*
X005429Y011050D01*
X005429Y010905D01*
X005284Y010905D01*
X005235Y010953D01*
X005284Y011002D01*
X005429Y011002D01*
X005530Y011098D02*
X005675Y011098D01*
X005724Y011050D01*
X005724Y010953D01*
X005675Y010905D01*
X005530Y010905D01*
X005530Y010808D02*
X005530Y011098D01*
X005825Y010953D02*
X005825Y010905D01*
X005873Y010905D01*
X005873Y010953D01*
X005825Y010953D01*
X005972Y010953D02*
X006020Y010905D01*
X006117Y010905D01*
X006166Y010953D01*
X006166Y011050D01*
X006117Y011098D01*
X006020Y011098D01*
X005972Y011050D01*
X005972Y010953D01*
X006267Y010905D02*
X006267Y011098D01*
X006267Y011002D02*
X006363Y011098D01*
X006412Y011098D01*
X006512Y011050D02*
X006512Y010953D01*
X006561Y010905D01*
X006706Y010905D01*
X006706Y010857D02*
X006706Y011098D01*
X006561Y011098D01*
X006512Y011050D01*
X006706Y010857D02*
X006657Y010808D01*
X006609Y010808D01*
X006807Y010905D02*
X007000Y011195D01*
X007102Y011098D02*
X007102Y010953D01*
X007150Y010905D01*
X007198Y010953D01*
X007247Y010905D01*
X007295Y010953D01*
X007295Y011098D01*
X007396Y011098D02*
X007445Y011098D01*
X007445Y010905D01*
X007493Y010905D02*
X007396Y010905D01*
X007593Y010905D02*
X007593Y011195D01*
X007445Y011195D02*
X007445Y011244D01*
X007593Y011002D02*
X007738Y011098D01*
X007838Y011098D02*
X007887Y011098D01*
X007887Y010905D01*
X007935Y010905D02*
X007838Y010905D01*
X007738Y010905D02*
X007593Y011002D01*
X007887Y011195D02*
X007887Y011244D01*
X008228Y011195D02*
X008035Y010905D01*
X008329Y010905D02*
X008329Y011195D01*
X008474Y011195D01*
X008523Y011147D01*
X008523Y011050D01*
X008474Y011002D01*
X008329Y011002D01*
X008426Y011002D02*
X008523Y010905D01*
X008624Y010953D02*
X008672Y011002D01*
X008817Y011002D01*
X008817Y011050D02*
X008817Y010905D01*
X008672Y010905D01*
X008624Y010953D01*
X008672Y011098D02*
X008769Y011098D01*
X008817Y011050D01*
X008919Y011098D02*
X008919Y010905D01*
X009015Y010905D02*
X009015Y011050D01*
X009064Y011098D01*
X009112Y011050D01*
X009112Y010905D01*
X009213Y010905D02*
X009358Y010905D01*
X009407Y010953D01*
X009407Y011050D01*
X009358Y011098D01*
X009213Y011098D01*
X009213Y011195D02*
X009213Y010905D01*
X009015Y011050D02*
X008967Y011098D01*
X008919Y011098D01*
X009508Y011050D02*
X009508Y010953D01*
X009556Y010905D01*
X009653Y010905D01*
X009701Y010953D01*
X009701Y011050D01*
X009653Y011098D01*
X009556Y011098D01*
X009508Y011050D01*
X009802Y010905D02*
X009996Y010905D01*
X010097Y010953D02*
X010146Y010905D01*
X010242Y010905D01*
X010291Y010953D01*
X010392Y010905D02*
X010537Y010905D01*
X010585Y010953D01*
X010585Y011147D01*
X010537Y011195D01*
X010392Y011195D01*
X010392Y010905D01*
X010291Y011147D02*
X010242Y011195D01*
X010146Y011195D01*
X010097Y011147D01*
X010097Y010953D01*
X009802Y010905D02*
X009802Y011195D01*
X009698Y010348D02*
X009649Y010348D01*
X009553Y010252D01*
X009553Y010348D02*
X009553Y010155D01*
X009451Y010252D02*
X009258Y010252D01*
X009258Y010300D02*
X009258Y010203D01*
X009306Y010155D01*
X009403Y010155D01*
X009451Y010252D02*
X009451Y010300D01*
X009403Y010348D01*
X009306Y010348D01*
X009258Y010300D01*
X009158Y010348D02*
X009061Y010348D01*
X009110Y010397D02*
X009110Y010203D01*
X009158Y010155D01*
X008960Y010203D02*
X008912Y010155D01*
X008767Y010155D01*
X008767Y010058D02*
X008767Y010348D01*
X008912Y010348D01*
X008960Y010300D01*
X008960Y010203D01*
X008666Y010155D02*
X008521Y010155D01*
X008472Y010203D01*
X008521Y010252D01*
X008666Y010252D01*
X008666Y010300D02*
X008666Y010155D01*
X008666Y010300D02*
X008617Y010348D01*
X008521Y010348D01*
X008371Y010348D02*
X008226Y010348D01*
X008178Y010300D01*
X008178Y010203D01*
X008226Y010155D01*
X008371Y010155D01*
X008371Y010445D01*
X008076Y010300D02*
X008076Y010155D01*
X007931Y010155D01*
X007883Y010203D01*
X007931Y010252D01*
X008076Y010252D01*
X008076Y010300D02*
X008028Y010348D01*
X007931Y010348D01*
X007488Y010348D02*
X007439Y010348D01*
X007343Y010252D01*
X007343Y010348D02*
X007343Y010155D01*
X007242Y010252D02*
X007048Y010252D01*
X007048Y010300D02*
X007048Y010203D01*
X007096Y010155D01*
X007193Y010155D01*
X007242Y010252D02*
X007242Y010300D01*
X007193Y010348D01*
X007096Y010348D01*
X007048Y010300D01*
X006900Y010445D02*
X006900Y010155D01*
X006852Y010155D02*
X006948Y010155D01*
X006752Y010155D02*
X006655Y010155D01*
X006704Y010155D02*
X006704Y010445D01*
X006655Y010445D01*
X006554Y010300D02*
X006506Y010348D01*
X006409Y010348D01*
X006361Y010300D01*
X006361Y010203D01*
X006409Y010155D01*
X006506Y010155D01*
X006554Y010203D01*
X006554Y010300D01*
X006260Y010348D02*
X006212Y010348D01*
X006115Y010252D01*
X006115Y010348D02*
X006115Y010155D01*
X006015Y010155D02*
X005967Y010203D01*
X005967Y010397D01*
X005919Y010348D02*
X006015Y010348D01*
X005817Y010300D02*
X005817Y010155D01*
X005624Y010155D02*
X005624Y010348D01*
X005769Y010348D01*
X005817Y010300D01*
X006852Y010445D02*
X006900Y010445D01*
X001643Y010300D02*
X001450Y010300D01*
D11*
X012025Y008836D02*
X012025Y008377D01*
X012117Y008285D01*
X012300Y008285D01*
X012392Y008377D01*
X012392Y008836D01*
X011791Y008589D02*
X011793Y008630D01*
X011799Y008670D01*
X011809Y008709D01*
X011822Y008747D01*
X011839Y008784D01*
X011860Y008819D01*
X011884Y008852D01*
X011910Y008882D01*
X011940Y008910D01*
X011972Y008935D01*
X012007Y008956D01*
X012043Y008974D01*
X012081Y008988D01*
X012120Y008999D01*
X012160Y009006D01*
X012201Y009009D01*
X012241Y009008D01*
X012282Y009003D01*
X012321Y008994D01*
X012360Y008982D01*
X012397Y008965D01*
X012433Y008946D01*
X012466Y008923D01*
X012497Y008897D01*
X012525Y008868D01*
X012551Y008836D01*
X012573Y008802D01*
X012592Y008766D01*
X012607Y008728D01*
X012619Y008690D01*
X012627Y008650D01*
X012631Y008609D01*
X012631Y008569D01*
X012627Y008528D01*
X012619Y008488D01*
X012607Y008450D01*
X012592Y008412D01*
X012573Y008376D01*
X012551Y008342D01*
X012525Y008310D01*
X012497Y008281D01*
X012466Y008255D01*
X012433Y008232D01*
X012397Y008213D01*
X012360Y008196D01*
X012321Y008184D01*
X012282Y008175D01*
X012241Y008170D01*
X012201Y008169D01*
X012160Y008172D01*
X012120Y008179D01*
X012081Y008190D01*
X012043Y008204D01*
X012007Y008222D01*
X011972Y008243D01*
X011940Y008268D01*
X011910Y008296D01*
X011884Y008326D01*
X011860Y008359D01*
X011839Y008394D01*
X011822Y008431D01*
X011809Y008469D01*
X011799Y008508D01*
X011793Y008548D01*
X011791Y008589D01*
D12*
X003515Y002140D02*
X003515Y000640D01*
X003765Y000390D01*
X004265Y000390D01*
X004515Y000640D01*
X004765Y000390D01*
X005265Y000390D01*
X005515Y000640D01*
X005765Y000390D01*
X006265Y000390D01*
X006515Y000640D01*
X006765Y000390D01*
X007265Y000390D01*
X007515Y000640D01*
X007515Y002140D01*
X007265Y002390D01*
X006765Y002390D01*
X006515Y002140D01*
X006265Y002390D01*
X005765Y002390D01*
X005515Y002140D01*
X005265Y002390D01*
X004765Y002390D01*
X004515Y002140D01*
X004265Y002390D01*
X003765Y002390D01*
X003515Y002140D01*
X011097Y009462D02*
X011347Y009212D01*
X011847Y009212D01*
X012097Y009462D01*
X012097Y010962D01*
X012347Y011212D01*
X012847Y011212D01*
X013097Y010962D01*
X013097Y009462D01*
X013347Y009212D01*
X013847Y009212D01*
X014097Y009462D01*
X014097Y010962D01*
X014347Y011212D01*
X014847Y011212D01*
X015097Y010962D01*
X015097Y009462D01*
X015347Y009212D01*
X015847Y009212D01*
X016097Y009462D01*
X016097Y010962D01*
X016347Y011212D01*
X016847Y011212D01*
X017097Y010962D01*
X017097Y009462D01*
X017347Y009212D01*
X017847Y009212D01*
X018097Y009462D01*
X018097Y010962D01*
X018347Y011212D01*
X018847Y011212D01*
X019097Y010962D01*
X019097Y009462D01*
X018847Y009212D01*
X018347Y009212D01*
X018097Y009462D01*
X019097Y009462D02*
X019347Y009212D01*
X019847Y009212D01*
X020097Y009462D01*
X020347Y009212D01*
X020847Y009212D01*
X021097Y009462D01*
X021097Y010962D01*
X020847Y011212D01*
X020347Y011212D01*
X020097Y010962D01*
X020097Y009462D01*
X020097Y010962D02*
X019847Y011212D01*
X019347Y011212D01*
X019097Y010962D01*
X018097Y010962D02*
X017847Y011212D01*
X017347Y011212D01*
X017097Y010962D01*
X016097Y010962D02*
X015847Y011212D01*
X015347Y011212D01*
X015097Y010962D01*
X014097Y010962D02*
X013847Y011212D01*
X013347Y011212D01*
X013097Y010962D01*
X012097Y010962D02*
X011847Y011212D01*
X011347Y011212D01*
X011097Y010962D01*
X011097Y009462D01*
X012097Y009462D02*
X012347Y009212D01*
X012847Y009212D01*
X013097Y009462D01*
X014097Y009462D02*
X014347Y009212D01*
X014847Y009212D01*
X015097Y009462D01*
X016097Y009462D02*
X016347Y009212D01*
X016847Y009212D01*
X017097Y009462D01*
X003515Y011015D02*
X003515Y012515D01*
X003265Y012765D01*
X002765Y012765D01*
X002515Y012515D01*
X002515Y011015D01*
X002765Y010765D01*
X003265Y010765D01*
X003515Y011015D01*
X002515Y011015D02*
X002265Y010765D01*
X001765Y010765D01*
X001515Y011015D01*
X001515Y012515D01*
X001765Y012765D01*
X002265Y012765D01*
X002515Y012515D01*
X001515Y012515D02*
X001265Y012765D01*
X000765Y012765D01*
X000515Y012515D01*
X000515Y011015D01*
X000765Y010765D01*
X001265Y010765D01*
X001515Y011015D01*
D13*
X002914Y009912D02*
X002914Y006368D01*
X010866Y006368D01*
X010866Y006408D02*
X010866Y009912D01*
X007756Y009912D01*
X007756Y009321D01*
X006024Y009321D01*
X006024Y009912D01*
X007756Y009912D01*
X008640Y009233D02*
X009140Y009233D01*
X006024Y009912D02*
X002914Y009912D01*
X002914Y006162D02*
X002914Y002618D01*
X010866Y002618D01*
X010866Y002658D02*
X010866Y006162D01*
X007756Y006162D01*
X007756Y005571D01*
X006024Y005571D01*
X006024Y006162D01*
X007756Y006162D01*
X008640Y005483D02*
X009140Y005483D01*
X011170Y004070D02*
X011310Y004210D01*
X011500Y004080D01*
X011680Y004150D02*
X011730Y004390D01*
X011920Y004390D01*
X011970Y004150D01*
X012150Y004080D02*
X012350Y004210D01*
X012490Y004070D01*
X012350Y003880D01*
X012440Y003690D02*
X012660Y003650D01*
X012660Y003450D01*
X012440Y003410D01*
X012360Y003210D02*
X012490Y003030D01*
X012350Y002890D01*
X012170Y003010D01*
X012090Y002970D01*
X011950Y003310D01*
X011710Y003310D02*
X011560Y002970D01*
X011490Y003010D01*
X011310Y002890D01*
X011170Y003030D01*
X011290Y003210D01*
X011210Y003410D02*
X010990Y003450D01*
X010990Y003650D01*
X011220Y003690D01*
X011300Y003880D02*
X011170Y004070D01*
X011212Y003394D02*
X011227Y003347D01*
X011245Y003301D01*
X011267Y003257D01*
X011292Y003215D01*
X011502Y004076D02*
X011544Y004099D01*
X011587Y004118D01*
X011632Y004135D01*
X011678Y004147D01*
X011710Y003310D02*
X011682Y003326D01*
X011655Y003345D01*
X011632Y003367D01*
X011611Y003392D01*
X011593Y003420D01*
X011578Y003449D01*
X011568Y003480D01*
X011560Y003511D01*
X011557Y003544D01*
X011558Y003576D01*
X011562Y003609D01*
X011571Y003640D01*
X011583Y003670D01*
X011598Y003699D01*
X011617Y003726D01*
X011639Y003750D01*
X011663Y003771D01*
X011690Y003790D01*
X011719Y003805D01*
X011750Y003816D01*
X011781Y003824D01*
X011814Y003828D01*
X011846Y003828D01*
X011879Y003824D01*
X011910Y003816D01*
X011941Y003805D01*
X011970Y003790D01*
X011997Y003771D01*
X012021Y003750D01*
X012043Y003726D01*
X012062Y003699D01*
X012077Y003670D01*
X012089Y003640D01*
X012098Y003609D01*
X012102Y003576D01*
X012103Y003544D01*
X012100Y003511D01*
X012092Y003480D01*
X012082Y003449D01*
X012067Y003420D01*
X012049Y003392D01*
X012028Y003367D01*
X012005Y003345D01*
X011978Y003326D01*
X011950Y003310D01*
X012442Y003690D02*
X012430Y003730D01*
X012415Y003769D01*
X012397Y003807D01*
X012377Y003843D01*
X012355Y003878D01*
X012149Y004080D02*
X012106Y004103D01*
X012062Y004123D01*
X012016Y004139D01*
X011970Y004151D01*
X012439Y003411D02*
X012429Y003369D01*
X012416Y003328D01*
X012400Y003288D01*
X012381Y003249D01*
X012359Y003212D01*
X011218Y003692D02*
X011229Y003732D01*
X011243Y003771D01*
X011259Y003808D01*
X011278Y003845D01*
X011299Y003880D01*
X006024Y006162D02*
X002914Y006162D01*
M02*
