999
dxflib 2.2.0.0
  0
SECTION
  2
HEADER
  9
$ACADVER
  1
AC1015
  9
$HANDSEED
  5
FFFF
  9
$DIMASZ
 40
2.5
  9
$PLIMMIN
 10
0.0
 20
0.0
  9
$DIMEXE
 40
1.25
  9
$DIMGAP
 40
0.625
  9
$PLIMMAX
 10
210.0
 20
297.0
  9
$INSUNITS
 70
4
  9
$DIMEXO
 40
0.625
  9
$DIMTXT
 40
2.5
  0
ENDSEC
  0
SECTION
  2
TABLES
  0
TABLE
  2
VPORT
  5
8
100
AcDbSymbolTable
 70
1
  0
VPORT
  5
30
100
AcDbSymbolTableRecord
100
AcDbViewportTableRecord
  2
*Active
 70
0
 10
0.0
 20
0.0
 11
1.0
 21
1.0
 12
286.3055555555554861
 22
148.5
 13
0.0
 23
0.0
 14
10.0
 24
10.0
 15
10.0
 25
10.0
 16
0.0
 26
0.0
 36
1.0
 17
0.0
 27
0.0
 37
0.0
 40
297.0
 41
1.92798353909465
 42
50.0
 43
0.0
 44
0.0
 50
0.0
 51
0.0
 71
0
 72
100
 73
1
 74
3
 75
1
 76
1
 77
0
 78
0
281
0
 65
1
110
0.0
120
0.0
130
0.0
111
1.0
121
0.0
131
0.0
112
0.0
122
1.0
132
0.0
 79
0
146
0.0
  0
ENDTAB
  0
TABLE
  2
LTYPE
  5
5
100
AcDbSymbolTable
 70
21
  0
LTYPE
  5
14
100
AcDbSymbolTableRecord
100
AcDbLinetypeTableRecord
  2
ByBlock
 70
0
  3

 72
65
 73
0
 40
0.0
  0
LTYPE
  5
15
100
AcDbSymbolTableRecord
100
AcDbLinetypeTableRecord
  2
ByLayer
 70
0
  3

 72
65
 73
0
 40
0.0
  0
LTYPE
  5
16
100
AcDbSymbolTableRecord
100
AcDbLinetypeTableRecord
  2
CONTINUOUS
 70
0
  3
Solid line
 72
65
 73
0
 40
0.0
  0
LTYPE
  5
31
100
AcDbSymbolTableRecord
100
AcDbLinetypeTableRecord
  2
DOT
 70
0
  3
Dot . . . . . . . . . . . . . . . . . . . . . .
 72
65
 73
2
 40
6.3499999999999996
 49
0.0
 74
0
 49
-6.3499999999999996
 74
0
  0
LTYPE
  5
32
100
AcDbSymbolTableRecord
100
AcDbLinetypeTableRecord
  2
DOT2
 70
0
  3
Dot (.5x) .....................................
 72
65
 73
2
 40
3.1749999999999998
 49
0.0
 74
0
 49
-3.1749999999999998
 74
0
  0
LTYPE
  5
33
100
AcDbSymbolTableRecord
100
AcDbLinetypeTableRecord
  2
DOTX2
 70
0
  3
Dot (2x) .  .  .  .  .  .  .  .  .  .  .  .  .
 72
65
 73
2
 40
12.6999999999999993
 49
0.0
 74
0
 49
-12.6999999999999993
 74
0
  0
LTYPE
  5
34
100
AcDbSymbolTableRecord
100
AcDbLinetypeTableRecord
  2
DASHED
 70
0
  3
Dashed __ __ __ __ __ __ __ __ __ __ __ __ __ _
 72
65
 73
2
 40
19.0500000000000007
 49
12.6999999999999993
 74
0
 49
-6.3499999999999996
 74
0
  0
LTYPE
  5
35
100
AcDbSymbolTableRecord
100
AcDbLinetypeTableRecord
  2
DASHED2
 70
0
  3
Dashed (.5x) _ _ _ _ _ _ _ _ _ _ _ _ _ _ _ _ _
 72
65
 73
2
 40
9.5250000000000004
 49
6.3499999999999996
 74
0
 49
-3.1749999999999998
 74
0
  0
LTYPE
  5
36
100
AcDbSymbolTableRecord
100
AcDbLinetypeTableRecord
  2
DASHEDX2
 70
0
  3
Dashed (2x) ____  ____  ____  ____  ____  ___
 72
65
 73
2
 40
38.1000000000000014
 49
25.3999999999999986
 74
0
 49
-12.6999999999999993
 74
0
  0
LTYPE
  5
37
100
AcDbSymbolTableRecord
100
AcDbLinetypeTableRecord
  2
DASHDOT
 70
0
  3
Dash dot __ . __ . __ . __ . __ . __ . __ . __
 72
65
 73
4
 40
25.3999999999999986
 49
12.6999999999999993
 74
0
 49
-6.3499999999999996
 74
0
 49
0.0
 74
0
 49
-6.3499999999999996
 74
0
  0
LTYPE
  5
38
100
AcDbSymbolTableRecord
100
AcDbLinetypeTableRecord
  2
DASHDOT2
 70
0
  3
Dash dot (.5x) _._._._._._._._._._._._._._._.
 72
65
 73
4
 40
12.6999999999999993
 49
6.3499999999999996
 74
0
 49
-3.1749999999999998
 74
0
 49
0.0
 74
0
 49
-3.1749999999999998
 74
0
  0
LTYPE
  5
39
100
AcDbSymbolTableRecord
100
AcDbLinetypeTableRecord
  2
DASHDOTX2
 70
0
  3
Dash dot (2x) ____  .  ____  .  ____  .  ___
 72
65
 73
4
 40
50.7999999999999972
 49
25.3999999999999986
 74
0
 49
-12.6999999999999993
 74
0
 49
0.0
 74
0
 49
-12.6999999999999993
 74
0
  0
LTYPE
  5
3A
100
AcDbSymbolTableRecord
100
AcDbLinetypeTableRecord
  2
DIVIDE
 70
0
  3
Divide ____ . . ____ . . ____ . . ____ . . ____
 72
65
 73
6
 40
31.75
 49
12.6999999999999993
 74
0
 49
-6.3499999999999996
 74
0
 49
0.0
 74
0
 49
-6.3499999999999996
 74
0
 49
0.0
 74
0
 49
-6.3499999999999996
 74
0
  0
LTYPE
  5
3B
100
AcDbSymbolTableRecord
100
AcDbLinetypeTableRecord
  2
DIVIDE2
 70
0
  3
Divide (.5x) __..__..__..__..__..__..__..__.._
 72
65
 73
6
 40
15.875
 49
6.3499999999999996
 74
0
 49
-3.1749999999999998
 74
0
 49
0.0
 74
0
 49
-3.1749999999999998
 74
0
 49
0.0
 74
0
 49
-3.1749999999999998
 74
0
  0
LTYPE
  5
3C
100
AcDbSymbolTableRecord
100
AcDbLinetypeTableRecord
  2
DIVIDEX2
 70
0
  3
Divide (2x) ________  .  .  ________  .  .  _
 72
65
 73
6
 40
63.5
 49
25.3999999999999986
 74
0
 49
-12.6999999999999993
 74
0
 49
0.0
 74
0
 49
-12.6999999999999993
 74
0
 49
0.0
 74
0
 49
-12.6999999999999993
 74
0
  0
LTYPE
  5
3D
100
AcDbSymbolTableRecord
100
AcDbLinetypeTableRecord
  2
CENTER
 70
0
  3
Center ____ _ ____ _ ____ _ ____ _ ____ _ ____
 72
65
 73
4
 40
50.7999999999999972
 49
31.75
 74
0
 49
-6.3499999999999996
 74
0
 49
6.3499999999999996
 74
0
 49
-6.3499999999999996
 74
0
  0
LTYPE
  5
3E
100
AcDbSymbolTableRecord
100
AcDbLinetypeTableRecord
  2
CENTER2
 70
0
  3
Center (.5x) ___ _ ___ _ ___ _ ___ _ ___ _ ___
 72
65
 73
4
 40
28.5749999999999993
 49
19.0500000000000007
 74
0
 49
-3.1749999999999998
 74
0
 49
3.1749999999999998
 74
0
 49
-3.1749999999999998
 74
0
  0
LTYPE
  5
3F
100
AcDbSymbolTableRecord
100
AcDbLinetypeTableRecord
  2
CENTERX2
 70
0
  3
Center (2x) ________  __  ________  __  _____
 72
65
 73
4
 40
101.5999999999999943
 49
63.5
 74
0
 49
-12.6999999999999993
 74
0
 49
12.6999999999999993
 74
0
 49
-12.6999999999999993
 74
0
  0
LTYPE
  5
40
100
AcDbSymbolTableRecord
100
AcDbLinetypeTableRecord
  2
BORDER
 70
0
  3
Border __ __ . __ __ . __ __ . __ __ . __ __ .
 72
65
 73
6
 40
44.4500000000000028
 49
12.6999999999999993
 74
0
 49
-6.3499999999999996
 74
0
 49
12.6999999999999993
 74
0
 49
-6.3499999999999996
 74
0
 49
0.0
 74
0
 49
-6.3499999999999996
 74
0
  0
LTYPE
  5
41
100
AcDbSymbolTableRecord
100
AcDbLinetypeTableRecord
  2
BORDER2
 70
0
  3
Border (.5x) __.__.__.__.__.__.__.__.__.__.__.
 72
65
 73
6
 40
22.2250000000000014
 49
6.3499999999999996
 74
0
 49
-3.1749999999999998
 74
0
 49
6.3499999999999996
 74
0
 49
-3.1749999999999998
 74
0
 49
0.0
 74
0
 49
-3.1749999999999998
 74
0
  0
LTYPE
  5
42
100
AcDbSymbolTableRecord
100
AcDbLinetypeTableRecord
  2
BORDERX2
 70
0
  3
Border (2x) ____  ____  .  ____  ____  .  ___
 72
65
 73
6
 40
88.9000000000000057
 49
25.3999999999999986
 74
0
 49
-12.6999999999999993
 74
0
 49
25.3999999999999986
 74
0
 49
-12.6999999999999993
 74
0
 49
0.0
 74
0
 49
-12.6999999999999993
 74
0
  0
ENDTAB
  0
TABLE
  2
LAYER
  5
2
100
AcDbSymbolTable
 70
1
  0
LAYER
  5
10
100
AcDbSymbolTableRecord
100
AcDbLayerTableRecord
  2
0
 70
0
 62
1
  6
CONTINUOUS
290
1
370
5
390
F
  0
ENDTAB
  0
TABLE
  2
STYLE
  5
3
100
AcDbSymbolTable
 70
1
  0
STYLE
  5
11
100
AcDbSymbolTableRecord
100
AcDbTextStyleTableRecord
  2
Standard
 70
0
 40
0.0
 41
0.75
 50
0.0
 71
0
 42
2.5
  3
txt
  4

  0
ENDTAB
  0
TABLE
  2
VIEW
  5
6
100
AcDbSymbolTable
 70
0
  0
ENDTAB
  0
TABLE
  2
UCS
  5
7
100
AcDbSymbolTable
 70
0
  0
ENDTAB
  0
TABLE
  2
APPID
  5
9
100
AcDbSymbolTable
 70
1
  0
APPID
  5
12
100
AcDbSymbolTableRecord
100
AcDbRegAppTableRecord
  2
ACAD
 70
0
  0
ENDTAB
  0
TABLE
  2
DIMSTYLE
  5
A
100
AcDbSymbolTable
 70
1
100
AcDbDimStyleTable
 71
0
  0
DIMSTYLE
105
27
100
AcDbSymbolTableRecord
100
AcDbDimStyleTableRecord
  2
Standard
 41
2.5
 42
0.625
 43
3.75
 44
1.25
 70
0
 73
0
 74
0
 77
1
 78
8
140
2.5
141
2.5
143
0.03937007874016
147
0.625
171
3
172
1
271
2
272
2
274
3
278
44
283
0
284
8
340
11
  0
ENDTAB
  0
TABLE
  2
BLOCK_RECORD
  5
1
100
AcDbSymbolTable
 70
1
  0
BLOCK_RECORD
  5
1F
100
AcDbSymbolTableRecord
100
AcDbBlockTableRecord
  2
*Model_Space
340
22
  0
BLOCK_RECORD
  5
1B
100
AcDbSymbolTableRecord
100
AcDbBlockTableRecord
  2
*Paper_Space
340
1E
  0
BLOCK_RECORD
  5
23
100
AcDbSymbolTableRecord
100
AcDbBlockTableRecord
  2
*Paper_Space0
340
26
  0
ENDTAB
  0
ENDSEC
  0
SECTION
  2
BLOCKS
  0
BLOCK
  5
20
100
AcDbEntity
  8
0
100
AcDbBlockBegin
  2
*Model_Space
 70
0
 10
0.0
 20
0.0
 30
0.0
  3
*Model_Space
  1

  0
ENDBLK
  5
21
100
AcDbEntity
  8
0
100
AcDbBlockEnd
  0
BLOCK
  5
1C
100
AcDbEntity
 67
1
  8
0
100
AcDbBlockBegin
  2
*Paper_Space
 70
0
 10
0.0
 20
0.0
 30
0.0
  3
*Paper_Space
  1

  0
ENDBLK
  5
1D
100
AcDbEntity
 67
1
  8
0
100
AcDbBlockEnd
  0
BLOCK
  5
24
100
AcDbEntity
  8
0
100
AcDbBlockBegin
  2
*Paper_Space0
 70
0
 10
0.0
 20
0.0
 30
0.0
  3
*Paper_Space0
  1

  0
ENDBLK
  5
25
100
AcDbEntity
  8
0
100
AcDbBlockEnd
  0
ENDSEC
  0
SECTION
  2
ENTITIES
  0
LINE
  5
43
100
AcDbEntity
100
AcDbLine
  8
0
 62
256
370
-1
  6
ByLayer
 10
0.0
 20
0.0
 30
0.0
 11
0.0
 21
102.8700000000000045
 31
0.0
  0
LINE
  5
44
100
AcDbEntity
100
AcDbLine
  8
0
 62
256
370
-1
  6
ByLayer
 10
0.0
 20
102.8700000000000045
 30
0.0
 11
104.1400000000000006
 21
102.8700000000000045
 31
0.0
  0
LINE
  5
45
100
AcDbEntity
100
AcDbLine
  8
0
 62
256
370
-1
  6
ByLayer
 10
104.1400000000000006
 20
102.8700000000000045
 30
0.0
 11
104.1400000000000006
 21
0.0
 31
0.0
  0
LINE
  5
46
100
AcDbEntity
100
AcDbLine
  8
0
 62
256
370
-1
  6
ByLayer
 10
104.1400000000000006
 20
0.0
 30
0.0
 11
0.0
 21
0.0
 31
0.0
  0
LINE
  5
47
100
AcDbEntity
100
AcDbLine
  8
0
 62
256
370
-1
  6
ByLayer
 10
1.978
 20
3.8100000000000001
 30
0.0
 11
2.8940000000000001
 21
5.3970000000000002
 31
0.0
  0
LINE
  5
48
100
AcDbEntity
100
AcDbLine
  8
0
 62
256
370
-1
  6
ByLayer
 10
2.8940000000000001
 20
5.3970000000000002
 30
0.0
 11
4.726
 21
5.3970000000000002
 31
0.0
  0
LINE
  5
49
100
AcDbEntity
100
AcDbLine
  8
0
 62
256
370
-1
  6
ByLayer
 10
4.726
 20
5.3970000000000002
 30
0.0
 11
5.6420000000000003
 21
3.8100000000000001
 31
0.0
  0
LINE
  5
4A
100
AcDbEntity
100
AcDbLine
  8
0
 62
256
370
-1
  6
ByLayer
 10
5.6420000000000003
 20
3.8100000000000001
 30
0.0
 11
4.726
 21
2.2229999999999999
 31
0.0
  0
LINE
  5
4B
100
AcDbEntity
100
AcDbLine
  8
0
 62
256
370
-1
  6
ByLayer
 10
4.726
 20
2.2229999999999999
 30
0.0
 11
2.8940000000000001
 21
2.2229999999999999
 31
0.0
  0
LINE
  5
4C
100
AcDbEntity
100
AcDbLine
  8
0
 62
256
370
-1
  6
ByLayer
 10
2.8940000000000001
 20
2.2229999999999999
 30
0.0
 11
1.978
 21
3.8100000000000001
 31
0.0
  0
LINE
  5
4D
100
AcDbEntity
100
AcDbLine
  8
0
 62
256
370
-1
  6
ByLayer
 10
1.978
 20
99.0600000000000023
 30
0.0
 11
2.8940000000000001
 21
100.6470000000000056
 31
0.0
  0
LINE
  5
4E
100
AcDbEntity
100
AcDbLine
  8
0
 62
256
370
-1
  6
ByLayer
 10
2.8940000000000001
 20
100.6470000000000056
 30
0.0
 11
4.726
 21
100.6470000000000056
 31
0.0
  0
LINE
  5
4F
100
AcDbEntity
100
AcDbLine
  8
0
 62
256
370
-1
  6
ByLayer
 10
4.726
 20
100.6470000000000056
 30
0.0
 11
5.6420000000000003
 21
99.0600000000000023
 31
0.0
  0
LINE
  5
50
100
AcDbEntity
100
AcDbLine
  8
0
 62
256
370
-1
  6
ByLayer
 10
5.6420000000000003
 20
99.0600000000000023
 30
0.0
 11
4.726
 21
97.472999999999999
 31
0.0
  0
LINE
  5
51
100
AcDbEntity
100
AcDbLine
  8
0
 62
256
370
-1
  6
ByLayer
 10
4.726
 20
97.472999999999999
 30
0.0
 11
2.8940000000000001
 21
97.472999999999999
 31
0.0
  0
LINE
  5
52
100
AcDbEntity
100
AcDbLine
  8
0
 62
256
370
-1
  6
ByLayer
 10
2.8940000000000001
 20
97.472999999999999
 30
0.0
 11
1.978
 21
99.0600000000000023
 31
0.0
  0
LINE
  5
53
100
AcDbEntity
100
AcDbLine
  8
0
 62
256
370
-1
  6
ByLayer
 10
2.1840000000000002
 20
77.367999999999995
 30
0.0
 11
2.1840000000000002
 21
78.9180000000000064
 31
0.0
  0
LINE
  5
54
100
AcDbEntity
100
AcDbLine
  8
0
 62
256
370
-1
  6
ByLayer
 10
2.1840000000000002
 20
78.9180000000000064
 30
0.0
 11
3.734
 21
78.9180000000000064
 31
0.0
  0
LINE
  5
55
100
AcDbEntity
100
AcDbLine
  8
0
 62
256
370
-1
  6
ByLayer
 10
3.734
 20
78.9180000000000064
 30
0.0
 11
3.734
 21
77.367999999999995
 31
0.0
  0
LINE
  5
56
100
AcDbEntity
100
AcDbLine
  8
0
 62
256
370
-1
  6
ByLayer
 10
3.734
 20
77.367999999999995
 30
0.0
 11
2.1840000000000002
 21
77.367999999999995
 31
0.0
  0
LINE
  5
57
100
AcDbEntity
100
AcDbLine
  8
0
 62
256
370
-1
  6
ByLayer
 10
2.1840000000000002
 20
81.8900000000000006
 30
0.0
 11
2.1840000000000002
 21
83.4399999999999977
 31
0.0
  0
LINE
  5
58
100
AcDbEntity
100
AcDbLine
  8
0
 62
256
370
-1
  6
ByLayer
 10
2.1840000000000002
 20
83.4399999999999977
 30
0.0
 11
3.734
 21
83.4399999999999977
 31
0.0
  0
LINE
  5
59
100
AcDbEntity
100
AcDbLine
  8
0
 62
256
370
-1
  6
ByLayer
 10
3.734
 20
83.4399999999999977
 30
0.0
 11
3.734
 21
81.8900000000000006
 31
0.0
  0
LINE
  5
5A
100
AcDbEntity
100
AcDbLine
  8
0
 62
256
370
-1
  6
ByLayer
 10
3.734
 20
81.8900000000000006
 30
0.0
 11
2.1840000000000002
 21
81.8900000000000006
 31
0.0
  0
LINE
  5
5B
100
AcDbEntity
100
AcDbLine
  8
0
 62
256
370
-1
  6
ByLayer
 10
3.016
 20
91.9159999999999968
 30
0.0
 11
3.016
 21
93.465999999999994
 31
0.0
  0
LINE
  5
5C
100
AcDbEntity
100
AcDbLine
  8
0
 62
256
370
-1
  6
ByLayer
 10
3.016
 20
93.465999999999994
 30
0.0
 11
4.5659999999999998
 21
93.465999999999994
 31
0.0
  0
LINE
  5
5D
100
AcDbEntity
100
AcDbLine
  8
0
 62
256
370
-1
  6
ByLayer
 10
4.5659999999999998
 20
93.465999999999994
 30
0.0
 11
4.5659999999999998
 21
91.9159999999999968
 31
0.0
  0
LINE
  5
5E
100
AcDbEntity
100
AcDbLine
  8
0
 62
256
370
-1
  6
ByLayer
 10
4.5659999999999998
 20
91.9159999999999968
 30
0.0
 11
3.016
 21
91.9159999999999968
 31
0.0
  0
LINE
  5
5F
100
AcDbEntity
100
AcDbLine
  8
0
 62
256
370
-1
  6
ByLayer
 10
3.1749999999999998
 20
36.8299999999999983
 30
0.0
 11
3.1749999999999998
 21
38.3800000000000026
 31
0.0
  0
LINE
  5
60
100
AcDbEntity
100
AcDbLine
  8
0
 62
256
370
-1
  6
ByLayer
 10
3.1749999999999998
 20
38.3800000000000026
 30
0.0
 11
4.7249999999999996
 21
38.3800000000000026
 31
0.0
  0
LINE
  5
61
100
AcDbEntity
100
AcDbLine
  8
0
 62
256
370
-1
  6
ByLayer
 10
4.7249999999999996
 20
38.3800000000000026
 30
0.0
 11
4.7249999999999996
 21
36.8299999999999983
 31
0.0
  0
LINE
  5
62
100
AcDbEntity
100
AcDbLine
  8
0
 62
256
370
-1
  6
ByLayer
 10
4.7249999999999996
 20
36.8299999999999983
 30
0.0
 11
3.1749999999999998
 21
36.8299999999999983
 31
0.0
  0
LINE
  5
63
100
AcDbEntity
100
AcDbLine
  8
0
 62
256
370
-1
  6
ByLayer
 10
3.1749999999999998
 20
43.1799999999999997
 30
0.0
 11
3.1749999999999998
 21
44.7299999999999969
 31
0.0
  0
LINE
  5
64
100
AcDbEntity
100
AcDbLine
  8
0
 62
256
370
-1
  6
ByLayer
 10
3.1749999999999998
 20
44.7299999999999969
 30
0.0
 11
4.7249999999999996
 21
44.7299999999999969
 31
0.0
  0
LINE
  5
65
100
AcDbEntity
100
AcDbLine
  8
0
 62
256
370
-1
  6
ByLayer
 10
4.7249999999999996
 20
44.7299999999999969
 30
0.0
 11
4.7249999999999996
 21
43.1799999999999997
 31
0.0
  0
LINE
  5
66
100
AcDbEntity
100
AcDbLine
  8
0
 62
256
370
-1
  6
ByLayer
 10
4.7249999999999996
 20
43.1799999999999997
 30
0.0
 11
3.1749999999999998
 21
43.1799999999999997
 31
0.0
  0
LINE
  5
67
100
AcDbEntity
100
AcDbLine
  8
0
 62
256
370
-1
  6
ByLayer
 10
4.6740000000000004
 20
76.1239999999999952
 30
0.0
 11
4.6740000000000004
 21
77.6740000000000066
 31
0.0
  0
LINE
  5
68
100
AcDbEntity
100
AcDbLine
  8
0
 62
256
370
-1
  6
ByLayer
 10
4.6740000000000004
 20
77.6740000000000066
 30
0.0
 11
6.2240000000000002
 21
77.6740000000000066
 31
0.0
  0
LINE
  5
69
100
AcDbEntity
100
AcDbLine
  8
0
 62
256
370
-1
  6
ByLayer
 10
6.2240000000000002
 20
77.6740000000000066
 30
0.0
 11
6.2240000000000002
 21
76.1239999999999952
 31
0.0
  0
LINE
  5
6A
100
AcDbEntity
100
AcDbLine
  8
0
 62
256
370
-1
  6
ByLayer
 10
6.2240000000000002
 20
76.1239999999999952
 30
0.0
 11
4.6740000000000004
 21
76.1239999999999952
 31
0.0
  0
LINE
  5
6B
100
AcDbEntity
100
AcDbLine
  8
0
 62
256
370
-1
  6
ByLayer
 10
4.6740000000000004
 20
83.1340000000000003
 30
0.0
 11
4.6740000000000004
 21
84.6839999999999975
 31
0.0
  0
LINE
  5
6C
100
AcDbEntity
100
AcDbLine
  8
0
 62
256
370
-1
  6
ByLayer
 10
4.6740000000000004
 20
84.6839999999999975
 30
0.0
 11
6.2240000000000002
 21
84.6839999999999975
 31
0.0
  0
LINE
  5
6D
100
AcDbEntity
100
AcDbLine
  8
0
 62
256
370
-1
  6
ByLayer
 10
6.2240000000000002
 20
84.6839999999999975
 30
0.0
 11
6.2240000000000002
 21
83.1340000000000003
 31
0.0
  0
LINE
  5
6E
100
AcDbEntity
100
AcDbLine
  8
0
 62
256
370
-1
  6
ByLayer
 10
6.2240000000000002
 20
83.1340000000000003
 30
0.0
 11
4.6740000000000004
 21
83.1340000000000003
 31
0.0
  0
LINE
  5
6F
100
AcDbEntity
100
AcDbLine
  8
0
 62
256
370
-1
  6
ByLayer
 10
5.556
 20
91.9159999999999968
 30
0.0
 11
5.556
 21
93.465999999999994
 31
0.0
  0
LINE
  5
70
100
AcDbEntity
100
AcDbLine
  8
0
 62
256
370
-1
  6
ByLayer
 10
5.556
 20
93.465999999999994
 30
0.0
 11
7.1059999999999999
 21
93.465999999999994
 31
0.0
  0
LINE
  5
71
100
AcDbEntity
100
AcDbLine
  8
0
 62
256
370
-1
  6
ByLayer
 10
7.1059999999999999
 20
93.465999999999994
 30
0.0
 11
7.1059999999999999
 21
91.9159999999999968
 31
0.0
  0
LINE
  5
72
100
AcDbEntity
100
AcDbLine
  8
0
 62
256
370
-1
  6
ByLayer
 10
7.1059999999999999
 20
91.9159999999999968
 30
0.0
 11
5.556
 21
91.9159999999999968
 31
0.0
  0
LINE
  5
73
100
AcDbEntity
100
AcDbLine
  8
0
 62
256
370
-1
  6
ByLayer
 10
5.7149999999999999
 20
36.8299999999999983
 30
0.0
 11
5.7149999999999999
 21
38.3800000000000026
 31
0.0
  0
LINE
  5
74
100
AcDbEntity
100
AcDbLine
  8
0
 62
256
370
-1
  6
ByLayer
 10
5.7149999999999999
 20
38.3800000000000026
 30
0.0
 11
7.2649999999999997
 21
38.3800000000000026
 31
0.0
  0
LINE
  5
75
100
AcDbEntity
100
AcDbLine
  8
0
 62
256
370
-1
  6
ByLayer
 10
7.2649999999999997
 20
38.3800000000000026
 30
0.0
 11
7.2649999999999997
 21
36.8299999999999983
 31
0.0
  0
LINE
  5
76
100
AcDbEntity
100
AcDbLine
  8
0
 62
256
370
-1
  6
ByLayer
 10
7.2649999999999997
 20
36.8299999999999983
 30
0.0
 11
5.7149999999999999
 21
36.8299999999999983
 31
0.0
  0
LINE
  5
77
100
AcDbEntity
100
AcDbLine
  8
0
 62
256
370
-1
  6
ByLayer
 10
5.7149999999999999
 20
43.1799999999999997
 30
0.0
 11
5.7149999999999999
 21
44.7299999999999969
 31
0.0
  0
LINE
  5
78
100
AcDbEntity
100
AcDbLine
  8
0
 62
256
370
-1
  6
ByLayer
 10
5.7149999999999999
 20
44.7299999999999969
 30
0.0
 11
7.2649999999999997
 21
44.7299999999999969
 31
0.0
  0
LINE
  5
79
100
AcDbEntity
100
AcDbLine
  8
0
 62
256
370
-1
  6
ByLayer
 10
7.2649999999999997
 20
44.7299999999999969
 30
0.0
 11
7.2649999999999997
 21
43.1799999999999997
 31
0.0
  0
LINE
  5
7A
100
AcDbEntity
100
AcDbLine
  8
0
 62
256
370
-1
  6
ByLayer
 10
7.2649999999999997
 20
43.1799999999999997
 30
0.0
 11
5.7149999999999999
 21
43.1799999999999997
 31
0.0
  0
LINE
  5
7B
100
AcDbEntity
100
AcDbLine
  8
0
 62
256
370
-1
  6
ByLayer
 10
6.3499999999999996
 20
52.4200000000000017
 30
0.0
 11
6.3499999999999996
 21
53.9699999999999989
 31
0.0
  0
LINE
  5
7C
100
AcDbEntity
100
AcDbLine
  8
0
 62
256
370
-1
  6
ByLayer
 10
6.3499999999999996
 20
53.9699999999999989
 30
0.0
 11
7.9000000000000004
 21
53.9699999999999989
 31
0.0
  0
LINE
  5
7D
100
AcDbEntity
100
AcDbLine
  8
0
 62
256
370
-1
  6
ByLayer
 10
7.9000000000000004
 20
53.9699999999999989
 30
0.0
 11
7.9000000000000004
 21
52.4200000000000017
 31
0.0
  0
LINE
  5
7E
100
AcDbEntity
100
AcDbLine
  8
0
 62
256
370
-1
  6
ByLayer
 10
7.9000000000000004
 20
52.4200000000000017
 30
0.0
 11
6.3499999999999996
 21
52.4200000000000017
 31
0.0
  0
LINE
  5
7F
100
AcDbEntity
100
AcDbLine
  8
0
 62
256
370
-1
  6
ByLayer
 10
6.3499999999999996
 20
64.4200000000000017
 30
0.0
 11
6.3499999999999996
 21
65.9699999999999989
 31
0.0
  0
LINE
  5
80
100
AcDbEntity
100
AcDbLine
  8
0
 62
256
370
-1
  6
ByLayer
 10
6.3499999999999996
 20
65.9699999999999989
 30
0.0
 11
7.9000000000000004
 21
65.9699999999999989
 31
0.0
  0
LINE
  5
81
100
AcDbEntity
100
AcDbLine
  8
0
 62
256
370
-1
  6
ByLayer
 10
7.9000000000000004
 20
65.9699999999999989
 30
0.0
 11
7.9000000000000004
 21
64.4200000000000017
 31
0.0
  0
LINE
  5
82
100
AcDbEntity
100
AcDbLine
  8
0
 62
256
370
-1
  6
ByLayer
 10
7.9000000000000004
 20
64.4200000000000017
 30
0.0
 11
6.3499999999999996
 21
64.4200000000000017
 31
0.0
  0
LINE
  5
83
100
AcDbEntity
100
AcDbLine
  8
0
 62
256
370
-1
  6
ByLayer
 10
8.2550000000000008
 20
36.8299999999999983
 30
0.0
 11
8.2550000000000008
 21
38.3800000000000026
 31
0.0
  0
LINE
  5
84
100
AcDbEntity
100
AcDbLine
  8
0
 62
256
370
-1
  6
ByLayer
 10
8.2550000000000008
 20
38.3800000000000026
 30
0.0
 11
9.8049999999999997
 21
38.3800000000000026
 31
0.0
  0
LINE
  5
85
100
AcDbEntity
100
AcDbLine
  8
0
 62
256
370
-1
  6
ByLayer
 10
9.8049999999999997
 20
38.3800000000000026
 30
0.0
 11
9.8049999999999997
 21
36.8299999999999983
 31
0.0
  0
LINE
  5
86
100
AcDbEntity
100
AcDbLine
  8
0
 62
256
370
-1
  6
ByLayer
 10
9.8049999999999997
 20
36.8299999999999983
 30
0.0
 11
8.2550000000000008
 21
36.8299999999999983
 31
0.0
  0
LINE
  5
87
100
AcDbEntity
100
AcDbLine
  8
0
 62
256
370
-1
  6
ByLayer
 10
8.2550000000000008
 20
43.1799999999999997
 30
0.0
 11
8.2550000000000008
 21
44.7299999999999969
 31
0.0
  0
LINE
  5
88
100
AcDbEntity
100
AcDbLine
  8
0
 62
256
370
-1
  6
ByLayer
 10
8.2550000000000008
 20
44.7299999999999969
 30
0.0
 11
9.8049999999999997
 21
44.7299999999999969
 31
0.0
  0
LINE
  5
89
100
AcDbEntity
100
AcDbLine
  8
0
 62
256
370
-1
  6
ByLayer
 10
9.8049999999999997
 20
44.7299999999999969
 30
0.0
 11
9.8049999999999997
 21
43.1799999999999997
 31
0.0
  0
LINE
  5
8A
100
AcDbEntity
100
AcDbLine
  8
0
 62
256
370
-1
  6
ByLayer
 10
9.8049999999999997
 20
43.1799999999999997
 30
0.0
 11
8.2550000000000008
 21
43.1799999999999997
 31
0.0
  0
LINE
  5
8B
100
AcDbEntity
100
AcDbLine
  8
0
 62
256
370
-1
  6
ByLayer
 10
9.0600000000000005
 20
57.1700000000000017
 30
0.0
 11
9.0600000000000005
 21
58.7199999999999989
 31
0.0
  0
LINE
  5
8C
100
AcDbEntity
100
AcDbLine
  8
0
 62
256
370
-1
  6
ByLayer
 10
9.0600000000000005
 20
58.7199999999999989
 30
0.0
 11
10.6099999999999994
 21
58.7199999999999989
 31
0.0
  0
LINE
  5
8D
100
AcDbEntity
100
AcDbLine
  8
0
 62
256
370
-1
  6
ByLayer
 10
10.6099999999999994
 20
58.7199999999999989
 30
0.0
 11
10.6099999999999994
 21
57.1700000000000017
 31
0.0
  0
LINE
  5
8E
100
AcDbEntity
100
AcDbLine
  8
0
 62
256
370
-1
  6
ByLayer
 10
10.6099999999999994
 20
57.1700000000000017
 30
0.0
 11
9.0600000000000005
 21
57.1700000000000017
 31
0.0
  0
LINE
  5
8F
100
AcDbEntity
100
AcDbLine
  8
0
 62
256
370
-1
  6
ByLayer
 10
9.0600000000000005
 20
59.6700000000000017
 30
0.0
 11
9.0600000000000005
 21
61.2199999999999989
 31
0.0
  0
LINE
  5
90
100
AcDbEntity
100
AcDbLine
  8
0
 62
256
370
-1
  6
ByLayer
 10
9.0600000000000005
 20
61.2199999999999989
 30
0.0
 11
10.6099999999999994
 21
61.2199999999999989
 31
0.0
  0
LINE
  5
91
100
AcDbEntity
100
AcDbLine
  8
0
 62
256
370
-1
  6
ByLayer
 10
10.6099999999999994
 20
61.2199999999999989
 30
0.0
 11
10.6099999999999994
 21
59.6700000000000017
 31
0.0
  0
LINE
  5
92
100
AcDbEntity
100
AcDbLine
  8
0
 62
256
370
-1
  6
ByLayer
 10
10.6099999999999994
 20
59.6700000000000017
 30
0.0
 11
9.0600000000000005
 21
59.6700000000000017
 31
0.0
  0
LINE
  5
93
100
AcDbEntity
100
AcDbLine
  8
0
 62
256
370
-1
  6
ByLayer
 10
11.0600000000000005
 20
57.1700000000000017
 30
0.0
 11
11.0600000000000005
 21
58.7199999999999989
 31
0.0
  0
LINE
  5
94
100
AcDbEntity
100
AcDbLine
  8
0
 62
256
370
-1
  6
ByLayer
 10
11.0600000000000005
 20
58.7199999999999989
 30
0.0
 11
12.6099999999999994
 21
58.7199999999999989
 31
0.0
  0
LINE
  5
95
100
AcDbEntity
100
AcDbLine
  8
0
 62
256
370
-1
  6
ByLayer
 10
12.6099999999999994
 20
58.7199999999999989
 30
0.0
 11
12.6099999999999994
 21
57.1700000000000017
 31
0.0
  0
LINE
  5
96
100
AcDbEntity
100
AcDbLine
  8
0
 62
256
370
-1
  6
ByLayer
 10
12.6099999999999994
 20
57.1700000000000017
 30
0.0
 11
11.0600000000000005
 21
57.1700000000000017
 31
0.0
  0
LINE
  5
97
100
AcDbEntity
100
AcDbLine
  8
0
 62
256
370
-1
  6
ByLayer
 10
11.0600000000000005
 20
59.6700000000000017
 30
0.0
 11
11.0600000000000005
 21
61.2199999999999989
 31
0.0
  0
LINE
  5
98
100
AcDbEntity
100
AcDbLine
  8
0
 62
256
370
-1
  6
ByLayer
 10
11.0600000000000005
 20
61.2199999999999989
 30
0.0
 11
12.6099999999999994
 21
61.2199999999999989
 31
0.0
  0
LINE
  5
99
100
AcDbEntity
100
AcDbLine
  8
0
 62
256
370
-1
  6
ByLayer
 10
12.6099999999999994
 20
61.2199999999999989
 30
0.0
 11
12.6099999999999994
 21
59.6700000000000017
 31
0.0
  0
LINE
  5
9A
100
AcDbEntity
100
AcDbLine
  8
0
 62
256
370
-1
  6
ByLayer
 10
12.6099999999999994
 20
59.6700000000000017
 30
0.0
 11
11.0600000000000005
 21
59.6700000000000017
 31
0.0
  0
LINE
  5
9B
100
AcDbEntity
100
AcDbLine
  8
0
 62
256
370
-1
  6
ByLayer
 10
11.4299999999999997
 20
4.6479999999999997
 30
0.0
 11
11.4299999999999997
 21
6.1980000000000004
 31
0.0
  0
LINE
  5
9C
100
AcDbEntity
100
AcDbLine
  8
0
 62
256
370
-1
  6
ByLayer
 10
11.4299999999999997
 20
6.1980000000000004
 30
0.0
 11
12.9800000000000004
 21
6.1980000000000004
 31
0.0
  0
LINE
  5
9D
100
AcDbEntity
100
AcDbLine
  8
0
 62
256
370
-1
  6
ByLayer
 10
12.9800000000000004
 20
6.1980000000000004
 30
0.0
 11
12.9800000000000004
 21
4.6479999999999997
 31
0.0
  0
LINE
  5
9E
100
AcDbEntity
100
AcDbLine
  8
0
 62
256
370
-1
  6
ByLayer
 10
12.9800000000000004
 20
4.6479999999999997
 30
0.0
 11
11.4299999999999997
 21
4.6479999999999997
 31
0.0
  0
LINE
  5
9F
100
AcDbEntity
100
AcDbLine
  8
0
 62
256
370
-1
  6
ByLayer
 10
11.4299999999999997
 20
93.980000000000004
 30
0.0
 11
11.4299999999999997
 21
95.5300000000000011
 31
0.0
  0
LINE
  5
A0
100
AcDbEntity
100
AcDbLine
  8
0
 62
256
370
-1
  6
ByLayer
 10
11.4299999999999997
 20
95.5300000000000011
 30
0.0
 11
12.9800000000000004
 21
95.5300000000000011
 31
0.0
  0
LINE
  5
A1
100
AcDbEntity
100
AcDbLine
  8
0
 62
256
370
-1
  6
ByLayer
 10
12.9800000000000004
 20
95.5300000000000011
 30
0.0
 11
12.9800000000000004
 21
93.980000000000004
 31
0.0
  0
LINE
  5
A2
100
AcDbEntity
100
AcDbLine
  8
0
 62
256
370
-1
  6
ByLayer
 10
12.9800000000000004
 20
93.980000000000004
 30
0.0
 11
11.4299999999999997
 21
93.980000000000004
 31
0.0
  0
LINE
  5
A3
100
AcDbEntity
100
AcDbLine
  8
0
 62
256
370
-1
  6
ByLayer
 10
13.3350000000000009
 20
36.8299999999999983
 30
0.0
 11
13.3350000000000009
 21
38.3800000000000026
 31
0.0
  0
LINE
  5
A4
100
AcDbEntity
100
AcDbLine
  8
0
 62
256
370
-1
  6
ByLayer
 10
13.3350000000000009
 20
38.3800000000000026
 30
0.0
 11
14.8849999999999998
 21
38.3800000000000026
 31
0.0
  0
LINE
  5
A5
100
AcDbEntity
100
AcDbLine
  8
0
 62
256
370
-1
  6
ByLayer
 10
14.8849999999999998
 20
38.3800000000000026
 30
0.0
 11
14.8849999999999998
 21
36.8299999999999983
 31
0.0
  0
LINE
  5
A6
100
AcDbEntity
100
AcDbLine
  8
0
 62
256
370
-1
  6
ByLayer
 10
14.8849999999999998
 20
36.8299999999999983
 30
0.0
 11
13.3350000000000009
 21
36.8299999999999983
 31
0.0
  0
LINE
  5
A7
100
AcDbEntity
100
AcDbLine
  8
0
 62
256
370
-1
  6
ByLayer
 10
13.3350000000000009
 20
43.1799999999999997
 30
0.0
 11
13.3350000000000009
 21
44.7299999999999969
 31
0.0
  0
LINE
  5
A8
100
AcDbEntity
100
AcDbLine
  8
0
 62
256
370
-1
  6
ByLayer
 10
13.3350000000000009
 20
44.7299999999999969
 30
0.0
 11
14.8849999999999998
 21
44.7299999999999969
 31
0.0
  0
LINE
  5
A9
100
AcDbEntity
100
AcDbLine
  8
0
 62
256
370
-1
  6
ByLayer
 10
14.8849999999999998
 20
44.7299999999999969
 30
0.0
 11
14.8849999999999998
 21
43.1799999999999997
 31
0.0
  0
LINE
  5
AA
100
AcDbEntity
100
AcDbLine
  8
0
 62
256
370
-1
  6
ByLayer
 10
14.8849999999999998
 20
43.1799999999999997
 30
0.0
 11
13.3350000000000009
 21
43.1799999999999997
 31
0.0
  0
LINE
  5
AB
100
AcDbEntity
100
AcDbLine
  8
0
 62
256
370
-1
  6
ByLayer
 10
13.9700000000000006
 20
4.6479999999999997
 30
0.0
 11
13.9700000000000006
 21
6.1980000000000004
 31
0.0
  0
LINE
  5
AC
100
AcDbEntity
100
AcDbLine
  8
0
 62
256
370
-1
  6
ByLayer
 10
13.9700000000000006
 20
6.1980000000000004
 30
0.0
 11
15.5199999999999996
 21
6.1980000000000004
 31
0.0
  0
LINE
  5
AD
100
AcDbEntity
100
AcDbLine
  8
0
 62
256
370
-1
  6
ByLayer
 10
15.5199999999999996
 20
6.1980000000000004
 30
0.0
 11
15.5199999999999996
 21
4.6479999999999997
 31
0.0
  0
LINE
  5
AE
100
AcDbEntity
100
AcDbLine
  8
0
 62
256
370
-1
  6
ByLayer
 10
15.5199999999999996
 20
4.6479999999999997
 30
0.0
 11
13.9700000000000006
 21
4.6479999999999997
 31
0.0
  0
LINE
  5
AF
100
AcDbEntity
100
AcDbLine
  8
0
 62
256
370
-1
  6
ByLayer
 10
14.2880000000000003
 20
68.2630000000000052
 30
0.0
 11
14.2880000000000003
 21
69.8130000000000024
 31
0.0
  0
LINE
  5
B0
100
AcDbEntity
100
AcDbLine
  8
0
 62
256
370
-1
  6
ByLayer
 10
14.2880000000000003
 20
69.8130000000000024
 30
0.0
 11
15.8379999999999992
 21
69.8130000000000024
 31
0.0
  0
LINE
  5
B1
100
AcDbEntity
100
AcDbLine
  8
0
 62
256
370
-1
  6
ByLayer
 10
15.8379999999999992
 20
69.8130000000000024
 30
0.0
 11
15.8379999999999992
 21
68.2630000000000052
 31
0.0
  0
LINE
  5
B2
100
AcDbEntity
100
AcDbLine
  8
0
 62
256
370
-1
  6
ByLayer
 10
15.8379999999999992
 20
68.2630000000000052
 30
0.0
 11
14.2880000000000003
 21
68.2630000000000052
 31
0.0
  0
LINE
  5
B3
100
AcDbEntity
100
AcDbLine
  8
0
 62
256
370
-1
  6
ByLayer
 10
14.2880000000000003
 20
70.8029999999999973
 30
0.0
 11
14.2880000000000003
 21
72.3529999999999944
 31
0.0
  0
LINE
  5
B4
100
AcDbEntity
100
AcDbLine
  8
0
 62
256
370
-1
  6
ByLayer
 10
14.2880000000000003
 20
72.3529999999999944
 30
0.0
 11
15.8379999999999992
 21
72.3529999999999944
 31
0.0
  0
LINE
  5
B5
100
AcDbEntity
100
AcDbLine
  8
0
 62
256
370
-1
  6
ByLayer
 10
15.8379999999999992
 20
72.3529999999999944
 30
0.0
 11
15.8379999999999992
 21
70.8029999999999973
 31
0.0
  0
LINE
  5
B6
100
AcDbEntity
100
AcDbLine
  8
0
 62
256
370
-1
  6
ByLayer
 10
15.8379999999999992
 20
70.8029999999999973
 30
0.0
 11
14.2880000000000003
 21
70.8029999999999973
 31
0.0
  0
LINE
  5
B7
100
AcDbEntity
100
AcDbLine
  8
0
 62
256
370
-1
  6
ByLayer
 10
15.875
 20
36.8299999999999983
 30
0.0
 11
15.875
 21
38.3800000000000026
 31
0.0
  0
LINE
  5
B8
100
AcDbEntity
100
AcDbLine
  8
0
 62
256
370
-1
  6
ByLayer
 10
15.875
 20
38.3800000000000026
 30
0.0
 11
17.4250000000000007
 21
38.3800000000000026
 31
0.0
  0
LINE
  5
B9
100
AcDbEntity
100
AcDbLine
  8
0
 62
256
370
-1
  6
ByLayer
 10
17.4250000000000007
 20
38.3800000000000026
 30
0.0
 11
17.4250000000000007
 21
36.8299999999999983
 31
0.0
  0
LINE
  5
BA
100
AcDbEntity
100
AcDbLine
  8
0
 62
256
370
-1
  6
ByLayer
 10
17.4250000000000007
 20
36.8299999999999983
 30
0.0
 11
15.875
 21
36.8299999999999983
 31
0.0
  0
LINE
  5
BB
100
AcDbEntity
100
AcDbLine
  8
0
 62
256
370
-1
  6
ByLayer
 10
15.875
 20
43.1799999999999997
 30
0.0
 11
15.875
 21
44.7299999999999969
 31
0.0
  0
LINE
  5
BC
100
AcDbEntity
100
AcDbLine
  8
0
 62
256
370
-1
  6
ByLayer
 10
15.875
 20
44.7299999999999969
 30
0.0
 11
17.4250000000000007
 21
44.7299999999999969
 31
0.0
  0
LINE
  5
BD
100
AcDbEntity
100
AcDbLine
  8
0
 62
256
370
-1
  6
ByLayer
 10
17.4250000000000007
 20
44.7299999999999969
 30
0.0
 11
17.4250000000000007
 21
43.1799999999999997
 31
0.0
  0
LINE
  5
BE
100
AcDbEntity
100
AcDbLine
  8
0
 62
256
370
-1
  6
ByLayer
 10
17.4250000000000007
 20
43.1799999999999997
 30
0.0
 11
15.875
 21
43.1799999999999997
 31
0.0
  0
LINE
  5
BF
100
AcDbEntity
100
AcDbLine
  8
0
 62
256
370
-1
  6
ByLayer
 10
16.5100000000000016
 20
4.6479999999999997
 30
0.0
 11
16.5100000000000016
 21
6.1980000000000004
 31
0.0
  0
LINE
  5
C0
100
AcDbEntity
100
AcDbLine
  8
0
 62
256
370
-1
  6
ByLayer
 10
16.5100000000000016
 20
6.1980000000000004
 30
0.0
 11
18.0599999999999987
 21
6.1980000000000004
 31
0.0
  0
LINE
  5
C1
100
AcDbEntity
100
AcDbLine
  8
0
 62
256
370
-1
  6
ByLayer
 10
18.0599999999999987
 20
6.1980000000000004
 30
0.0
 11
18.0599999999999987
 21
4.6479999999999997
 31
0.0
  0
LINE
  5
C2
100
AcDbEntity
100
AcDbLine
  8
0
 62
256
370
-1
  6
ByLayer
 10
18.0599999999999987
 20
4.6479999999999997
 30
0.0
 11
16.5100000000000016
 21
4.6479999999999997
 31
0.0
  0
LINE
  5
C3
100
AcDbEntity
100
AcDbLine
  8
0
 62
256
370
-1
  6
ByLayer
 10
16.5100000000000016
 20
93.980000000000004
 30
0.0
 11
16.5100000000000016
 21
95.5300000000000011
 31
0.0
  0
LINE
  5
C4
100
AcDbEntity
100
AcDbLine
  8
0
 62
256
370
-1
  6
ByLayer
 10
16.5100000000000016
 20
95.5300000000000011
 30
0.0
 11
18.0599999999999987
 21
95.5300000000000011
 31
0.0
  0
LINE
  5
C5
100
AcDbEntity
100
AcDbLine
  8
0
 62
256
370
-1
  6
ByLayer
 10
18.0599999999999987
 20
95.5300000000000011
 30
0.0
 11
18.0599999999999987
 21
93.980000000000004
 31
0.0
  0
LINE
  5
C6
100
AcDbEntity
100
AcDbLine
  8
0
 62
256
370
-1
  6
ByLayer
 10
18.0599999999999987
 20
93.980000000000004
 30
0.0
 11
16.5100000000000016
 21
93.980000000000004
 31
0.0
  0
LINE
  5
C7
100
AcDbEntity
100
AcDbLine
  8
0
 62
256
370
-1
  6
ByLayer
 10
16.8279999999999994
 20
68.2630000000000052
 30
0.0
 11
16.8279999999999994
 21
69.8130000000000024
 31
0.0
  0
LINE
  5
C8
100
AcDbEntity
100
AcDbLine
  8
0
 62
256
370
-1
  6
ByLayer
 10
16.8279999999999994
 20
69.8130000000000024
 30
0.0
 11
18.3780000000000001
 21
69.8130000000000024
 31
0.0
  0
LINE
  5
C9
100
AcDbEntity
100
AcDbLine
  8
0
 62
256
370
-1
  6
ByLayer
 10
18.3780000000000001
 20
69.8130000000000024
 30
0.0
 11
18.3780000000000001
 21
68.2630000000000052
 31
0.0
  0
LINE
  5
CA
100
AcDbEntity
100
AcDbLine
  8
0
 62
256
370
-1
  6
ByLayer
 10
18.3780000000000001
 20
68.2630000000000052
 30
0.0
 11
16.8279999999999994
 21
68.2630000000000052
 31
0.0
  0
LINE
  5
CB
100
AcDbEntity
100
AcDbLine
  8
0
 62
256
370
-1
  6
ByLayer
 10
16.8279999999999994
 20
70.8029999999999973
 30
0.0
 11
16.8279999999999994
 21
72.3529999999999944
 31
0.0
  0
LINE
  5
CC
100
AcDbEntity
100
AcDbLine
  8
0
 62
256
370
-1
  6
ByLayer
 10
16.8279999999999994
 20
72.3529999999999944
 30
0.0
 11
18.3780000000000001
 21
72.3529999999999944
 31
0.0
  0
LINE
  5
CD
100
AcDbEntity
100
AcDbLine
  8
0
 62
256
370
-1
  6
ByLayer
 10
18.3780000000000001
 20
72.3529999999999944
 30
0.0
 11
18.3780000000000001
 21
70.8029999999999973
 31
0.0
  0
LINE
  5
CE
100
AcDbEntity
100
AcDbLine
  8
0
 62
256
370
-1
  6
ByLayer
 10
18.3780000000000001
 20
70.8029999999999973
 30
0.0
 11
16.8279999999999994
 21
70.8029999999999973
 31
0.0
  0
LINE
  5
CF
100
AcDbEntity
100
AcDbLine
  8
0
 62
256
370
-1
  6
ByLayer
 10
17.7800000000000011
 20
86.3599999999999994
 30
0.0
 11
17.7800000000000011
 21
87.9099999999999966
 31
0.0
  0
LINE
  5
D0
100
AcDbEntity
100
AcDbLine
  8
0
 62
256
370
-1
  6
ByLayer
 10
17.7800000000000011
 20
87.9099999999999966
 30
0.0
 11
19.3299999999999983
 21
87.9099999999999966
 31
0.0
  0
LINE
  5
D1
100
AcDbEntity
100
AcDbLine
  8
0
 62
256
370
-1
  6
ByLayer
 10
19.3299999999999983
 20
87.9099999999999966
 30
0.0
 11
19.3299999999999983
 21
86.3599999999999994
 31
0.0
  0
LINE
  5
D2
100
AcDbEntity
100
AcDbLine
  8
0
 62
256
370
-1
  6
ByLayer
 10
19.3299999999999983
 20
86.3599999999999994
 30
0.0
 11
17.7800000000000011
 21
86.3599999999999994
 31
0.0
  0
LINE
  5
D3
100
AcDbEntity
100
AcDbLine
  8
0
 62
256
370
-1
  6
ByLayer
 10
18.4149999999999991
 20
36.8299999999999983
 30
0.0
 11
18.4149999999999991
 21
38.3800000000000026
 31
0.0
  0
LINE
  5
D4
100
AcDbEntity
100
AcDbLine
  8
0
 62
256
370
-1
  6
ByLayer
 10
18.4149999999999991
 20
38.3800000000000026
 30
0.0
 11
19.9649999999999999
 21
38.3800000000000026
 31
0.0
  0
LINE
  5
D5
100
AcDbEntity
100
AcDbLine
  8
0
 62
256
370
-1
  6
ByLayer
 10
19.9649999999999999
 20
38.3800000000000026
 30
0.0
 11
19.9649999999999999
 21
36.8299999999999983
 31
0.0
  0
LINE
  5
D6
100
AcDbEntity
100
AcDbLine
  8
0
 62
256
370
-1
  6
ByLayer
 10
19.9649999999999999
 20
36.8299999999999983
 30
0.0
 11
18.4149999999999991
 21
36.8299999999999983
 31
0.0
  0
LINE
  5
D7
100
AcDbEntity
100
AcDbLine
  8
0
 62
256
370
-1
  6
ByLayer
 10
18.4149999999999991
 20
43.1799999999999997
 30
0.0
 11
18.4149999999999991
 21
44.7299999999999969
 31
0.0
  0
LINE
  5
D8
100
AcDbEntity
100
AcDbLine
  8
0
 62
256
370
-1
  6
ByLayer
 10
18.4149999999999991
 20
44.7299999999999969
 30
0.0
 11
19.9649999999999999
 21
44.7299999999999969
 31
0.0
  0
LINE
  5
D9
100
AcDbEntity
100
AcDbLine
  8
0
 62
256
370
-1
  6
ByLayer
 10
19.9649999999999999
 20
44.7299999999999969
 30
0.0
 11
19.9649999999999999
 21
43.1799999999999997
 31
0.0
  0
LINE
  5
DA
100
AcDbEntity
100
AcDbLine
  8
0
 62
256
370
-1
  6
ByLayer
 10
19.9649999999999999
 20
43.1799999999999997
 30
0.0
 11
18.4149999999999991
 21
43.1799999999999997
 31
0.0
  0
LINE
  5
DB
100
AcDbEntity
100
AcDbLine
  8
0
 62
256
370
-1
  6
ByLayer
 10
19.0500000000000007
 20
4.6479999999999997
 30
0.0
 11
19.0500000000000007
 21
6.1980000000000004
 31
0.0
  0
LINE
  5
DC
100
AcDbEntity
100
AcDbLine
  8
0
 62
256
370
-1
  6
ByLayer
 10
19.0500000000000007
 20
6.1980000000000004
 30
0.0
 11
20.6000000000000014
 21
6.1980000000000004
 31
0.0
  0
LINE
  5
DD
100
AcDbEntity
100
AcDbLine
  8
0
 62
256
370
-1
  6
ByLayer
 10
20.6000000000000014
 20
6.1980000000000004
 30
0.0
 11
20.6000000000000014
 21
4.6479999999999997
 31
0.0
  0
LINE
  5
DE
100
AcDbEntity
100
AcDbLine
  8
0
 62
256
370
-1
  6
ByLayer
 10
20.6000000000000014
 20
4.6479999999999997
 30
0.0
 11
19.0500000000000007
 21
4.6479999999999997
 31
0.0
  0
LINE
  5
DF
100
AcDbEntity
100
AcDbLine
  8
0
 62
256
370
-1
  6
ByLayer
 10
19.3670000000000009
 20
68.2630000000000052
 30
0.0
 11
19.3670000000000009
 21
69.8130000000000024
 31
0.0
  0
LINE
  5
E0
100
AcDbEntity
100
AcDbLine
  8
0
 62
256
370
-1
  6
ByLayer
 10
19.3670000000000009
 20
69.8130000000000024
 30
0.0
 11
20.9170000000000016
 21
69.8130000000000024
 31
0.0
  0
LINE
  5
E1
100
AcDbEntity
100
AcDbLine
  8
0
 62
256
370
-1
  6
ByLayer
 10
20.9170000000000016
 20
69.8130000000000024
 30
0.0
 11
20.9170000000000016
 21
68.2630000000000052
 31
0.0
  0
LINE
  5
E2
100
AcDbEntity
100
AcDbLine
  8
0
 62
256
370
-1
  6
ByLayer
 10
20.9170000000000016
 20
68.2630000000000052
 30
0.0
 11
19.3670000000000009
 21
68.2630000000000052
 31
0.0
  0
LINE
  5
E3
100
AcDbEntity
100
AcDbLine
  8
0
 62
256
370
-1
  6
ByLayer
 10
19.3670000000000009
 20
70.8029999999999973
 30
0.0
 11
19.3670000000000009
 21
72.3529999999999944
 31
0.0
  0
LINE
  5
E4
100
AcDbEntity
100
AcDbLine
  8
0
 62
256
370
-1
  6
ByLayer
 10
19.3670000000000009
 20
72.3529999999999944
 30
0.0
 11
20.9170000000000016
 21
72.3529999999999944
 31
0.0
  0
LINE
  5
E5
100
AcDbEntity
100
AcDbLine
  8
0
 62
256
370
-1
  6
ByLayer
 10
20.9170000000000016
 20
72.3529999999999944
 30
0.0
 11
20.9170000000000016
 21
70.8029999999999973
 31
0.0
  0
LINE
  5
E6
100
AcDbEntity
100
AcDbLine
  8
0
 62
256
370
-1
  6
ByLayer
 10
20.9170000000000016
 20
70.8029999999999973
 30
0.0
 11
19.3670000000000009
 21
70.8029999999999973
 31
0.0
  0
LINE
  5
E7
100
AcDbEntity
100
AcDbLine
  8
0
 62
256
370
-1
  6
ByLayer
 10
20.3200000000000003
 20
86.3599999999999994
 30
0.0
 11
20.3200000000000003
 21
87.9099999999999966
 31
0.0
  0
LINE
  5
E8
100
AcDbEntity
100
AcDbLine
  8
0
 62
256
370
-1
  6
ByLayer
 10
20.3200000000000003
 20
87.9099999999999966
 30
0.0
 11
21.870000000000001
 21
87.9099999999999966
 31
0.0
  0
LINE
  5
E9
100
AcDbEntity
100
AcDbLine
  8
0
 62
256
370
-1
  6
ByLayer
 10
21.870000000000001
 20
87.9099999999999966
 30
0.0
 11
21.870000000000001
 21
86.3599999999999994
 31
0.0
  0
LINE
  5
EA
100
AcDbEntity
100
AcDbLine
  8
0
 62
256
370
-1
  6
ByLayer
 10
21.870000000000001
 20
86.3599999999999994
 30
0.0
 11
20.3200000000000003
 21
86.3599999999999994
 31
0.0
  0
LINE
  5
EB
100
AcDbEntity
100
AcDbLine
  8
0
 62
256
370
-1
  6
ByLayer
 10
21.5899999999999999
 20
93.980000000000004
 30
0.0
 11
21.5899999999999999
 21
95.5300000000000011
 31
0.0
  0
LINE
  5
EC
100
AcDbEntity
100
AcDbLine
  8
0
 62
256
370
-1
  6
ByLayer
 10
21.5899999999999999
 20
95.5300000000000011
 30
0.0
 11
23.1400000000000006
 21
95.5300000000000011
 31
0.0
  0
LINE
  5
ED
100
AcDbEntity
100
AcDbLine
  8
0
 62
256
370
-1
  6
ByLayer
 10
23.1400000000000006
 20
95.5300000000000011
 30
0.0
 11
23.1400000000000006
 21
93.980000000000004
 31
0.0
  0
LINE
  5
EE
100
AcDbEntity
100
AcDbLine
  8
0
 62
256
370
-1
  6
ByLayer
 10
23.1400000000000006
 20
93.980000000000004
 30
0.0
 11
21.5899999999999999
 21
93.980000000000004
 31
0.0
  0
LINE
  5
EF
100
AcDbEntity
100
AcDbLine
  8
0
 62
256
370
-1
  6
ByLayer
 10
21.9080000000000013
 20
68.2630000000000052
 30
0.0
 11
21.9080000000000013
 21
69.8130000000000024
 31
0.0
  0
LINE
  5
F0
100
AcDbEntity
100
AcDbLine
  8
0
 62
256
370
-1
  6
ByLayer
 10
21.9080000000000013
 20
69.8130000000000024
 30
0.0
 11
23.4579999999999984
 21
69.8130000000000024
 31
0.0
  0
LINE
  5
F1
100
AcDbEntity
100
AcDbLine
  8
0
 62
256
370
-1
  6
ByLayer
 10
23.4579999999999984
 20
69.8130000000000024
 30
0.0
 11
23.4579999999999984
 21
68.2630000000000052
 31
0.0
  0
LINE
  5
F2
100
AcDbEntity
100
AcDbLine
  8
0
 62
256
370
-1
  6
ByLayer
 10
23.4579999999999984
 20
68.2630000000000052
 30
0.0
 11
21.9080000000000013
 21
68.2630000000000052
 31
0.0
  0
LINE
  5
F3
100
AcDbEntity
100
AcDbLine
  8
0
 62
256
370
-1
  6
ByLayer
 10
21.9080000000000013
 20
70.8029999999999973
 30
0.0
 11
21.9080000000000013
 21
72.3529999999999944
 31
0.0
  0
LINE
  5
F4
100
AcDbEntity
100
AcDbLine
  8
0
 62
256
370
-1
  6
ByLayer
 10
21.9080000000000013
 20
72.3529999999999944
 30
0.0
 11
23.4579999999999984
 21
72.3529999999999944
 31
0.0
  0
LINE
  5
F5
100
AcDbEntity
100
AcDbLine
  8
0
 62
256
370
-1
  6
ByLayer
 10
23.4579999999999984
 20
72.3529999999999944
 30
0.0
 11
23.4579999999999984
 21
70.8029999999999973
 31
0.0
  0
LINE
  5
F6
100
AcDbEntity
100
AcDbLine
  8
0
 62
256
370
-1
  6
ByLayer
 10
23.4579999999999984
 20
70.8029999999999973
 30
0.0
 11
21.9080000000000013
 21
70.8029999999999973
 31
0.0
  0
LINE
  5
F7
100
AcDbEntity
100
AcDbLine
  8
0
 62
256
370
-1
  6
ByLayer
 10
22.8599999999999994
 20
86.3599999999999994
 30
0.0
 11
22.8599999999999994
 21
87.9099999999999966
 31
0.0
  0
LINE
  5
F8
100
AcDbEntity
100
AcDbLine
  8
0
 62
256
370
-1
  6
ByLayer
 10
22.8599999999999994
 20
87.9099999999999966
 30
0.0
 11
24.4100000000000001
 21
87.9099999999999966
 31
0.0
  0
LINE
  5
F9
100
AcDbEntity
100
AcDbLine
  8
0
 62
256
370
-1
  6
ByLayer
 10
24.4100000000000001
 20
87.9099999999999966
 30
0.0
 11
24.4100000000000001
 21
86.3599999999999994
 31
0.0
  0
LINE
  5
FA
100
AcDbEntity
100
AcDbLine
  8
0
 62
256
370
-1
  6
ByLayer
 10
24.4100000000000001
 20
86.3599999999999994
 30
0.0
 11
22.8599999999999994
 21
86.3599999999999994
 31
0.0
  0
LINE
  5
FB
100
AcDbEntity
100
AcDbLine
  8
0
 62
256
370
-1
  6
ByLayer
 10
23.495000000000001
 20
36.8299999999999983
 30
0.0
 11
23.495000000000001
 21
38.3800000000000026
 31
0.0
  0
LINE
  5
FC
100
AcDbEntity
100
AcDbLine
  8
0
 62
256
370
-1
  6
ByLayer
 10
23.495000000000001
 20
38.3800000000000026
 30
0.0
 11
25.0450000000000017
 21
38.3800000000000026
 31
0.0
  0
LINE
  5
FD
100
AcDbEntity
100
AcDbLine
  8
0
 62
256
370
-1
  6
ByLayer
 10
25.0450000000000017
 20
38.3800000000000026
 30
0.0
 11
25.0450000000000017
 21
36.8299999999999983
 31
0.0
  0
LINE
  5
FE
100
AcDbEntity
100
AcDbLine
  8
0
 62
256
370
-1
  6
ByLayer
 10
25.0450000000000017
 20
36.8299999999999983
 30
0.0
 11
23.495000000000001
 21
36.8299999999999983
 31
0.0
  0
LINE
  5
FF
100
AcDbEntity
100
AcDbLine
  8
0
 62
256
370
-1
  6
ByLayer
 10
23.495000000000001
 20
43.1799999999999997
 30
0.0
 11
23.495000000000001
 21
44.7299999999999969
 31
0.0
  0
LINE
  5
100
100
AcDbEntity
100
AcDbLine
  8
0
 62
256
370
-1
  6
ByLayer
 10
23.495000000000001
 20
44.7299999999999969
 30
0.0
 11
25.0450000000000017
 21
44.7299999999999969
 31
0.0
  0
LINE
  5
101
100
AcDbEntity
100
AcDbLine
  8
0
 62
256
370
-1
  6
ByLayer
 10
25.0450000000000017
 20
44.7299999999999969
 30
0.0
 11
25.0450000000000017
 21
43.1799999999999997
 31
0.0
  0
LINE
  5
102
100
AcDbEntity
100
AcDbLine
  8
0
 62
256
370
-1
  6
ByLayer
 10
25.0450000000000017
 20
43.1799999999999997
 30
0.0
 11
23.495000000000001
 21
43.1799999999999997
 31
0.0
  0
LINE
  5
103
100
AcDbEntity
100
AcDbLine
  8
0
 62
256
370
-1
  6
ByLayer
 10
24.4480000000000004
 20
68.2630000000000052
 30
0.0
 11
24.4480000000000004
 21
69.8130000000000024
 31
0.0
  0
LINE
  5
104
100
AcDbEntity
100
AcDbLine
  8
0
 62
256
370
-1
  6
ByLayer
 10
24.4480000000000004
 20
69.8130000000000024
 30
0.0
 11
25.9980000000000011
 21
69.8130000000000024
 31
0.0
  0
LINE
  5
105
100
AcDbEntity
100
AcDbLine
  8
0
 62
256
370
-1
  6
ByLayer
 10
25.9980000000000011
 20
69.8130000000000024
 30
0.0
 11
25.9980000000000011
 21
68.2630000000000052
 31
0.0
  0
LINE
  5
106
100
AcDbEntity
100
AcDbLine
  8
0
 62
256
370
-1
  6
ByLayer
 10
25.9980000000000011
 20
68.2630000000000052
 30
0.0
 11
24.4480000000000004
 21
68.2630000000000052
 31
0.0
  0
LINE
  5
107
100
AcDbEntity
100
AcDbLine
  8
0
 62
256
370
-1
  6
ByLayer
 10
24.4480000000000004
 20
70.8029999999999973
 30
0.0
 11
24.4480000000000004
 21
72.3529999999999944
 31
0.0
  0
LINE
  5
108
100
AcDbEntity
100
AcDbLine
  8
0
 62
256
370
-1
  6
ByLayer
 10
24.4480000000000004
 20
72.3529999999999944
 30
0.0
 11
25.9980000000000011
 21
72.3529999999999944
 31
0.0
  0
LINE
  5
109
100
AcDbEntity
100
AcDbLine
  8
0
 62
256
370
-1
  6
ByLayer
 10
25.9980000000000011
 20
72.3529999999999944
 30
0.0
 11
25.9980000000000011
 21
70.8029999999999973
 31
0.0
  0
LINE
  5
10A
100
AcDbEntity
100
AcDbLine
  8
0
 62
256
370
-1
  6
ByLayer
 10
25.9980000000000011
 20
70.8029999999999973
 30
0.0
 11
24.4480000000000004
 21
70.8029999999999973
 31
0.0
  0
LINE
  5
10B
100
AcDbEntity
100
AcDbLine
  8
0
 62
256
370
-1
  6
ByLayer
 10
25.3999999999999986
 20
86.3599999999999994
 30
0.0
 11
25.3999999999999986
 21
87.9099999999999966
 31
0.0
  0
LINE
  5
10C
100
AcDbEntity
100
AcDbLine
  8
0
 62
256
370
-1
  6
ByLayer
 10
25.3999999999999986
 20
87.9099999999999966
 30
0.0
 11
26.9499999999999993
 21
87.9099999999999966
 31
0.0
  0
LINE
  5
10D
100
AcDbEntity
100
AcDbLine
  8
0
 62
256
370
-1
  6
ByLayer
 10
26.9499999999999993
 20
87.9099999999999966
 30
0.0
 11
26.9499999999999993
 21
86.3599999999999994
 31
0.0
  0
LINE
  5
10E
100
AcDbEntity
100
AcDbLine
  8
0
 62
256
370
-1
  6
ByLayer
 10
26.9499999999999993
 20
86.3599999999999994
 30
0.0
 11
25.3999999999999986
 21
86.3599999999999994
 31
0.0
  0
LINE
  5
10F
100
AcDbEntity
100
AcDbLine
  8
0
 62
256
370
-1
  6
ByLayer
 10
26.0350000000000001
 20
36.8299999999999983
 30
0.0
 11
26.0350000000000001
 21
38.3800000000000026
 31
0.0
  0
LINE
  5
110
100
AcDbEntity
100
AcDbLine
  8
0
 62
256
370
-1
  6
ByLayer
 10
26.0350000000000001
 20
38.3800000000000026
 30
0.0
 11
27.5850000000000009
 21
38.3800000000000026
 31
0.0
  0
LINE
  5
111
100
AcDbEntity
100
AcDbLine
  8
0
 62
256
370
-1
  6
ByLayer
 10
27.5850000000000009
 20
38.3800000000000026
 30
0.0
 11
27.5850000000000009
 21
36.8299999999999983
 31
0.0
  0
LINE
  5
112
100
AcDbEntity
100
AcDbLine
  8
0
 62
256
370
-1
  6
ByLayer
 10
27.5850000000000009
 20
36.8299999999999983
 30
0.0
 11
26.0350000000000001
 21
36.8299999999999983
 31
0.0
  0
LINE
  5
113
100
AcDbEntity
100
AcDbLine
  8
0
 62
256
370
-1
  6
ByLayer
 10
26.0350000000000001
 20
43.1799999999999997
 30
0.0
 11
26.0350000000000001
 21
44.7299999999999969
 31
0.0
  0
LINE
  5
114
100
AcDbEntity
100
AcDbLine
  8
0
 62
256
370
-1
  6
ByLayer
 10
26.0350000000000001
 20
44.7299999999999969
 30
0.0
 11
27.5850000000000009
 21
44.7299999999999969
 31
0.0
  0
LINE
  5
115
100
AcDbEntity
100
AcDbLine
  8
0
 62
256
370
-1
  6
ByLayer
 10
27.5850000000000009
 20
44.7299999999999969
 30
0.0
 11
27.5850000000000009
 21
43.1799999999999997
 31
0.0
  0
LINE
  5
116
100
AcDbEntity
100
AcDbLine
  8
0
 62
256
370
-1
  6
ByLayer
 10
27.5850000000000009
 20
43.1799999999999997
 30
0.0
 11
26.0350000000000001
 21
43.1799999999999997
 31
0.0
  0
LINE
  5
117
100
AcDbEntity
100
AcDbLine
  8
0
 62
256
370
-1
  6
ByLayer
 10
26.6030000000000015
 20
4.6479999999999997
 30
0.0
 11
26.6030000000000015
 21
6.1980000000000004
 31
0.0
  0
LINE
  5
118
100
AcDbEntity
100
AcDbLine
  8
0
 62
256
370
-1
  6
ByLayer
 10
26.6030000000000015
 20
6.1980000000000004
 30
0.0
 11
28.1529999999999987
 21
6.1980000000000004
 31
0.0
  0
LINE
  5
119
100
AcDbEntity
100
AcDbLine
  8
0
 62
256
370
-1
  6
ByLayer
 10
28.1529999999999987
 20
6.1980000000000004
 30
0.0
 11
28.1529999999999987
 21
4.6479999999999997
 31
0.0
  0
LINE
  5
11A
100
AcDbEntity
100
AcDbLine
  8
0
 62
256
370
-1
  6
ByLayer
 10
28.1529999999999987
 20
4.6479999999999997
 30
0.0
 11
26.6030000000000015
 21
4.6479999999999997
 31
0.0
  0
LINE
  5
11B
100
AcDbEntity
100
AcDbLine
  8
0
 62
256
370
-1
  6
ByLayer
 10
26.6700000000000017
 20
93.980000000000004
 30
0.0
 11
26.6700000000000017
 21
95.5300000000000011
 31
0.0
  0
LINE
  5
11C
100
AcDbEntity
100
AcDbLine
  8
0
 62
256
370
-1
  6
ByLayer
 10
26.6700000000000017
 20
95.5300000000000011
 30
0.0
 11
28.2199999999999989
 21
95.5300000000000011
 31
0.0
  0
LINE
  5
11D
100
AcDbEntity
100
AcDbLine
  8
0
 62
256
370
-1
  6
ByLayer
 10
28.2199999999999989
 20
95.5300000000000011
 30
0.0
 11
28.2199999999999989
 21
93.980000000000004
 31
0.0
  0
LINE
  5
11E
100
AcDbEntity
100
AcDbLine
  8
0
 62
256
370
-1
  6
ByLayer
 10
28.2199999999999989
 20
93.980000000000004
 30
0.0
 11
26.6700000000000017
 21
93.980000000000004
 31
0.0
  0
LINE
  5
11F
100
AcDbEntity
100
AcDbLine
  8
0
 62
256
370
-1
  6
ByLayer
 10
26.9879999999999995
 20
68.2630000000000052
 30
0.0
 11
26.9879999999999995
 21
69.8130000000000024
 31
0.0
  0
LINE
  5
120
100
AcDbEntity
100
AcDbLine
  8
0
 62
256
370
-1
  6
ByLayer
 10
26.9879999999999995
 20
69.8130000000000024
 30
0.0
 11
28.5380000000000003
 21
69.8130000000000024
 31
0.0
  0
LINE
  5
121
100
AcDbEntity
100
AcDbLine
  8
0
 62
256
370
-1
  6
ByLayer
 10
28.5380000000000003
 20
69.8130000000000024
 30
0.0
 11
28.5380000000000003
 21
68.2630000000000052
 31
0.0
  0
LINE
  5
122
100
AcDbEntity
100
AcDbLine
  8
0
 62
256
370
-1
  6
ByLayer
 10
28.5380000000000003
 20
68.2630000000000052
 30
0.0
 11
26.9879999999999995
 21
68.2630000000000052
 31
0.0
  0
LINE
  5
123
100
AcDbEntity
100
AcDbLine
  8
0
 62
256
370
-1
  6
ByLayer
 10
26.9879999999999995
 20
70.8029999999999973
 30
0.0
 11
26.9879999999999995
 21
72.3529999999999944
 31
0.0
  0
LINE
  5
124
100
AcDbEntity
100
AcDbLine
  8
0
 62
256
370
-1
  6
ByLayer
 10
26.9879999999999995
 20
72.3529999999999944
 30
0.0
 11
28.5380000000000003
 21
72.3529999999999944
 31
0.0
  0
LINE
  5
125
100
AcDbEntity
100
AcDbLine
  8
0
 62
256
370
-1
  6
ByLayer
 10
28.5380000000000003
 20
72.3529999999999944
 30
0.0
 11
28.5380000000000003
 21
70.8029999999999973
 31
0.0
  0
LINE
  5
126
100
AcDbEntity
100
AcDbLine
  8
0
 62
256
370
-1
  6
ByLayer
 10
28.5380000000000003
 20
70.8029999999999973
 30
0.0
 11
26.9879999999999995
 21
70.8029999999999973
 31
0.0
  0
LINE
  5
127
100
AcDbEntity
100
AcDbLine
  8
0
 62
256
370
-1
  6
ByLayer
 10
27.75
 20
60.134999999999998
 30
0.0
 11
27.75
 21
61.6850000000000023
 31
0.0
  0
LINE
  5
128
100
AcDbEntity
100
AcDbLine
  8
0
 62
256
370
-1
  6
ByLayer
 10
27.75
 20
61.6850000000000023
 30
0.0
 11
29.3000000000000007
 21
61.6850000000000023
 31
0.0
  0
LINE
  5
129
100
AcDbEntity
100
AcDbLine
  8
0
 62
256
370
-1
  6
ByLayer
 10
29.3000000000000007
 20
61.6850000000000023
 30
0.0
 11
29.3000000000000007
 21
60.134999999999998
 31
0.0
  0
LINE
  5
12A
100
AcDbEntity
100
AcDbLine
  8
0
 62
256
370
-1
  6
ByLayer
 10
29.3000000000000007
 20
60.134999999999998
 30
0.0
 11
27.75
 21
60.134999999999998
 31
0.0
  0
LINE
  5
12B
100
AcDbEntity
100
AcDbLine
  8
0
 62
256
370
-1
  6
ByLayer
 10
27.75
 20
62.6749999999999972
 30
0.0
 11
27.75
 21
64.2249999999999943
 31
0.0
  0
LINE
  5
12C
100
AcDbEntity
100
AcDbLine
  8
0
 62
256
370
-1
  6
ByLayer
 10
27.75
 20
64.2249999999999943
 30
0.0
 11
29.3000000000000007
 21
64.2249999999999943
 31
0.0
  0
LINE
  5
12D
100
AcDbEntity
100
AcDbLine
  8
0
 62
256
370
-1
  6
ByLayer
 10
29.3000000000000007
 20
64.2249999999999943
 30
0.0
 11
29.3000000000000007
 21
62.6749999999999972
 31
0.0
  0
LINE
  5
12E
100
AcDbEntity
100
AcDbLine
  8
0
 62
256
370
-1
  6
ByLayer
 10
29.3000000000000007
 20
62.6749999999999972
 30
0.0
 11
27.75
 21
62.6749999999999972
 31
0.0
  0
LINE
  5
12F
100
AcDbEntity
100
AcDbLine
  8
0
 62
256
370
-1
  6
ByLayer
 10
27.9400000000000013
 20
86.3599999999999994
 30
0.0
 11
27.9400000000000013
 21
87.9099999999999966
 31
0.0
  0
LINE
  5
130
100
AcDbEntity
100
AcDbLine
  8
0
 62
256
370
-1
  6
ByLayer
 10
27.9400000000000013
 20
87.9099999999999966
 30
0.0
 11
29.4899999999999984
 21
87.9099999999999966
 31
0.0
  0
LINE
  5
131
100
AcDbEntity
100
AcDbLine
  8
0
 62
256
370
-1
  6
ByLayer
 10
29.4899999999999984
 20
87.9099999999999966
 30
0.0
 11
29.4899999999999984
 21
86.3599999999999994
 31
0.0
  0
LINE
  5
132
100
AcDbEntity
100
AcDbLine
  8
0
 62
256
370
-1
  6
ByLayer
 10
29.4899999999999984
 20
86.3599999999999994
 30
0.0
 11
27.9400000000000013
 21
86.3599999999999994
 31
0.0
  0
LINE
  5
133
100
AcDbEntity
100
AcDbLine
  8
0
 62
256
370
-1
  6
ByLayer
 10
28.5749999999999993
 20
36.8299999999999983
 30
0.0
 11
28.5749999999999993
 21
38.3800000000000026
 31
0.0
  0
LINE
  5
134
100
AcDbEntity
100
AcDbLine
  8
0
 62
256
370
-1
  6
ByLayer
 10
28.5749999999999993
 20
38.3800000000000026
 30
0.0
 11
30.125
 21
38.3800000000000026
 31
0.0
  0
LINE
  5
135
100
AcDbEntity
100
AcDbLine
  8
0
 62
256
370
-1
  6
ByLayer
 10
30.125
 20
38.3800000000000026
 30
0.0
 11
30.125
 21
36.8299999999999983
 31
0.0
  0
LINE
  5
136
100
AcDbEntity
100
AcDbLine
  8
0
 62
256
370
-1
  6
ByLayer
 10
30.125
 20
36.8299999999999983
 30
0.0
 11
28.5749999999999993
 21
36.8299999999999983
 31
0.0
  0
LINE
  5
137
100
AcDbEntity
100
AcDbLine
  8
0
 62
256
370
-1
  6
ByLayer
 10
28.5749999999999993
 20
43.1799999999999997
 30
0.0
 11
28.5749999999999993
 21
44.7299999999999969
 31
0.0
  0
LINE
  5
138
100
AcDbEntity
100
AcDbLine
  8
0
 62
256
370
-1
  6
ByLayer
 10
28.5749999999999993
 20
44.7299999999999969
 30
0.0
 11
30.125
 21
44.7299999999999969
 31
0.0
  0
LINE
  5
139
100
AcDbEntity
100
AcDbLine
  8
0
 62
256
370
-1
  6
ByLayer
 10
30.125
 20
44.7299999999999969
 30
0.0
 11
30.125
 21
43.1799999999999997
 31
0.0
  0
LINE
  5
13A
100
AcDbEntity
100
AcDbLine
  8
0
 62
256
370
-1
  6
ByLayer
 10
30.125
 20
43.1799999999999997
 30
0.0
 11
28.5749999999999993
 21
43.1799999999999997
 31
0.0
  0
LINE
  5
13B
100
AcDbEntity
100
AcDbLine
  8
0
 62
256
370
-1
  6
ByLayer
 10
29.1430000000000007
 20
4.6479999999999997
 30
0.0
 11
29.1430000000000007
 21
6.1980000000000004
 31
0.0
  0
LINE
  5
13C
100
AcDbEntity
100
AcDbLine
  8
0
 62
256
370
-1
  6
ByLayer
 10
29.1430000000000007
 20
6.1980000000000004
 30
0.0
 11
30.6930000000000014
 21
6.1980000000000004
 31
0.0
  0
LINE
  5
13D
100
AcDbEntity
100
AcDbLine
  8
0
 62
256
370
-1
  6
ByLayer
 10
30.6930000000000014
 20
6.1980000000000004
 30
0.0
 11
30.6930000000000014
 21
4.6479999999999997
 31
0.0
  0
LINE
  5
13E
100
AcDbEntity
100
AcDbLine
  8
0
 62
256
370
-1
  6
ByLayer
 10
30.6930000000000014
 20
4.6479999999999997
 30
0.0
 11
29.1430000000000007
 21
4.6479999999999997
 31
0.0
  0
LINE
  5
13F
100
AcDbEntity
100
AcDbLine
  8
0
 62
256
370
-1
  6
ByLayer
 10
29.527000000000001
 20
68.2630000000000052
 30
0.0
 11
29.527000000000001
 21
69.8130000000000024
 31
0.0
  0
LINE
  5
140
100
AcDbEntity
100
AcDbLine
  8
0
 62
256
370
-1
  6
ByLayer
 10
29.527000000000001
 20
69.8130000000000024
 30
0.0
 11
31.0770000000000017
 21
69.8130000000000024
 31
0.0
  0
LINE
  5
141
100
AcDbEntity
100
AcDbLine
  8
0
 62
256
370
-1
  6
ByLayer
 10
31.0770000000000017
 20
69.8130000000000024
 30
0.0
 11
31.0770000000000017
 21
68.2630000000000052
 31
0.0
  0
LINE
  5
142
100
AcDbEntity
100
AcDbLine
  8
0
 62
256
370
-1
  6
ByLayer
 10
31.0770000000000017
 20
68.2630000000000052
 30
0.0
 11
29.527000000000001
 21
68.2630000000000052
 31
0.0
  0
LINE
  5
143
100
AcDbEntity
100
AcDbLine
  8
0
 62
256
370
-1
  6
ByLayer
 10
29.527000000000001
 20
70.8029999999999973
 30
0.0
 11
29.527000000000001
 21
72.3529999999999944
 31
0.0
  0
LINE
  5
144
100
AcDbEntity
100
AcDbLine
  8
0
 62
256
370
-1
  6
ByLayer
 10
29.527000000000001
 20
72.3529999999999944
 30
0.0
 11
31.0770000000000017
 21
72.3529999999999944
 31
0.0
  0
LINE
  5
145
100
AcDbEntity
100
AcDbLine
  8
0
 62
256
370
-1
  6
ByLayer
 10
31.0770000000000017
 20
72.3529999999999944
 30
0.0
 11
31.0770000000000017
 21
70.8029999999999973
 31
0.0
  0
LINE
  5
146
100
AcDbEntity
100
AcDbLine
  8
0
 62
256
370
-1
  6
ByLayer
 10
31.0770000000000017
 20
70.8029999999999973
 30
0.0
 11
29.527000000000001
 21
70.8029999999999973
 31
0.0
  0
LINE
  5
147
100
AcDbEntity
100
AcDbLine
  8
0
 62
256
370
-1
  6
ByLayer
 10
30.2899999999999991
 20
60.134999999999998
 30
0.0
 11
30.2899999999999991
 21
61.6850000000000023
 31
0.0
  0
LINE
  5
148
100
AcDbEntity
100
AcDbLine
  8
0
 62
256
370
-1
  6
ByLayer
 10
30.2899999999999991
 20
61.6850000000000023
 30
0.0
 11
31.8399999999999999
 21
61.6850000000000023
 31
0.0
  0
LINE
  5
149
100
AcDbEntity
100
AcDbLine
  8
0
 62
256
370
-1
  6
ByLayer
 10
31.8399999999999999
 20
61.6850000000000023
 30
0.0
 11
31.8399999999999999
 21
60.134999999999998
 31
0.0
  0
LINE
  5
14A
100
AcDbEntity
100
AcDbLine
  8
0
 62
256
370
-1
  6
ByLayer
 10
31.8399999999999999
 20
60.134999999999998
 30
0.0
 11
30.2899999999999991
 21
60.134999999999998
 31
0.0
  0
LINE
  5
14B
100
AcDbEntity
100
AcDbLine
  8
0
 62
256
370
-1
  6
ByLayer
 10
30.2899999999999991
 20
62.6749999999999972
 30
0.0
 11
30.2899999999999991
 21
64.2249999999999943
 31
0.0
  0
LINE
  5
14C
100
AcDbEntity
100
AcDbLine
  8
0
 62
256
370
-1
  6
ByLayer
 10
30.2899999999999991
 20
64.2249999999999943
 30
0.0
 11
31.8399999999999999
 21
64.2249999999999943
 31
0.0
  0
LINE
  5
14D
100
AcDbEntity
100
AcDbLine
  8
0
 62
256
370
-1
  6
ByLayer
 10
31.8399999999999999
 20
64.2249999999999943
 30
0.0
 11
31.8399999999999999
 21
62.6749999999999972
 31
0.0
  0
LINE
  5
14E
100
AcDbEntity
100
AcDbLine
  8
0
 62
256
370
-1
  6
ByLayer
 10
31.8399999999999999
 20
62.6749999999999972
 30
0.0
 11
30.2899999999999991
 21
62.6749999999999972
 31
0.0
  0
LINE
  5
14F
100
AcDbEntity
100
AcDbLine
  8
0
 62
256
370
-1
  6
ByLayer
 10
30.4800000000000004
 20
86.3599999999999994
 30
0.0
 11
30.4800000000000004
 21
87.9099999999999966
 31
0.0
  0
LINE
  5
150
100
AcDbEntity
100
AcDbLine
  8
0
 62
256
370
-1
  6
ByLayer
 10
30.4800000000000004
 20
87.9099999999999966
 30
0.0
 11
32.0300000000000011
 21
87.9099999999999966
 31
0.0
  0
LINE
  5
151
100
AcDbEntity
100
AcDbLine
  8
0
 62
256
370
-1
  6
ByLayer
 10
32.0300000000000011
 20
87.9099999999999966
 30
0.0
 11
32.0300000000000011
 21
86.3599999999999994
 31
0.0
  0
LINE
  5
152
100
AcDbEntity
100
AcDbLine
  8
0
 62
256
370
-1
  6
ByLayer
 10
32.0300000000000011
 20
86.3599999999999994
 30
0.0
 11
30.4800000000000004
 21
86.3599999999999994
 31
0.0
  0
LINE
  5
153
100
AcDbEntity
100
AcDbLine
  8
0
 62
256
370
-1
  6
ByLayer
 10
31.6829999999999998
 20
4.6479999999999997
 30
0.0
 11
31.6829999999999998
 21
6.1980000000000004
 31
0.0
  0
LINE
  5
154
100
AcDbEntity
100
AcDbLine
  8
0
 62
256
370
-1
  6
ByLayer
 10
31.6829999999999998
 20
6.1980000000000004
 30
0.0
 11
33.232999999999997
 21
6.1980000000000004
 31
0.0
  0
LINE
  5
155
100
AcDbEntity
100
AcDbLine
  8
0
 62
256
370
-1
  6
ByLayer
 10
33.232999999999997
 20
6.1980000000000004
 30
0.0
 11
33.232999999999997
 21
4.6479999999999997
 31
0.0
  0
LINE
  5
156
100
AcDbEntity
100
AcDbLine
  8
0
 62
256
370
-1
  6
ByLayer
 10
33.232999999999997
 20
4.6479999999999997
 30
0.0
 11
31.6829999999999998
 21
4.6479999999999997
 31
0.0
  0
LINE
  5
157
100
AcDbEntity
100
AcDbLine
  8
0
 62
256
370
-1
  6
ByLayer
 10
31.75
 20
93.980000000000004
 30
0.0
 11
31.75
 21
95.5300000000000011
 31
0.0
  0
LINE
  5
158
100
AcDbEntity
100
AcDbLine
  8
0
 62
256
370
-1
  6
ByLayer
 10
31.75
 20
95.5300000000000011
 30
0.0
 11
33.2999999999999972
 21
95.5300000000000011
 31
0.0
  0
LINE
  5
159
100
AcDbEntity
100
AcDbLine
  8
0
 62
256
370
-1
  6
ByLayer
 10
33.2999999999999972
 20
95.5300000000000011
 30
0.0
 11
33.2999999999999972
 21
93.980000000000004
 31
0.0
  0
LINE
  5
15A
100
AcDbEntity
100
AcDbLine
  8
0
 62
256
370
-1
  6
ByLayer
 10
33.2999999999999972
 20
93.980000000000004
 30
0.0
 11
31.75
 21
93.980000000000004
 31
0.0
  0
LINE
  5
15B
100
AcDbEntity
100
AcDbLine
  8
0
 62
256
370
-1
  6
ByLayer
 10
32.0679999999999978
 20
68.2630000000000052
 30
0.0
 11
32.0679999999999978
 21
69.8130000000000024
 31
0.0
  0
LINE
  5
15C
100
AcDbEntity
100
AcDbLine
  8
0
 62
256
370
-1
  6
ByLayer
 10
32.0679999999999978
 20
69.8130000000000024
 30
0.0
 11
33.6180000000000021
 21
69.8130000000000024
 31
0.0
  0
LINE
  5
15D
100
AcDbEntity
100
AcDbLine
  8
0
 62
256
370
-1
  6
ByLayer
 10
33.6180000000000021
 20
69.8130000000000024
 30
0.0
 11
33.6180000000000021
 21
68.2630000000000052
 31
0.0
  0
LINE
  5
15E
100
AcDbEntity
100
AcDbLine
  8
0
 62
256
370
-1
  6
ByLayer
 10
33.6180000000000021
 20
68.2630000000000052
 30
0.0
 11
32.0679999999999978
 21
68.2630000000000052
 31
0.0
  0
LINE
  5
15F
100
AcDbEntity
100
AcDbLine
  8
0
 62
256
370
-1
  6
ByLayer
 10
32.0679999999999978
 20
70.8029999999999973
 30
0.0
 11
32.0679999999999978
 21
72.3529999999999944
 31
0.0
  0
LINE
  5
160
100
AcDbEntity
100
AcDbLine
  8
0
 62
256
370
-1
  6
ByLayer
 10
32.0679999999999978
 20
72.3529999999999944
 30
0.0
 11
33.6180000000000021
 21
72.3529999999999944
 31
0.0
  0
LINE
  5
161
100
AcDbEntity
100
AcDbLine
  8
0
 62
256
370
-1
  6
ByLayer
 10
33.6180000000000021
 20
72.3529999999999944
 30
0.0
 11
33.6180000000000021
 21
70.8029999999999973
 31
0.0
  0
LINE
  5
162
100
AcDbEntity
100
AcDbLine
  8
0
 62
256
370
-1
  6
ByLayer
 10
33.6180000000000021
 20
70.8029999999999973
 30
0.0
 11
32.0679999999999978
 21
70.8029999999999973
 31
0.0
  0
LINE
  5
163
100
AcDbEntity
100
AcDbLine
  8
0
 62
256
370
-1
  6
ByLayer
 10
32.4849999999999994
 20
41.2749999999999986
 30
0.0
 11
32.4849999999999994
 21
42.8250000000000028
 31
0.0
  0
LINE
  5
164
100
AcDbEntity
100
AcDbLine
  8
0
 62
256
370
-1
  6
ByLayer
 10
32.4849999999999994
 20
42.8250000000000028
 30
0.0
 11
34.0349999999999966
 21
42.8250000000000028
 31
0.0
  0
LINE
  5
165
100
AcDbEntity
100
AcDbLine
  8
0
 62
256
370
-1
  6
ByLayer
 10
34.0349999999999966
 20
42.8250000000000028
 30
0.0
 11
34.0349999999999966
 21
41.2749999999999986
 31
0.0
  0
LINE
  5
166
100
AcDbEntity
100
AcDbLine
  8
0
 62
256
370
-1
  6
ByLayer
 10
34.0349999999999966
 20
41.2749999999999986
 30
0.0
 11
32.4849999999999994
 21
41.2749999999999986
 31
0.0
  0
LINE
  5
167
100
AcDbEntity
100
AcDbLine
  8
0
 62
256
370
-1
  6
ByLayer
 10
32.4849999999999994
 20
43.8149999999999977
 30
0.0
 11
32.4849999999999994
 21
45.365000000000002
 31
0.0
  0
LINE
  5
168
100
AcDbEntity
100
AcDbLine
  8
0
 62
256
370
-1
  6
ByLayer
 10
32.4849999999999994
 20
45.365000000000002
 30
0.0
 11
34.0349999999999966
 21
45.365000000000002
 31
0.0
  0
LINE
  5
169
100
AcDbEntity
100
AcDbLine
  8
0
 62
256
370
-1
  6
ByLayer
 10
34.0349999999999966
 20
45.365000000000002
 30
0.0
 11
34.0349999999999966
 21
43.8149999999999977
 31
0.0
  0
LINE
  5
16A
100
AcDbEntity
100
AcDbLine
  8
0
 62
256
370
-1
  6
ByLayer
 10
34.0349999999999966
 20
43.8149999999999977
 30
0.0
 11
32.4849999999999994
 21
43.8149999999999977
 31
0.0
  0
LINE
  5
16B
100
AcDbEntity
100
AcDbLine
  8
0
 62
256
370
-1
  6
ByLayer
 10
32.8299999999999983
 20
60.134999999999998
 30
0.0
 11
32.8299999999999983
 21
61.6850000000000023
 31
0.0
  0
LINE
  5
16C
100
AcDbEntity
100
AcDbLine
  8
0
 62
256
370
-1
  6
ByLayer
 10
32.8299999999999983
 20
61.6850000000000023
 30
0.0
 11
34.3800000000000026
 21
61.6850000000000023
 31
0.0
  0
LINE
  5
16D
100
AcDbEntity
100
AcDbLine
  8
0
 62
256
370
-1
  6
ByLayer
 10
34.3800000000000026
 20
61.6850000000000023
 30
0.0
 11
34.3800000000000026
 21
60.134999999999998
 31
0.0
  0
LINE
  5
16E
100
AcDbEntity
100
AcDbLine
  8
0
 62
256
370
-1
  6
ByLayer
 10
34.3800000000000026
 20
60.134999999999998
 30
0.0
 11
32.8299999999999983
 21
60.134999999999998
 31
0.0
  0
LINE
  5
16F
100
AcDbEntity
100
AcDbLine
  8
0
 62
256
370
-1
  6
ByLayer
 10
32.8299999999999983
 20
62.6749999999999972
 30
0.0
 11
32.8299999999999983
 21
64.2249999999999943
 31
0.0
  0
LINE
  5
170
100
AcDbEntity
100
AcDbLine
  8
0
 62
256
370
-1
  6
ByLayer
 10
32.8299999999999983
 20
64.2249999999999943
 30
0.0
 11
34.3800000000000026
 21
64.2249999999999943
 31
0.0
  0
LINE
  5
171
100
AcDbEntity
100
AcDbLine
  8
0
 62
256
370
-1
  6
ByLayer
 10
34.3800000000000026
 20
64.2249999999999943
 30
0.0
 11
34.3800000000000026
 21
62.6749999999999972
 31
0.0
  0
LINE
  5
172
100
AcDbEntity
100
AcDbLine
  8
0
 62
256
370
-1
  6
ByLayer
 10
34.3800000000000026
 20
62.6749999999999972
 30
0.0
 11
32.8299999999999983
 21
62.6749999999999972
 31
0.0
  0
LINE
  5
173
100
AcDbEntity
100
AcDbLine
  8
0
 62
256
370
-1
  6
ByLayer
 10
33.953000000000003
 20
36.8299999999999983
 30
0.0
 11
33.953000000000003
 21
38.3800000000000026
 31
0.0
  0
LINE
  5
174
100
AcDbEntity
100
AcDbLine
  8
0
 62
256
370
-1
  6
ByLayer
 10
33.953000000000003
 20
38.3800000000000026
 30
0.0
 11
35.5030000000000001
 21
38.3800000000000026
 31
0.0
  0
LINE
  5
175
100
AcDbEntity
100
AcDbLine
  8
0
 62
256
370
-1
  6
ByLayer
 10
35.5030000000000001
 20
38.3800000000000026
 30
0.0
 11
35.5030000000000001
 21
36.8299999999999983
 31
0.0
  0
LINE
  5
176
100
AcDbEntity
100
AcDbLine
  8
0
 62
256
370
-1
  6
ByLayer
 10
35.5030000000000001
 20
36.8299999999999983
 30
0.0
 11
33.953000000000003
 21
36.8299999999999983
 31
0.0
  0
LINE
  5
177
100
AcDbEntity
100
AcDbLine
  8
0
 62
256
370
-1
  6
ByLayer
 10
34.222999999999999
 20
4.6479999999999997
 30
0.0
 11
34.222999999999999
 21
6.1980000000000004
 31
0.0
  0
LINE
  5
178
100
AcDbEntity
100
AcDbLine
  8
0
 62
256
370
-1
  6
ByLayer
 10
34.222999999999999
 20
6.1980000000000004
 30
0.0
 11
35.7730000000000032
 21
6.1980000000000004
 31
0.0
  0
LINE
  5
179
100
AcDbEntity
100
AcDbLine
  8
0
 62
256
370
-1
  6
ByLayer
 10
35.7730000000000032
 20
6.1980000000000004
 30
0.0
 11
35.7730000000000032
 21
4.6479999999999997
 31
0.0
  0
LINE
  5
17A
100
AcDbEntity
100
AcDbLine
  8
0
 62
256
370
-1
  6
ByLayer
 10
35.7730000000000032
 20
4.6479999999999997
 30
0.0
 11
34.222999999999999
 21
4.6479999999999997
 31
0.0
  0
LINE
  5
17B
100
AcDbEntity
100
AcDbLine
  8
0
 62
256
370
-1
  6
ByLayer
 10
35.0249999999999986
 20
41.2749999999999986
 30
0.0
 11
35.0249999999999986
 21
42.8250000000000028
 31
0.0
  0
LINE
  5
17C
100
AcDbEntity
100
AcDbLine
  8
0
 62
256
370
-1
  6
ByLayer
 10
35.0249999999999986
 20
42.8250000000000028
 30
0.0
 11
36.5750000000000028
 21
42.8250000000000028
 31
0.0
  0
LINE
  5
17D
100
AcDbEntity
100
AcDbLine
  8
0
 62
256
370
-1
  6
ByLayer
 10
36.5750000000000028
 20
42.8250000000000028
 30
0.0
 11
36.5750000000000028
 21
41.2749999999999986
 31
0.0
  0
LINE
  5
17E
100
AcDbEntity
100
AcDbLine
  8
0
 62
256
370
-1
  6
ByLayer
 10
36.5750000000000028
 20
41.2749999999999986
 30
0.0
 11
35.0249999999999986
 21
41.2749999999999986
 31
0.0
  0
LINE
  5
17F
100
AcDbEntity
100
AcDbLine
  8
0
 62
256
370
-1
  6
ByLayer
 10
35.0249999999999986
 20
43.8149999999999977
 30
0.0
 11
35.0249999999999986
 21
45.365000000000002
 31
0.0
  0
LINE
  5
180
100
AcDbEntity
100
AcDbLine
  8
0
 62
256
370
-1
  6
ByLayer
 10
35.0249999999999986
 20
45.365000000000002
 30
0.0
 11
36.5750000000000028
 21
45.365000000000002
 31
0.0
  0
LINE
  5
181
100
AcDbEntity
100
AcDbLine
  8
0
 62
256
370
-1
  6
ByLayer
 10
36.5750000000000028
 20
45.365000000000002
 30
0.0
 11
36.5750000000000028
 21
43.8149999999999977
 31
0.0
  0
LINE
  5
182
100
AcDbEntity
100
AcDbLine
  8
0
 62
256
370
-1
  6
ByLayer
 10
36.5750000000000028
 20
43.8149999999999977
 30
0.0
 11
35.0249999999999986
 21
43.8149999999999977
 31
0.0
  0
LINE
  5
183
100
AcDbEntity
100
AcDbLine
  8
0
 62
256
370
-1
  6
ByLayer
 10
36.4919999999999973
 20
36.8299999999999983
 30
0.0
 11
36.4919999999999973
 21
38.3800000000000026
 31
0.0
  0
LINE
  5
184
100
AcDbEntity
100
AcDbLine
  8
0
 62
256
370
-1
  6
ByLayer
 10
36.4919999999999973
 20
38.3800000000000026
 30
0.0
 11
38.0420000000000016
 21
38.3800000000000026
 31
0.0
  0
LINE
  5
185
100
AcDbEntity
100
AcDbLine
  8
0
 62
256
370
-1
  6
ByLayer
 10
38.0420000000000016
 20
38.3800000000000026
 30
0.0
 11
38.0420000000000016
 21
36.8299999999999983
 31
0.0
  0
LINE
  5
186
100
AcDbEntity
100
AcDbLine
  8
0
 62
256
370
-1
  6
ByLayer
 10
38.0420000000000016
 20
36.8299999999999983
 30
0.0
 11
36.4919999999999973
 21
36.8299999999999983
 31
0.0
  0
LINE
  5
187
100
AcDbEntity
100
AcDbLine
  8
0
 62
256
370
-1
  6
ByLayer
 10
36.8299999999999983
 20
93.980000000000004
 30
0.0
 11
36.8299999999999983
 21
95.5300000000000011
 31
0.0
  0
LINE
  5
188
100
AcDbEntity
100
AcDbLine
  8
0
 62
256
370
-1
  6
ByLayer
 10
36.8299999999999983
 20
95.5300000000000011
 30
0.0
 11
38.3800000000000026
 21
95.5300000000000011
 31
0.0
  0
LINE
  5
189
100
AcDbEntity
100
AcDbLine
  8
0
 62
256
370
-1
  6
ByLayer
 10
38.3800000000000026
 20
95.5300000000000011
 30
0.0
 11
38.3800000000000026
 21
93.980000000000004
 31
0.0
  0
LINE
  5
18A
100
AcDbEntity
100
AcDbLine
  8
0
 62
256
370
-1
  6
ByLayer
 10
38.3800000000000026
 20
93.980000000000004
 30
0.0
 11
36.8299999999999983
 21
93.980000000000004
 31
0.0
  0
LINE
  5
18B
100
AcDbEntity
100
AcDbLine
  8
0
 62
256
370
-1
  6
ByLayer
 10
37.5649999999999977
 20
41.2749999999999986
 30
0.0
 11
37.5649999999999977
 21
42.8250000000000028
 31
0.0
  0
LINE
  5
18C
100
AcDbEntity
100
AcDbLine
  8
0
 62
256
370
-1
  6
ByLayer
 10
37.5649999999999977
 20
42.8250000000000028
 30
0.0
 11
39.115000000000002
 21
42.8250000000000028
 31
0.0
  0
LINE
  5
18D
100
AcDbEntity
100
AcDbLine
  8
0
 62
256
370
-1
  6
ByLayer
 10
39.115000000000002
 20
42.8250000000000028
 30
0.0
 11
39.115000000000002
 21
41.2749999999999986
 31
0.0
  0
LINE
  5
18E
100
AcDbEntity
100
AcDbLine
  8
0
 62
256
370
-1
  6
ByLayer
 10
39.115000000000002
 20
41.2749999999999986
 30
0.0
 11
37.5649999999999977
 21
41.2749999999999986
 31
0.0
  0
LINE
  5
18F
100
AcDbEntity
100
AcDbLine
  8
0
 62
256
370
-1
  6
ByLayer
 10
37.5649999999999977
 20
43.8149999999999977
 30
0.0
 11
37.5649999999999977
 21
45.365000000000002
 31
0.0
  0
LINE
  5
190
100
AcDbEntity
100
AcDbLine
  8
0
 62
256
370
-1
  6
ByLayer
 10
37.5649999999999977
 20
45.365000000000002
 30
0.0
 11
39.115000000000002
 21
45.365000000000002
 31
0.0
  0
LINE
  5
191
100
AcDbEntity
100
AcDbLine
  8
0
 62
256
370
-1
  6
ByLayer
 10
39.115000000000002
 20
45.365000000000002
 30
0.0
 11
39.115000000000002
 21
43.8149999999999977
 31
0.0
  0
LINE
  5
192
100
AcDbEntity
100
AcDbLine
  8
0
 62
256
370
-1
  6
ByLayer
 10
39.115000000000002
 20
43.8149999999999977
 30
0.0
 11
37.5649999999999977
 21
43.8149999999999977
 31
0.0
  0
LINE
  5
193
100
AcDbEntity
100
AcDbLine
  8
0
 62
256
370
-1
  6
ByLayer
 10
39.0319999999999965
 20
36.8299999999999983
 30
0.0
 11
39.0319999999999965
 21
38.3800000000000026
 31
0.0
  0
LINE
  5
194
100
AcDbEntity
100
AcDbLine
  8
0
 62
256
370
-1
  6
ByLayer
 10
39.0319999999999965
 20
38.3800000000000026
 30
0.0
 11
40.5820000000000007
 21
38.3800000000000026
 31
0.0
  0
LINE
  5
195
100
AcDbEntity
100
AcDbLine
  8
0
 62
256
370
-1
  6
ByLayer
 10
40.5820000000000007
 20
38.3800000000000026
 30
0.0
 11
40.5820000000000007
 21
36.8299999999999983
 31
0.0
  0
LINE
  5
196
100
AcDbEntity
100
AcDbLine
  8
0
 62
256
370
-1
  6
ByLayer
 10
40.5820000000000007
 20
36.8299999999999983
 30
0.0
 11
39.0319999999999965
 21
36.8299999999999983
 31
0.0
  0
LINE
  5
197
100
AcDbEntity
100
AcDbLine
  8
0
 62
256
370
-1
  6
ByLayer
 10
40.1049999999999969
 20
41.2749999999999986
 30
0.0
 11
40.1049999999999969
 21
42.8250000000000028
 31
0.0
  0
LINE
  5
198
100
AcDbEntity
100
AcDbLine
  8
0
 62
256
370
-1
  6
ByLayer
 10
40.1049999999999969
 20
42.8250000000000028
 30
0.0
 11
41.6550000000000011
 21
42.8250000000000028
 31
0.0
  0
LINE
  5
199
100
AcDbEntity
100
AcDbLine
  8
0
 62
256
370
-1
  6
ByLayer
 10
41.6550000000000011
 20
42.8250000000000028
 30
0.0
 11
41.6550000000000011
 21
41.2749999999999986
 31
0.0
  0
LINE
  5
19A
100
AcDbEntity
100
AcDbLine
  8
0
 62
256
370
-1
  6
ByLayer
 10
41.6550000000000011
 20
41.2749999999999986
 30
0.0
 11
40.1049999999999969
 21
41.2749999999999986
 31
0.0
  0
LINE
  5
19B
100
AcDbEntity
100
AcDbLine
  8
0
 62
256
370
-1
  6
ByLayer
 10
40.1049999999999969
 20
43.8149999999999977
 30
0.0
 11
40.1049999999999969
 21
45.365000000000002
 31
0.0
  0
LINE
  5
19C
100
AcDbEntity
100
AcDbLine
  8
0
 62
256
370
-1
  6
ByLayer
 10
40.1049999999999969
 20
45.365000000000002
 30
0.0
 11
41.6550000000000011
 21
45.365000000000002
 31
0.0
  0
LINE
  5
19D
100
AcDbEntity
100
AcDbLine
  8
0
 62
256
370
-1
  6
ByLayer
 10
41.6550000000000011
 20
45.365000000000002
 30
0.0
 11
41.6550000000000011
 21
43.8149999999999977
 31
0.0
  0
LINE
  5
19E
100
AcDbEntity
100
AcDbLine
  8
0
 62
256
370
-1
  6
ByLayer
 10
41.6550000000000011
 20
43.8149999999999977
 30
0.0
 11
40.1049999999999969
 21
43.8149999999999977
 31
0.0
  0
LINE
  5
19F
100
AcDbEntity
100
AcDbLine
  8
0
 62
256
370
-1
  6
ByLayer
 10
40.3230000000000004
 20
68.8979999999999961
 30
0.0
 11
40.3230000000000004
 21
70.4479999999999933
 31
0.0
  0
LINE
  5
1A0
100
AcDbEntity
100
AcDbLine
  8
0
 62
256
370
-1
  6
ByLayer
 10
40.3230000000000004
 20
70.4479999999999933
 30
0.0
 11
41.8729999999999976
 21
70.4479999999999933
 31
0.0
  0
LINE
  5
1A1
100
AcDbEntity
100
AcDbLine
  8
0
 62
256
370
-1
  6
ByLayer
 10
41.8729999999999976
 20
70.4479999999999933
 30
0.0
 11
41.8729999999999976
 21
68.8979999999999961
 31
0.0
  0
LINE
  5
1A2
100
AcDbEntity
100
AcDbLine
  8
0
 62
256
370
-1
  6
ByLayer
 10
41.8729999999999976
 20
68.8979999999999961
 30
0.0
 11
40.3230000000000004
 21
68.8979999999999961
 31
0.0
  0
LINE
  5
1A3
100
AcDbEntity
100
AcDbLine
  8
0
 62
256
370
-1
  6
ByLayer
 10
40.3230000000000004
 20
71.4380000000000024
 30
0.0
 11
40.3230000000000004
 21
72.9879999999999995
 31
0.0
  0
LINE
  5
1A4
100
AcDbEntity
100
AcDbLine
  8
0
 62
256
370
-1
  6
ByLayer
 10
40.3230000000000004
 20
72.9879999999999995
 30
0.0
 11
41.8729999999999976
 21
72.9879999999999995
 31
0.0
  0
LINE
  5
1A5
100
AcDbEntity
100
AcDbLine
  8
0
 62
256
370
-1
  6
ByLayer
 10
41.8729999999999976
 20
72.9879999999999995
 30
0.0
 11
41.8729999999999976
 21
71.4380000000000024
 31
0.0
  0
LINE
  5
1A6
100
AcDbEntity
100
AcDbLine
  8
0
 62
256
370
-1
  6
ByLayer
 10
41.8729999999999976
 20
71.4380000000000024
 30
0.0
 11
40.3230000000000004
 21
71.4380000000000024
 31
0.0
  0
LINE
  5
1A7
100
AcDbEntity
100
AcDbLine
  8
0
 62
256
370
-1
  6
ByLayer
 10
41.5730000000000004
 20
36.8299999999999983
 30
0.0
 11
41.5730000000000004
 21
38.3800000000000026
 31
0.0
  0
LINE
  5
1A8
100
AcDbEntity
100
AcDbLine
  8
0
 62
256
370
-1
  6
ByLayer
 10
41.5730000000000004
 20
38.3800000000000026
 30
0.0
 11
43.1229999999999976
 21
38.3800000000000026
 31
0.0
  0
LINE
  5
1A9
100
AcDbEntity
100
AcDbLine
  8
0
 62
256
370
-1
  6
ByLayer
 10
43.1229999999999976
 20
38.3800000000000026
 30
0.0
 11
43.1229999999999976
 21
36.8299999999999983
 31
0.0
  0
LINE
  5
1AA
100
AcDbEntity
100
AcDbLine
  8
0
 62
256
370
-1
  6
ByLayer
 10
43.1229999999999976
 20
36.8299999999999983
 30
0.0
 11
41.5730000000000004
 21
36.8299999999999983
 31
0.0
  0
LINE
  5
1AB
100
AcDbEntity
100
AcDbLine
  8
0
 62
256
370
-1
  6
ByLayer
 10
41.7199999999999989
 20
81.7879999999999967
 30
0.0
 11
41.7199999999999989
 21
83.3379999999999939
 31
0.0
  0
LINE
  5
1AC
100
AcDbEntity
100
AcDbLine
  8
0
 62
256
370
-1
  6
ByLayer
 10
41.7199999999999989
 20
83.3379999999999939
 30
0.0
 11
43.2700000000000031
 21
83.3379999999999939
 31
0.0
  0
LINE
  5
1AD
100
AcDbEntity
100
AcDbLine
  8
0
 62
256
370
-1
  6
ByLayer
 10
43.2700000000000031
 20
83.3379999999999939
 30
0.0
 11
43.2700000000000031
 21
81.7879999999999967
 31
0.0
  0
LINE
  5
1AE
100
AcDbEntity
100
AcDbLine
  8
0
 62
256
370
-1
  6
ByLayer
 10
43.2700000000000031
 20
81.7879999999999967
 30
0.0
 11
41.7199999999999989
 21
81.7879999999999967
 31
0.0
  0
LINE
  5
1AF
100
AcDbEntity
100
AcDbLine
  8
0
 62
256
370
-1
  6
ByLayer
 10
41.8430000000000035
 20
4.6479999999999997
 30
0.0
 11
41.8430000000000035
 21
6.1980000000000004
 31
0.0
  0
LINE
  5
1B0
100
AcDbEntity
100
AcDbLine
  8
0
 62
256
370
-1
  6
ByLayer
 10
41.8430000000000035
 20
6.1980000000000004
 30
0.0
 11
43.3930000000000007
 21
6.1980000000000004
 31
0.0
  0
LINE
  5
1B1
100
AcDbEntity
100
AcDbLine
  8
0
 62
256
370
-1
  6
ByLayer
 10
43.3930000000000007
 20
6.1980000000000004
 30
0.0
 11
43.3930000000000007
 21
4.6479999999999997
 31
0.0
  0
LINE
  5
1B2
100
AcDbEntity
100
AcDbLine
  8
0
 62
256
370
-1
  6
ByLayer
 10
43.3930000000000007
 20
4.6479999999999997
 30
0.0
 11
41.8430000000000035
 21
4.6479999999999997
 31
0.0
  0
LINE
  5
1B3
100
AcDbEntity
100
AcDbLine
  8
0
 62
256
370
-1
  6
ByLayer
 10
41.9099999999999966
 20
93.980000000000004
 30
0.0
 11
41.9099999999999966
 21
95.5300000000000011
 31
0.0
  0
LINE
  5
1B4
100
AcDbEntity
100
AcDbLine
  8
0
 62
256
370
-1
  6
ByLayer
 10
41.9099999999999966
 20
95.5300000000000011
 30
0.0
 11
43.4600000000000009
 21
95.5300000000000011
 31
0.0
  0
LINE
  5
1B5
100
AcDbEntity
100
AcDbLine
  8
0
 62
256
370
-1
  6
ByLayer
 10
43.4600000000000009
 20
95.5300000000000011
 30
0.0
 11
43.4600000000000009
 21
93.980000000000004
 31
0.0
  0
LINE
  5
1B6
100
AcDbEntity
100
AcDbLine
  8
0
 62
256
370
-1
  6
ByLayer
 10
43.4600000000000009
 20
93.980000000000004
 30
0.0
 11
41.9099999999999966
 21
93.980000000000004
 31
0.0
  0
LINE
  5
1B7
100
AcDbEntity
100
AcDbLine
  8
0
 62
256
370
-1
  6
ByLayer
 10
42.6450000000000031
 20
41.2749999999999986
 30
0.0
 11
42.6450000000000031
 21
42.8250000000000028
 31
0.0
  0
LINE
  5
1B8
100
AcDbEntity
100
AcDbLine
  8
0
 62
256
370
-1
  6
ByLayer
 10
42.6450000000000031
 20
42.8250000000000028
 30
0.0
 11
44.1950000000000003
 21
42.8250000000000028
 31
0.0
  0
LINE
  5
1B9
100
AcDbEntity
100
AcDbLine
  8
0
 62
256
370
-1
  6
ByLayer
 10
44.1950000000000003
 20
42.8250000000000028
 30
0.0
 11
44.1950000000000003
 21
41.2749999999999986
 31
0.0
  0
LINE
  5
1BA
100
AcDbEntity
100
AcDbLine
  8
0
 62
256
370
-1
  6
ByLayer
 10
44.1950000000000003
 20
41.2749999999999986
 30
0.0
 11
42.6450000000000031
 21
41.2749999999999986
 31
0.0
  0
LINE
  5
1BB
100
AcDbEntity
100
AcDbLine
  8
0
 62
256
370
-1
  6
ByLayer
 10
42.6450000000000031
 20
43.8149999999999977
 30
0.0
 11
42.6450000000000031
 21
45.365000000000002
 31
0.0
  0
LINE
  5
1BC
100
AcDbEntity
100
AcDbLine
  8
0
 62
256
370
-1
  6
ByLayer
 10
42.6450000000000031
 20
45.365000000000002
 30
0.0
 11
44.1950000000000003
 21
45.365000000000002
 31
0.0
  0
LINE
  5
1BD
100
AcDbEntity
100
AcDbLine
  8
0
 62
256
370
-1
  6
ByLayer
 10
44.1950000000000003
 20
45.365000000000002
 30
0.0
 11
44.1950000000000003
 21
43.8149999999999977
 31
0.0
  0
LINE
  5
1BE
100
AcDbEntity
100
AcDbLine
  8
0
 62
256
370
-1
  6
ByLayer
 10
44.1950000000000003
 20
43.8149999999999977
 30
0.0
 11
42.6450000000000031
 21
43.8149999999999977
 31
0.0
  0
LINE
  5
1BF
100
AcDbEntity
100
AcDbLine
  8
0
 62
256
370
-1
  6
ByLayer
 10
42.8629999999999995
 20
68.8979999999999961
 30
0.0
 11
42.8629999999999995
 21
70.4479999999999933
 31
0.0
  0
LINE
  5
1C0
100
AcDbEntity
100
AcDbLine
  8
0
 62
256
370
-1
  6
ByLayer
 10
42.8629999999999995
 20
70.4479999999999933
 30
0.0
 11
44.4129999999999967
 21
70.4479999999999933
 31
0.0
  0
LINE
  5
1C1
100
AcDbEntity
100
AcDbLine
  8
0
 62
256
370
-1
  6
ByLayer
 10
44.4129999999999967
 20
70.4479999999999933
 30
0.0
 11
44.4129999999999967
 21
68.8979999999999961
 31
0.0
  0
LINE
  5
1C2
100
AcDbEntity
100
AcDbLine
  8
0
 62
256
370
-1
  6
ByLayer
 10
44.4129999999999967
 20
68.8979999999999961
 30
0.0
 11
42.8629999999999995
 21
68.8979999999999961
 31
0.0
  0
LINE
  5
1C3
100
AcDbEntity
100
AcDbLine
  8
0
 62
256
370
-1
  6
ByLayer
 10
42.8629999999999995
 20
71.4380000000000024
 30
0.0
 11
42.8629999999999995
 21
72.9879999999999995
 31
0.0
  0
LINE
  5
1C4
100
AcDbEntity
100
AcDbLine
  8
0
 62
256
370
-1
  6
ByLayer
 10
42.8629999999999995
 20
72.9879999999999995
 30
0.0
 11
44.4129999999999967
 21
72.9879999999999995
 31
0.0
  0
LINE
  5
1C5
100
AcDbEntity
100
AcDbLine
  8
0
 62
256
370
-1
  6
ByLayer
 10
44.4129999999999967
 20
72.9879999999999995
 30
0.0
 11
44.4129999999999967
 21
71.4380000000000024
 31
0.0
  0
LINE
  5
1C6
100
AcDbEntity
100
AcDbLine
  8
0
 62
256
370
-1
  6
ByLayer
 10
44.4129999999999967
 20
71.4380000000000024
 30
0.0
 11
42.8629999999999995
 21
71.4380000000000024
 31
0.0
  0
LINE
  5
1C7
100
AcDbEntity
100
AcDbLine
  8
0
 62
256
370
-1
  6
ByLayer
 10
44.259999999999998
 20
81.7879999999999967
 30
0.0
 11
44.259999999999998
 21
83.3379999999999939
 31
0.0
  0
LINE
  5
1C8
100
AcDbEntity
100
AcDbLine
  8
0
 62
256
370
-1
  6
ByLayer
 10
44.259999999999998
 20
83.3379999999999939
 30
0.0
 11
45.8100000000000023
 21
83.3379999999999939
 31
0.0
  0
LINE
  5
1C9
100
AcDbEntity
100
AcDbLine
  8
0
 62
256
370
-1
  6
ByLayer
 10
45.8100000000000023
 20
83.3379999999999939
 30
0.0
 11
45.8100000000000023
 21
81.7879999999999967
 31
0.0
  0
LINE
  5
1CA
100
AcDbEntity
100
AcDbLine
  8
0
 62
256
370
-1
  6
ByLayer
 10
45.8100000000000023
 20
81.7879999999999967
 30
0.0
 11
44.259999999999998
 21
81.7879999999999967
 31
0.0
  0
LINE
  5
1CB
100
AcDbEntity
100
AcDbLine
  8
0
 62
256
370
-1
  6
ByLayer
 10
44.3830000000000027
 20
4.6479999999999997
 30
0.0
 11
44.3830000000000027
 21
6.1980000000000004
 31
0.0
  0
LINE
  5
1CC
100
AcDbEntity
100
AcDbLine
  8
0
 62
256
370
-1
  6
ByLayer
 10
44.3830000000000027
 20
6.1980000000000004
 30
0.0
 11
45.9329999999999998
 21
6.1980000000000004
 31
0.0
  0
LINE
  5
1CD
100
AcDbEntity
100
AcDbLine
  8
0
 62
256
370
-1
  6
ByLayer
 10
45.9329999999999998
 20
6.1980000000000004
 30
0.0
 11
45.9329999999999998
 21
4.6479999999999997
 31
0.0
  0
LINE
  5
1CE
100
AcDbEntity
100
AcDbLine
  8
0
 62
256
370
-1
  6
ByLayer
 10
45.9329999999999998
 20
4.6479999999999997
 30
0.0
 11
44.3830000000000027
 21
4.6479999999999997
 31
0.0
  0
LINE
  5
1CF
100
AcDbEntity
100
AcDbLine
  8
0
 62
256
370
-1
  6
ByLayer
 10
45.4029999999999987
 20
68.8979999999999961
 30
0.0
 11
45.4029999999999987
 21
70.4479999999999933
 31
0.0
  0
LINE
  5
1D0
100
AcDbEntity
100
AcDbLine
  8
0
 62
256
370
-1
  6
ByLayer
 10
45.4029999999999987
 20
70.4479999999999933
 30
0.0
 11
46.953000000000003
 21
70.4479999999999933
 31
0.0
  0
LINE
  5
1D1
100
AcDbEntity
100
AcDbLine
  8
0
 62
256
370
-1
  6
ByLayer
 10
46.953000000000003
 20
70.4479999999999933
 30
0.0
 11
46.953000000000003
 21
68.8979999999999961
 31
0.0
  0
LINE
  5
1D2
100
AcDbEntity
100
AcDbLine
  8
0
 62
256
370
-1
  6
ByLayer
 10
46.953000000000003
 20
68.8979999999999961
 30
0.0
 11
45.4029999999999987
 21
68.8979999999999961
 31
0.0
  0
LINE
  5
1D3
100
AcDbEntity
100
AcDbLine
  8
0
 62
256
370
-1
  6
ByLayer
 10
45.4029999999999987
 20
71.4380000000000024
 30
0.0
 11
45.4029999999999987
 21
72.9879999999999995
 31
0.0
  0
LINE
  5
1D4
100
AcDbEntity
100
AcDbLine
  8
0
 62
256
370
-1
  6
ByLayer
 10
45.4029999999999987
 20
72.9879999999999995
 30
0.0
 11
46.953000000000003
 21
72.9879999999999995
 31
0.0
  0
LINE
  5
1D5
100
AcDbEntity
100
AcDbLine
  8
0
 62
256
370
-1
  6
ByLayer
 10
46.953000000000003
 20
72.9879999999999995
 30
0.0
 11
46.953000000000003
 21
71.4380000000000024
 31
0.0
  0
LINE
  5
1D6
100
AcDbEntity
100
AcDbLine
  8
0
 62
256
370
-1
  6
ByLayer
 10
46.953000000000003
 20
71.4380000000000024
 30
0.0
 11
45.4029999999999987
 21
71.4380000000000024
 31
0.0
  0
LINE
  5
1D7
100
AcDbEntity
100
AcDbLine
  8
0
 62
256
370
-1
  6
ByLayer
 10
46.921999999999997
 20
4.6479999999999997
 30
0.0
 11
46.921999999999997
 21
6.1980000000000004
 31
0.0
  0
LINE
  5
1D8
100
AcDbEntity
100
AcDbLine
  8
0
 62
256
370
-1
  6
ByLayer
 10
46.921999999999997
 20
6.1980000000000004
 30
0.0
 11
48.4720000000000013
 21
6.1980000000000004
 31
0.0
  0
LINE
  5
1D9
100
AcDbEntity
100
AcDbLine
  8
0
 62
256
370
-1
  6
ByLayer
 10
48.4720000000000013
 20
6.1980000000000004
 30
0.0
 11
48.4720000000000013
 21
4.6479999999999997
 31
0.0
  0
LINE
  5
1DA
100
AcDbEntity
100
AcDbLine
  8
0
 62
256
370
-1
  6
ByLayer
 10
48.4720000000000013
 20
4.6479999999999997
 30
0.0
 11
46.921999999999997
 21
4.6479999999999997
 31
0.0
  0
LINE
  5
1DB
100
AcDbEntity
100
AcDbLine
  8
0
 62
256
370
-1
  6
ByLayer
 10
46.990000000000002
 20
93.980000000000004
 30
0.0
 11
46.990000000000002
 21
95.5300000000000011
 31
0.0
  0
LINE
  5
1DC
100
AcDbEntity
100
AcDbLine
  8
0
 62
256
370
-1
  6
ByLayer
 10
46.990000000000002
 20
95.5300000000000011
 30
0.0
 11
48.5399999999999991
 21
95.5300000000000011
 31
0.0
  0
LINE
  5
1DD
100
AcDbEntity
100
AcDbLine
  8
0
 62
256
370
-1
  6
ByLayer
 10
48.5399999999999991
 20
95.5300000000000011
 30
0.0
 11
48.5399999999999991
 21
93.980000000000004
 31
0.0
  0
LINE
  5
1DE
100
AcDbEntity
100
AcDbLine
  8
0
 62
256
370
-1
  6
ByLayer
 10
48.5399999999999991
 20
93.980000000000004
 30
0.0
 11
46.990000000000002
 21
93.980000000000004
 31
0.0
  0
LINE
  5
1DF
100
AcDbEntity
100
AcDbLine
  8
0
 62
256
370
-1
  6
ByLayer
 10
47.9429999999999978
 20
42.5450000000000017
 30
0.0
 11
47.9429999999999978
 21
44.0949999999999989
 31
0.0
  0
LINE
  5
1E0
100
AcDbEntity
100
AcDbLine
  8
0
 62
256
370
-1
  6
ByLayer
 10
47.9429999999999978
 20
44.0949999999999989
 30
0.0
 11
49.4930000000000021
 21
44.0949999999999989
 31
0.0
  0
LINE
  5
1E1
100
AcDbEntity
100
AcDbLine
  8
0
 62
256
370
-1
  6
ByLayer
 10
49.4930000000000021
 20
44.0949999999999989
 30
0.0
 11
49.4930000000000021
 21
42.5450000000000017
 31
0.0
  0
LINE
  5
1E2
100
AcDbEntity
100
AcDbLine
  8
0
 62
256
370
-1
  6
ByLayer
 10
49.4930000000000021
 20
42.5450000000000017
 30
0.0
 11
47.9429999999999978
 21
42.5450000000000017
 31
0.0
  0
LINE
  5
1E3
100
AcDbEntity
100
AcDbLine
  8
0
 62
256
370
-1
  6
ByLayer
 10
47.9429999999999978
 20
45.0850000000000009
 30
0.0
 11
47.9429999999999978
 21
46.634999999999998
 31
0.0
  0
LINE
  5
1E4
100
AcDbEntity
100
AcDbLine
  8
0
 62
256
370
-1
  6
ByLayer
 10
47.9429999999999978
 20
46.634999999999998
 30
0.0
 11
49.4930000000000021
 21
46.634999999999998
 31
0.0
  0
LINE
  5
1E5
100
AcDbEntity
100
AcDbLine
  8
0
 62
256
370
-1
  6
ByLayer
 10
49.4930000000000021
 20
46.634999999999998
 30
0.0
 11
49.4930000000000021
 21
45.0850000000000009
 31
0.0
  0
LINE
  5
1E6
100
AcDbEntity
100
AcDbLine
  8
0
 62
256
370
-1
  6
ByLayer
 10
49.4930000000000021
 20
45.0850000000000009
 30
0.0
 11
47.9429999999999978
 21
45.0850000000000009
 31
0.0
  0
LINE
  5
1E7
100
AcDbEntity
100
AcDbLine
  8
0
 62
256
370
-1
  6
ByLayer
 10
49.463000000000001
 20
4.6479999999999997
 30
0.0
 11
49.463000000000001
 21
6.1980000000000004
 31
0.0
  0
LINE
  5
1E8
100
AcDbEntity
100
AcDbLine
  8
0
 62
256
370
-1
  6
ByLayer
 10
49.463000000000001
 20
6.1980000000000004
 30
0.0
 11
51.0129999999999981
 21
6.1980000000000004
 31
0.0
  0
LINE
  5
1E9
100
AcDbEntity
100
AcDbLine
  8
0
 62
256
370
-1
  6
ByLayer
 10
51.0129999999999981
 20
6.1980000000000004
 30
0.0
 11
51.0129999999999981
 21
4.6479999999999997
 31
0.0
  0
LINE
  5
1EA
100
AcDbEntity
100
AcDbLine
  8
0
 62
256
370
-1
  6
ByLayer
 10
51.0129999999999981
 20
4.6479999999999997
 30
0.0
 11
49.463000000000001
 21
4.6479999999999997
 31
0.0
  0
LINE
  5
1EB
100
AcDbEntity
100
AcDbLine
  8
0
 62
256
370
-1
  6
ByLayer
 10
50.482999999999997
 20
42.5450000000000017
 30
0.0
 11
50.482999999999997
 21
44.0949999999999989
 31
0.0
  0
LINE
  5
1EC
100
AcDbEntity
100
AcDbLine
  8
0
 62
256
370
-1
  6
ByLayer
 10
50.482999999999997
 20
44.0949999999999989
 30
0.0
 11
52.0330000000000013
 21
44.0949999999999989
 31
0.0
  0
LINE
  5
1ED
100
AcDbEntity
100
AcDbLine
  8
0
 62
256
370
-1
  6
ByLayer
 10
52.0330000000000013
 20
44.0949999999999989
 30
0.0
 11
52.0330000000000013
 21
42.5450000000000017
 31
0.0
  0
LINE
  5
1EE
100
AcDbEntity
100
AcDbLine
  8
0
 62
256
370
-1
  6
ByLayer
 10
52.0330000000000013
 20
42.5450000000000017
 30
0.0
 11
50.482999999999997
 21
42.5450000000000017
 31
0.0
  0
LINE
  5
1EF
100
AcDbEntity
100
AcDbLine
  8
0
 62
256
370
-1
  6
ByLayer
 10
50.482999999999997
 20
45.0850000000000009
 30
0.0
 11
50.482999999999997
 21
46.634999999999998
 31
0.0
  0
LINE
  5
1F0
100
AcDbEntity
100
AcDbLine
  8
0
 62
256
370
-1
  6
ByLayer
 10
50.482999999999997
 20
46.634999999999998
 30
0.0
 11
52.0330000000000013
 21
46.634999999999998
 31
0.0
  0
LINE
  5
1F1
100
AcDbEntity
100
AcDbLine
  8
0
 62
256
370
-1
  6
ByLayer
 10
52.0330000000000013
 20
46.634999999999998
 30
0.0
 11
52.0330000000000013
 21
45.0850000000000009
 31
0.0
  0
LINE
  5
1F2
100
AcDbEntity
100
AcDbLine
  8
0
 62
256
370
-1
  6
ByLayer
 10
52.0330000000000013
 20
45.0850000000000009
 30
0.0
 11
50.482999999999997
 21
45.0850000000000009
 31
0.0
  0
LINE
  5
1F3
100
AcDbEntity
100
AcDbLine
  8
0
 62
256
370
-1
  6
ByLayer
 10
50.7999999999999972
 20
71.7549999999999955
 30
0.0
 11
50.7999999999999972
 21
73.3050000000000068
 31
0.0
  0
LINE
  5
1F4
100
AcDbEntity
100
AcDbLine
  8
0
 62
256
370
-1
  6
ByLayer
 10
50.7999999999999972
 20
73.3050000000000068
 30
0.0
 11
52.3500000000000014
 21
73.3050000000000068
 31
0.0
  0
LINE
  5
1F5
100
AcDbEntity
100
AcDbLine
  8
0
 62
256
370
-1
  6
ByLayer
 10
52.3500000000000014
 20
73.3050000000000068
 30
0.0
 11
52.3500000000000014
 21
71.7549999999999955
 31
0.0
  0
LINE
  5
1F6
100
AcDbEntity
100
AcDbLine
  8
0
 62
256
370
-1
  6
ByLayer
 10
52.3500000000000014
 20
71.7549999999999955
 30
0.0
 11
50.7999999999999972
 21
71.7549999999999955
 31
0.0
  0
LINE
  5
1F7
100
AcDbEntity
100
AcDbLine
  8
0
 62
256
370
-1
  6
ByLayer
 10
52.0700000000000003
 20
93.980000000000004
 30
0.0
 11
52.0700000000000003
 21
95.5300000000000011
 31
0.0
  0
LINE
  5
1F8
100
AcDbEntity
100
AcDbLine
  8
0
 62
256
370
-1
  6
ByLayer
 10
52.0700000000000003
 20
95.5300000000000011
 30
0.0
 11
53.6199999999999974
 21
95.5300000000000011
 31
0.0
  0
LINE
  5
1F9
100
AcDbEntity
100
AcDbLine
  8
0
 62
256
370
-1
  6
ByLayer
 10
53.6199999999999974
 20
95.5300000000000011
 30
0.0
 11
53.6199999999999974
 21
93.980000000000004
 31
0.0
  0
LINE
  5
1FA
100
AcDbEntity
100
AcDbLine
  8
0
 62
256
370
-1
  6
ByLayer
 10
53.6199999999999974
 20
93.980000000000004
 30
0.0
 11
52.0700000000000003
 21
93.980000000000004
 31
0.0
  0
LINE
  5
1FB
100
AcDbEntity
100
AcDbLine
  8
0
 62
256
370
-1
  6
ByLayer
 10
53.0230000000000032
 20
42.5450000000000017
 30
0.0
 11
53.0230000000000032
 21
44.0949999999999989
 31
0.0
  0
LINE
  5
1FC
100
AcDbEntity
100
AcDbLine
  8
0
 62
256
370
-1
  6
ByLayer
 10
53.0230000000000032
 20
44.0949999999999989
 30
0.0
 11
54.5730000000000004
 21
44.0949999999999989
 31
0.0
  0
LINE
  5
1FD
100
AcDbEntity
100
AcDbLine
  8
0
 62
256
370
-1
  6
ByLayer
 10
54.5730000000000004
 20
44.0949999999999989
 30
0.0
 11
54.5730000000000004
 21
42.5450000000000017
 31
0.0
  0
LINE
  5
1FE
100
AcDbEntity
100
AcDbLine
  8
0
 62
256
370
-1
  6
ByLayer
 10
54.5730000000000004
 20
42.5450000000000017
 30
0.0
 11
53.0230000000000032
 21
42.5450000000000017
 31
0.0
  0
LINE
  5
1FF
100
AcDbEntity
100
AcDbLine
  8
0
 62
256
370
-1
  6
ByLayer
 10
53.0230000000000032
 20
45.0850000000000009
 30
0.0
 11
53.0230000000000032
 21
46.634999999999998
 31
0.0
  0
LINE
  5
200
100
AcDbEntity
100
AcDbLine
  8
0
 62
256
370
-1
  6
ByLayer
 10
53.0230000000000032
 20
46.634999999999998
 30
0.0
 11
54.5730000000000004
 21
46.634999999999998
 31
0.0
  0
LINE
  5
201
100
AcDbEntity
100
AcDbLine
  8
0
 62
256
370
-1
  6
ByLayer
 10
54.5730000000000004
 20
46.634999999999998
 30
0.0
 11
54.5730000000000004
 21
45.0850000000000009
 31
0.0
  0
LINE
  5
202
100
AcDbEntity
100
AcDbLine
  8
0
 62
256
370
-1
  6
ByLayer
 10
54.5730000000000004
 20
45.0850000000000009
 30
0.0
 11
53.0230000000000032
 21
45.0850000000000009
 31
0.0
  0
LINE
  5
203
100
AcDbEntity
100
AcDbLine
  8
0
 62
256
370
-1
  6
ByLayer
 10
53.3400000000000034
 20
71.7549999999999955
 30
0.0
 11
53.3400000000000034
 21
73.3050000000000068
 31
0.0
  0
LINE
  5
204
100
AcDbEntity
100
AcDbLine
  8
0
 62
256
370
-1
  6
ByLayer
 10
53.3400000000000034
 20
73.3050000000000068
 30
0.0
 11
54.8900000000000006
 21
73.3050000000000068
 31
0.0
  0
LINE
  5
205
100
AcDbEntity
100
AcDbLine
  8
0
 62
256
370
-1
  6
ByLayer
 10
54.8900000000000006
 20
73.3050000000000068
 30
0.0
 11
54.8900000000000006
 21
71.7549999999999955
 31
0.0
  0
LINE
  5
206
100
AcDbEntity
100
AcDbLine
  8
0
 62
256
370
-1
  6
ByLayer
 10
54.8900000000000006
 20
71.7549999999999955
 30
0.0
 11
53.3400000000000034
 21
71.7549999999999955
 31
0.0
  0
LINE
  5
207
100
AcDbEntity
100
AcDbLine
  8
0
 62
256
370
-1
  6
ByLayer
 10
54.5429999999999993
 20
4.6479999999999997
 30
0.0
 11
54.5429999999999993
 21
6.1980000000000004
 31
0.0
  0
LINE
  5
208
100
AcDbEntity
100
AcDbLine
  8
0
 62
256
370
-1
  6
ByLayer
 10
54.5429999999999993
 20
6.1980000000000004
 30
0.0
 11
56.0930000000000035
 21
6.1980000000000004
 31
0.0
  0
LINE
  5
209
100
AcDbEntity
100
AcDbLine
  8
0
 62
256
370
-1
  6
ByLayer
 10
56.0930000000000035
 20
6.1980000000000004
 30
0.0
 11
56.0930000000000035
 21
4.6479999999999997
 31
0.0
  0
LINE
  5
20A
100
AcDbEntity
100
AcDbLine
  8
0
 62
256
370
-1
  6
ByLayer
 10
56.0930000000000035
 20
4.6479999999999997
 30
0.0
 11
54.5429999999999993
 21
4.6479999999999997
 31
0.0
  0
LINE
  5
20B
100
AcDbEntity
100
AcDbLine
  8
0
 62
256
370
-1
  6
ByLayer
 10
55.5619999999999976
 20
42.5450000000000017
 30
0.0
 11
55.5619999999999976
 21
44.0949999999999989
 31
0.0
  0
LINE
  5
20C
100
AcDbEntity
100
AcDbLine
  8
0
 62
256
370
-1
  6
ByLayer
 10
55.5619999999999976
 20
44.0949999999999989
 30
0.0
 11
57.1120000000000019
 21
44.0949999999999989
 31
0.0
  0
LINE
  5
20D
100
AcDbEntity
100
AcDbLine
  8
0
 62
256
370
-1
  6
ByLayer
 10
57.1120000000000019
 20
44.0949999999999989
 30
0.0
 11
57.1120000000000019
 21
42.5450000000000017
 31
0.0
  0
LINE
  5
20E
100
AcDbEntity
100
AcDbLine
  8
0
 62
256
370
-1
  6
ByLayer
 10
57.1120000000000019
 20
42.5450000000000017
 30
0.0
 11
55.5619999999999976
 21
42.5450000000000017
 31
0.0
  0
LINE
  5
20F
100
AcDbEntity
100
AcDbLine
  8
0
 62
256
370
-1
  6
ByLayer
 10
55.5619999999999976
 20
45.0850000000000009
 30
0.0
 11
55.5619999999999976
 21
46.634999999999998
 31
0.0
  0
LINE
  5
210
100
AcDbEntity
100
AcDbLine
  8
0
 62
256
370
-1
  6
ByLayer
 10
55.5619999999999976
 20
46.634999999999998
 30
0.0
 11
57.1120000000000019
 21
46.634999999999998
 31
0.0
  0
LINE
  5
211
100
AcDbEntity
100
AcDbLine
  8
0
 62
256
370
-1
  6
ByLayer
 10
57.1120000000000019
 20
46.634999999999998
 30
0.0
 11
57.1120000000000019
 21
45.0850000000000009
 31
0.0
  0
LINE
  5
212
100
AcDbEntity
100
AcDbLine
  8
0
 62
256
370
-1
  6
ByLayer
 10
57.1120000000000019
 20
45.0850000000000009
 30
0.0
 11
55.5619999999999976
 21
45.0850000000000009
 31
0.0
  0
LINE
  5
213
100
AcDbEntity
100
AcDbLine
  8
0
 62
256
370
-1
  6
ByLayer
 10
55.8800000000000026
 20
71.7549999999999955
 30
0.0
 11
55.8800000000000026
 21
73.3050000000000068
 31
0.0
  0
LINE
  5
214
100
AcDbEntity
100
AcDbLine
  8
0
 62
256
370
-1
  6
ByLayer
 10
55.8800000000000026
 20
73.3050000000000068
 30
0.0
 11
57.4299999999999997
 21
73.3050000000000068
 31
0.0
  0
LINE
  5
215
100
AcDbEntity
100
AcDbLine
  8
0
 62
256
370
-1
  6
ByLayer
 10
57.4299999999999997
 20
73.3050000000000068
 30
0.0
 11
57.4299999999999997
 21
71.7549999999999955
 31
0.0
  0
LINE
  5
216
100
AcDbEntity
100
AcDbLine
  8
0
 62
256
370
-1
  6
ByLayer
 10
57.4299999999999997
 20
71.7549999999999955
 30
0.0
 11
55.8800000000000026
 21
71.7549999999999955
 31
0.0
  0
LINE
  5
217
100
AcDbEntity
100
AcDbLine
  8
0
 62
256
370
-1
  6
ByLayer
 10
57.0829999999999984
 20
4.6479999999999997
 30
0.0
 11
57.0829999999999984
 21
6.1980000000000004
 31
0.0
  0
LINE
  5
218
100
AcDbEntity
100
AcDbLine
  8
0
 62
256
370
-1
  6
ByLayer
 10
57.0829999999999984
 20
6.1980000000000004
 30
0.0
 11
58.6330000000000027
 21
6.1980000000000004
 31
0.0
  0
LINE
  5
219
100
AcDbEntity
100
AcDbLine
  8
0
 62
256
370
-1
  6
ByLayer
 10
58.6330000000000027
 20
6.1980000000000004
 30
0.0
 11
58.6330000000000027
 21
4.6479999999999997
 31
0.0
  0
LINE
  5
21A
100
AcDbEntity
100
AcDbLine
  8
0
 62
256
370
-1
  6
ByLayer
 10
58.6330000000000027
 20
4.6479999999999997
 30
0.0
 11
57.0829999999999984
 21
4.6479999999999997
 31
0.0
  0
LINE
  5
21B
100
AcDbEntity
100
AcDbLine
  8
0
 62
256
370
-1
  6
ByLayer
 10
57.1499999999999986
 20
93.980000000000004
 30
0.0
 11
57.1499999999999986
 21
95.5300000000000011
 31
0.0
  0
LINE
  5
21C
100
AcDbEntity
100
AcDbLine
  8
0
 62
256
370
-1
  6
ByLayer
 10
57.1499999999999986
 20
95.5300000000000011
 30
0.0
 11
58.7000000000000028
 21
95.5300000000000011
 31
0.0
  0
LINE
  5
21D
100
AcDbEntity
100
AcDbLine
  8
0
 62
256
370
-1
  6
ByLayer
 10
58.7000000000000028
 20
95.5300000000000011
 30
0.0
 11
58.7000000000000028
 21
93.980000000000004
 31
0.0
  0
LINE
  5
21E
100
AcDbEntity
100
AcDbLine
  8
0
 62
256
370
-1
  6
ByLayer
 10
58.7000000000000028
 20
93.980000000000004
 30
0.0
 11
57.1499999999999986
 21
93.980000000000004
 31
0.0
  0
LINE
  5
21F
100
AcDbEntity
100
AcDbLine
  8
0
 62
256
370
-1
  6
ByLayer
 10
58.4200000000000017
 20
71.7549999999999955
 30
0.0
 11
58.4200000000000017
 21
73.3050000000000068
 31
0.0
  0
LINE
  5
220
100
AcDbEntity
100
AcDbLine
  8
0
 62
256
370
-1
  6
ByLayer
 10
58.4200000000000017
 20
73.3050000000000068
 30
0.0
 11
59.9699999999999989
 21
73.3050000000000068
 31
0.0
  0
LINE
  5
221
100
AcDbEntity
100
AcDbLine
  8
0
 62
256
370
-1
  6
ByLayer
 10
59.9699999999999989
 20
73.3050000000000068
 30
0.0
 11
59.9699999999999989
 21
71.7549999999999955
 31
0.0
  0
LINE
  5
222
100
AcDbEntity
100
AcDbLine
  8
0
 62
256
370
-1
  6
ByLayer
 10
59.9699999999999989
 20
71.7549999999999955
 30
0.0
 11
58.4200000000000017
 21
71.7549999999999955
 31
0.0
  0
LINE
  5
223
100
AcDbEntity
100
AcDbLine
  8
0
 62
256
370
-1
  6
ByLayer
 10
58.546999999999997
 20
34.9410000000000025
 30
0.0
 11
58.546999999999997
 21
36.4909999999999997
 31
0.0
  0
LINE
  5
224
100
AcDbEntity
100
AcDbLine
  8
0
 62
256
370
-1
  6
ByLayer
 10
58.546999999999997
 20
36.4909999999999997
 30
0.0
 11
60.0970000000000013
 21
36.4909999999999997
 31
0.0
  0
LINE
  5
225
100
AcDbEntity
100
AcDbLine
  8
0
 62
256
370
-1
  6
ByLayer
 10
60.0970000000000013
 20
36.4909999999999997
 30
0.0
 11
60.0970000000000013
 21
34.9410000000000025
 31
0.0
  0
LINE
  5
226
100
AcDbEntity
100
AcDbLine
  8
0
 62
256
370
-1
  6
ByLayer
 10
60.0970000000000013
 20
34.9410000000000025
 30
0.0
 11
58.546999999999997
 21
34.9410000000000025
 31
0.0
  0
LINE
  5
227
100
AcDbEntity
100
AcDbLine
  8
0
 62
256
370
-1
  6
ByLayer
 10
58.546999999999997
 20
37.4799999999999969
 30
0.0
 11
58.546999999999997
 21
39.0300000000000011
 31
0.0
  0
LINE
  5
228
100
AcDbEntity
100
AcDbLine
  8
0
 62
256
370
-1
  6
ByLayer
 10
58.546999999999997
 20
39.0300000000000011
 30
0.0
 11
60.0970000000000013
 21
39.0300000000000011
 31
0.0
  0
LINE
  5
229
100
AcDbEntity
100
AcDbLine
  8
0
 62
256
370
-1
  6
ByLayer
 10
60.0970000000000013
 20
39.0300000000000011
 30
0.0
 11
60.0970000000000013
 21
37.4799999999999969
 31
0.0
  0
LINE
  5
22A
100
AcDbEntity
100
AcDbLine
  8
0
 62
256
370
-1
  6
ByLayer
 10
60.0970000000000013
 20
37.4799999999999969
 30
0.0
 11
58.546999999999997
 21
37.4799999999999969
 31
0.0
  0
LINE
  5
22B
100
AcDbEntity
100
AcDbLine
  8
0
 62
256
370
-1
  6
ByLayer
 10
58.546999999999997
 20
40.0200000000000031
 30
0.0
 11
58.546999999999997
 21
41.5700000000000003
 31
0.0
  0
LINE
  5
22C
100
AcDbEntity
100
AcDbLine
  8
0
 62
256
370
-1
  6
ByLayer
 10
58.546999999999997
 20
41.5700000000000003
 30
0.0
 11
60.0970000000000013
 21
41.5700000000000003
 31
0.0
  0
LINE
  5
22D
100
AcDbEntity
100
AcDbLine
  8
0
 62
256
370
-1
  6
ByLayer
 10
60.0970000000000013
 20
41.5700000000000003
 30
0.0
 11
60.0970000000000013
 21
40.0200000000000031
 31
0.0
  0
LINE
  5
22E
100
AcDbEntity
100
AcDbLine
  8
0
 62
256
370
-1
  6
ByLayer
 10
60.0970000000000013
 20
40.0200000000000031
 30
0.0
 11
58.546999999999997
 21
40.0200000000000031
 31
0.0
  0
LINE
  5
22F
100
AcDbEntity
100
AcDbLine
  8
0
 62
256
370
-1
  6
ByLayer
 10
59.6229999999999976
 20
4.6479999999999997
 30
0.0
 11
59.6229999999999976
 21
6.1980000000000004
 31
0.0
  0
LINE
  5
230
100
AcDbEntity
100
AcDbLine
  8
0
 62
256
370
-1
  6
ByLayer
 10
59.6229999999999976
 20
6.1980000000000004
 30
0.0
 11
61.1730000000000018
 21
6.1980000000000004
 31
0.0
  0
LINE
  5
231
100
AcDbEntity
100
AcDbLine
  8
0
 62
256
370
-1
  6
ByLayer
 10
61.1730000000000018
 20
6.1980000000000004
 30
0.0
 11
61.1730000000000018
 21
4.6479999999999997
 31
0.0
  0
LINE
  5
232
100
AcDbEntity
100
AcDbLine
  8
0
 62
256
370
-1
  6
ByLayer
 10
61.1730000000000018
 20
4.6479999999999997
 30
0.0
 11
59.6229999999999976
 21
4.6479999999999997
 31
0.0
  0
LINE
  5
233
100
AcDbEntity
100
AcDbLine
  8
0
 62
256
370
-1
  6
ByLayer
 10
60.9600000000000009
 20
71.7549999999999955
 30
0.0
 11
60.9600000000000009
 21
73.3050000000000068
 31
0.0
  0
LINE
  5
234
100
AcDbEntity
100
AcDbLine
  8
0
 62
256
370
-1
  6
ByLayer
 10
60.9600000000000009
 20
73.3050000000000068
 30
0.0
 11
62.509999999999998
 21
73.3050000000000068
 31
0.0
  0
LINE
  5
235
100
AcDbEntity
100
AcDbLine
  8
0
 62
256
370
-1
  6
ByLayer
 10
62.509999999999998
 20
73.3050000000000068
 30
0.0
 11
62.509999999999998
 21
71.7549999999999955
 31
0.0
  0
LINE
  5
236
100
AcDbEntity
100
AcDbLine
  8
0
 62
256
370
-1
  6
ByLayer
 10
62.509999999999998
 20
71.7549999999999955
 30
0.0
 11
60.9600000000000009
 21
71.7549999999999955
 31
0.0
  0
LINE
  5
237
100
AcDbEntity
100
AcDbLine
  8
0
 62
256
370
-1
  6
ByLayer
 10
61.0870000000000033
 20
34.9410000000000025
 30
0.0
 11
61.0870000000000033
 21
36.4909999999999997
 31
0.0
  0
LINE
  5
238
100
AcDbEntity
100
AcDbLine
  8
0
 62
256
370
-1
  6
ByLayer
 10
61.0870000000000033
 20
36.4909999999999997
 30
0.0
 11
62.6370000000000005
 21
36.4909999999999997
 31
0.0
  0
LINE
  5
239
100
AcDbEntity
100
AcDbLine
  8
0
 62
256
370
-1
  6
ByLayer
 10
62.6370000000000005
 20
36.4909999999999997
 30
0.0
 11
62.6370000000000005
 21
34.9410000000000025
 31
0.0
  0
LINE
  5
23A
100
AcDbEntity
100
AcDbLine
  8
0
 62
256
370
-1
  6
ByLayer
 10
62.6370000000000005
 20
34.9410000000000025
 30
0.0
 11
61.0870000000000033
 21
34.9410000000000025
 31
0.0
  0
LINE
  5
23B
100
AcDbEntity
100
AcDbLine
  8
0
 62
256
370
-1
  6
ByLayer
 10
61.0870000000000033
 20
37.4799999999999969
 30
0.0
 11
61.0870000000000033
 21
39.0300000000000011
 31
0.0
  0
LINE
  5
23C
100
AcDbEntity
100
AcDbLine
  8
0
 62
256
370
-1
  6
ByLayer
 10
61.0870000000000033
 20
39.0300000000000011
 30
0.0
 11
62.6370000000000005
 21
39.0300000000000011
 31
0.0
  0
LINE
  5
23D
100
AcDbEntity
100
AcDbLine
  8
0
 62
256
370
-1
  6
ByLayer
 10
62.6370000000000005
 20
39.0300000000000011
 30
0.0
 11
62.6370000000000005
 21
37.4799999999999969
 31
0.0
  0
LINE
  5
23E
100
AcDbEntity
100
AcDbLine
  8
0
 62
256
370
-1
  6
ByLayer
 10
62.6370000000000005
 20
37.4799999999999969
 30
0.0
 11
61.0870000000000033
 21
37.4799999999999969
 31
0.0
  0
LINE
  5
23F
100
AcDbEntity
100
AcDbLine
  8
0
 62
256
370
-1
  6
ByLayer
 10
61.0870000000000033
 20
40.0200000000000031
 30
0.0
 11
61.0870000000000033
 21
41.5700000000000003
 31
0.0
  0
LINE
  5
240
100
AcDbEntity
100
AcDbLine
  8
0
 62
256
370
-1
  6
ByLayer
 10
61.0870000000000033
 20
41.5700000000000003
 30
0.0
 11
62.6370000000000005
 21
41.5700000000000003
 31
0.0
  0
LINE
  5
241
100
AcDbEntity
100
AcDbLine
  8
0
 62
256
370
-1
  6
ByLayer
 10
62.6370000000000005
 20
41.5700000000000003
 30
0.0
 11
62.6370000000000005
 21
40.0200000000000031
 31
0.0
  0
LINE
  5
242
100
AcDbEntity
100
AcDbLine
  8
0
 62
256
370
-1
  6
ByLayer
 10
62.6370000000000005
 20
40.0200000000000031
 30
0.0
 11
61.0870000000000033
 21
40.0200000000000031
 31
0.0
  0
LINE
  5
243
100
AcDbEntity
100
AcDbLine
  8
0
 62
256
370
-1
  6
ByLayer
 10
61.5949999999999989
 20
86.3599999999999994
 30
0.0
 11
61.5949999999999989
 21
87.9099999999999966
 31
0.0
  0
LINE
  5
244
100
AcDbEntity
100
AcDbLine
  8
0
 62
256
370
-1
  6
ByLayer
 10
61.5949999999999989
 20
87.9099999999999966
 30
0.0
 11
63.1450000000000031
 21
87.9099999999999966
 31
0.0
  0
LINE
  5
245
100
AcDbEntity
100
AcDbLine
  8
0
 62
256
370
-1
  6
ByLayer
 10
63.1450000000000031
 20
87.9099999999999966
 30
0.0
 11
63.1450000000000031
 21
86.3599999999999994
 31
0.0
  0
LINE
  5
246
100
AcDbEntity
100
AcDbLine
  8
0
 62
256
370
-1
  6
ByLayer
 10
63.1450000000000031
 20
86.3599999999999994
 30
0.0
 11
61.5949999999999989
 21
86.3599999999999994
 31
0.0
  0
LINE
  5
247
100
AcDbEntity
100
AcDbLine
  8
0
 62
256
370
-1
  6
ByLayer
 10
62.1629999999999967
 20
4.6479999999999997
 30
0.0
 11
62.1629999999999967
 21
6.1980000000000004
 31
0.0
  0
LINE
  5
248
100
AcDbEntity
100
AcDbLine
  8
0
 62
256
370
-1
  6
ByLayer
 10
62.1629999999999967
 20
6.1980000000000004
 30
0.0
 11
63.713000000000001
 21
6.1980000000000004
 31
0.0
  0
LINE
  5
249
100
AcDbEntity
100
AcDbLine
  8
0
 62
256
370
-1
  6
ByLayer
 10
63.713000000000001
 20
6.1980000000000004
 30
0.0
 11
63.713000000000001
 21
4.6479999999999997
 31
0.0
  0
LINE
  5
24A
100
AcDbEntity
100
AcDbLine
  8
0
 62
256
370
-1
  6
ByLayer
 10
63.713000000000001
 20
4.6479999999999997
 30
0.0
 11
62.1629999999999967
 21
4.6479999999999997
 31
0.0
  0
LINE
  5
24B
100
AcDbEntity
100
AcDbLine
  8
0
 62
256
370
-1
  6
ByLayer
 10
63.5
 20
71.7549999999999955
 30
0.0
 11
63.5
 21
73.3050000000000068
 31
0.0
  0
LINE
  5
24C
100
AcDbEntity
100
AcDbLine
  8
0
 62
256
370
-1
  6
ByLayer
 10
63.5
 20
73.3050000000000068
 30
0.0
 11
65.0499999999999972
 21
73.3050000000000068
 31
0.0
  0
LINE
  5
24D
100
AcDbEntity
100
AcDbLine
  8
0
 62
256
370
-1
  6
ByLayer
 10
65.0499999999999972
 20
73.3050000000000068
 30
0.0
 11
65.0499999999999972
 21
71.7549999999999955
 31
0.0
  0
LINE
  5
24E
100
AcDbEntity
100
AcDbLine
  8
0
 62
256
370
-1
  6
ByLayer
 10
65.0499999999999972
 20
71.7549999999999955
 30
0.0
 11
63.5
 21
71.7549999999999955
 31
0.0
  0
LINE
  5
24F
100
AcDbEntity
100
AcDbLine
  8
0
 62
256
370
-1
  6
ByLayer
 10
63.6270000000000024
 20
34.9410000000000025
 30
0.0
 11
63.6270000000000024
 21
36.4909999999999997
 31
0.0
  0
LINE
  5
250
100
AcDbEntity
100
AcDbLine
  8
0
 62
256
370
-1
  6
ByLayer
 10
63.6270000000000024
 20
36.4909999999999997
 30
0.0
 11
65.1770000000000067
 21
36.4909999999999997
 31
0.0
  0
LINE
  5
251
100
AcDbEntity
100
AcDbLine
  8
0
 62
256
370
-1
  6
ByLayer
 10
65.1770000000000067
 20
36.4909999999999997
 30
0.0
 11
65.1770000000000067
 21
34.9410000000000025
 31
0.0
  0
LINE
  5
252
100
AcDbEntity
100
AcDbLine
  8
0
 62
256
370
-1
  6
ByLayer
 10
65.1770000000000067
 20
34.9410000000000025
 30
0.0
 11
63.6270000000000024
 21
34.9410000000000025
 31
0.0
  0
LINE
  5
253
100
AcDbEntity
100
AcDbLine
  8
0
 62
256
370
-1
  6
ByLayer
 10
63.6270000000000024
 20
37.4799999999999969
 30
0.0
 11
63.6270000000000024
 21
39.0300000000000011
 31
0.0
  0
LINE
  5
254
100
AcDbEntity
100
AcDbLine
  8
0
 62
256
370
-1
  6
ByLayer
 10
63.6270000000000024
 20
39.0300000000000011
 30
0.0
 11
65.1770000000000067
 21
39.0300000000000011
 31
0.0
  0
LINE
  5
255
100
AcDbEntity
100
AcDbLine
  8
0
 62
256
370
-1
  6
ByLayer
 10
65.1770000000000067
 20
39.0300000000000011
 30
0.0
 11
65.1770000000000067
 21
37.4799999999999969
 31
0.0
  0
LINE
  5
256
100
AcDbEntity
100
AcDbLine
  8
0
 62
256
370
-1
  6
ByLayer
 10
65.1770000000000067
 20
37.4799999999999969
 30
0.0
 11
63.6270000000000024
 21
37.4799999999999969
 31
0.0
  0
LINE
  5
257
100
AcDbEntity
100
AcDbLine
  8
0
 62
256
370
-1
  6
ByLayer
 10
63.6270000000000024
 20
40.0200000000000031
 30
0.0
 11
63.6270000000000024
 21
41.5700000000000003
 31
0.0
  0
LINE
  5
258
100
AcDbEntity
100
AcDbLine
  8
0
 62
256
370
-1
  6
ByLayer
 10
63.6270000000000024
 20
41.5700000000000003
 30
0.0
 11
65.1770000000000067
 21
41.5700000000000003
 31
0.0
  0
LINE
  5
259
100
AcDbEntity
100
AcDbLine
  8
0
 62
256
370
-1
  6
ByLayer
 10
65.1770000000000067
 20
41.5700000000000003
 30
0.0
 11
65.1770000000000067
 21
40.0200000000000031
 31
0.0
  0
LINE
  5
25A
100
AcDbEntity
100
AcDbLine
  8
0
 62
256
370
-1
  6
ByLayer
 10
65.1770000000000067
 20
40.0200000000000031
 30
0.0
 11
63.6270000000000024
 21
40.0200000000000031
 31
0.0
  0
LINE
  5
25B
100
AcDbEntity
100
AcDbLine
  8
0
 62
256
370
-1
  6
ByLayer
 10
64.1350000000000051
 20
86.3599999999999994
 30
0.0
 11
64.1350000000000051
 21
87.9099999999999966
 31
0.0
  0
LINE
  5
25C
100
AcDbEntity
100
AcDbLine
  8
0
 62
256
370
-1
  6
ByLayer
 10
64.1350000000000051
 20
87.9099999999999966
 30
0.0
 11
65.6850000000000023
 21
87.9099999999999966
 31
0.0
  0
LINE
  5
25D
100
AcDbEntity
100
AcDbLine
  8
0
 62
256
370
-1
  6
ByLayer
 10
65.6850000000000023
 20
87.9099999999999966
 30
0.0
 11
65.6850000000000023
 21
86.3599999999999994
 31
0.0
  0
LINE
  5
25E
100
AcDbEntity
100
AcDbLine
  8
0
 62
256
370
-1
  6
ByLayer
 10
65.6850000000000023
 20
86.3599999999999994
 30
0.0
 11
64.1350000000000051
 21
86.3599999999999994
 31
0.0
  0
LINE
  5
25F
100
AcDbEntity
100
AcDbLine
  8
0
 62
256
370
-1
  6
ByLayer
 10
64.769999999999996
 20
94.7420000000000044
 30
0.0
 11
64.769999999999996
 21
96.2920000000000016
 31
0.0
  0
LINE
  5
260
100
AcDbEntity
100
AcDbLine
  8
0
 62
256
370
-1
  6
ByLayer
 10
64.769999999999996
 20
96.2920000000000016
 30
0.0
 11
66.3199999999999932
 21
96.2920000000000016
 31
0.0
  0
LINE
  5
261
100
AcDbEntity
100
AcDbLine
  8
0
 62
256
370
-1
  6
ByLayer
 10
66.3199999999999932
 20
96.2920000000000016
 30
0.0
 11
66.3199999999999932
 21
94.7420000000000044
 31
0.0
  0
LINE
  5
262
100
AcDbEntity
100
AcDbLine
  8
0
 62
256
370
-1
  6
ByLayer
 10
66.3199999999999932
 20
94.7420000000000044
 30
0.0
 11
64.769999999999996
 21
94.7420000000000044
 31
0.0
  0
LINE
  5
263
100
AcDbEntity
100
AcDbLine
  8
0
 62
256
370
-1
  6
ByLayer
 10
64.769999999999996
 20
98.2980000000000018
 30
0.0
 11
64.769999999999996
 21
99.847999999999999
 31
0.0
  0
LINE
  5
264
100
AcDbEntity
100
AcDbLine
  8
0
 62
256
370
-1
  6
ByLayer
 10
64.769999999999996
 20
99.847999999999999
 30
0.0
 11
66.3199999999999932
 21
99.847999999999999
 31
0.0
  0
LINE
  5
265
100
AcDbEntity
100
AcDbLine
  8
0
 62
256
370
-1
  6
ByLayer
 10
66.3199999999999932
 20
99.847999999999999
 30
0.0
 11
66.3199999999999932
 21
98.2980000000000018
 31
0.0
  0
LINE
  5
266
100
AcDbEntity
100
AcDbLine
  8
0
 62
256
370
-1
  6
ByLayer
 10
66.3199999999999932
 20
98.2980000000000018
 30
0.0
 11
64.769999999999996
 21
98.2980000000000018
 31
0.0
  0
LINE
  5
267
100
AcDbEntity
100
AcDbLine
  8
0
 62
256
370
-1
  6
ByLayer
 10
66.1670000000000016
 20
34.9410000000000025
 30
0.0
 11
66.1670000000000016
 21
36.4909999999999997
 31
0.0
  0
LINE
  5
268
100
AcDbEntity
100
AcDbLine
  8
0
 62
256
370
-1
  6
ByLayer
 10
66.1670000000000016
 20
36.4909999999999997
 30
0.0
 11
67.7169999999999987
 21
36.4909999999999997
 31
0.0
  0
LINE
  5
269
100
AcDbEntity
100
AcDbLine
  8
0
 62
256
370
-1
  6
ByLayer
 10
67.7169999999999987
 20
36.4909999999999997
 30
0.0
 11
67.7169999999999987
 21
34.9410000000000025
 31
0.0
  0
LINE
  5
26A
100
AcDbEntity
100
AcDbLine
  8
0
 62
256
370
-1
  6
ByLayer
 10
67.7169999999999987
 20
34.9410000000000025
 30
0.0
 11
66.1670000000000016
 21
34.9410000000000025
 31
0.0
  0
LINE
  5
26B
100
AcDbEntity
100
AcDbLine
  8
0
 62
256
370
-1
  6
ByLayer
 10
66.1670000000000016
 20
37.4799999999999969
 30
0.0
 11
66.1670000000000016
 21
39.0300000000000011
 31
0.0
  0
LINE
  5
26C
100
AcDbEntity
100
AcDbLine
  8
0
 62
256
370
-1
  6
ByLayer
 10
66.1670000000000016
 20
39.0300000000000011
 30
0.0
 11
67.7169999999999987
 21
39.0300000000000011
 31
0.0
  0
LINE
  5
26D
100
AcDbEntity
100
AcDbLine
  8
0
 62
256
370
-1
  6
ByLayer
 10
67.7169999999999987
 20
39.0300000000000011
 30
0.0
 11
67.7169999999999987
 21
37.4799999999999969
 31
0.0
  0
LINE
  5
26E
100
AcDbEntity
100
AcDbLine
  8
0
 62
256
370
-1
  6
ByLayer
 10
67.7169999999999987
 20
37.4799999999999969
 30
0.0
 11
66.1670000000000016
 21
37.4799999999999969
 31
0.0
  0
LINE
  5
26F
100
AcDbEntity
100
AcDbLine
  8
0
 62
256
370
-1
  6
ByLayer
 10
66.1670000000000016
 20
40.0200000000000031
 30
0.0
 11
66.1670000000000016
 21
41.5700000000000003
 31
0.0
  0
LINE
  5
270
100
AcDbEntity
100
AcDbLine
  8
0
 62
256
370
-1
  6
ByLayer
 10
66.1670000000000016
 20
41.5700000000000003
 30
0.0
 11
67.7169999999999987
 21
41.5700000000000003
 31
0.0
  0
LINE
  5
271
100
AcDbEntity
100
AcDbLine
  8
0
 62
256
370
-1
  6
ByLayer
 10
67.7169999999999987
 20
41.5700000000000003
 30
0.0
 11
67.7169999999999987
 21
40.0200000000000031
 31
0.0
  0
LINE
  5
272
100
AcDbEntity
100
AcDbLine
  8
0
 62
256
370
-1
  6
ByLayer
 10
67.7169999999999987
 20
40.0200000000000031
 30
0.0
 11
66.1670000000000016
 21
40.0200000000000031
 31
0.0
  0
LINE
  5
273
100
AcDbEntity
100
AcDbLine
  8
0
 62
256
370
-1
  6
ByLayer
 10
67.2009999999999934
 20
64.953000000000003
 30
0.0
 11
67.2009999999999934
 21
66.5030000000000001
 31
0.0
  0
LINE
  5
274
100
AcDbEntity
100
AcDbLine
  8
0
 62
256
370
-1
  6
ByLayer
 10
67.2009999999999934
 20
66.5030000000000001
 30
0.0
 11
68.7510000000000048
 21
66.5030000000000001
 31
0.0
  0
LINE
  5
275
100
AcDbEntity
100
AcDbLine
  8
0
 62
256
370
-1
  6
ByLayer
 10
68.7510000000000048
 20
66.5030000000000001
 30
0.0
 11
68.7510000000000048
 21
64.953000000000003
 31
0.0
  0
LINE
  5
276
100
AcDbEntity
100
AcDbLine
  8
0
 62
256
370
-1
  6
ByLayer
 10
68.7510000000000048
 20
64.953000000000003
 30
0.0
 11
67.2009999999999934
 21
64.953000000000003
 31
0.0
  0
LINE
  5
277
100
AcDbEntity
100
AcDbLine
  8
0
 62
256
370
-1
  6
ByLayer
 10
67.2009999999999934
 20
67.492999999999995
 30
0.0
 11
67.2009999999999934
 21
69.0430000000000064
 31
0.0
  0
LINE
  5
278
100
AcDbEntity
100
AcDbLine
  8
0
 62
256
370
-1
  6
ByLayer
 10
67.2009999999999934
 20
69.0430000000000064
 30
0.0
 11
68.7510000000000048
 21
69.0430000000000064
 31
0.0
  0
LINE
  5
279
100
AcDbEntity
100
AcDbLine
  8
0
 62
256
370
-1
  6
ByLayer
 10
68.7510000000000048
 20
69.0430000000000064
 30
0.0
 11
68.7510000000000048
 21
67.492999999999995
 31
0.0
  0
LINE
  5
27A
100
AcDbEntity
100
AcDbLine
  8
0
 62
256
370
-1
  6
ByLayer
 10
68.7510000000000048
 20
67.492999999999995
 30
0.0
 11
67.2009999999999934
 21
67.492999999999995
 31
0.0
  0
LINE
  5
27B
100
AcDbEntity
100
AcDbLine
  8
0
 62
256
370
-1
  6
ByLayer
 10
68.7069999999999936
 20
34.9410000000000025
 30
0.0
 11
68.7069999999999936
 21
36.4909999999999997
 31
0.0
  0
LINE
  5
27C
100
AcDbEntity
100
AcDbLine
  8
0
 62
256
370
-1
  6
ByLayer
 10
68.7069999999999936
 20
36.4909999999999997
 30
0.0
 11
70.257000000000005
 21
36.4909999999999997
 31
0.0
  0
LINE
  5
27D
100
AcDbEntity
100
AcDbLine
  8
0
 62
256
370
-1
  6
ByLayer
 10
70.257000000000005
 20
36.4909999999999997
 30
0.0
 11
70.257000000000005
 21
34.9410000000000025
 31
0.0
  0
LINE
  5
27E
100
AcDbEntity
100
AcDbLine
  8
0
 62
256
370
-1
  6
ByLayer
 10
70.257000000000005
 20
34.9410000000000025
 30
0.0
 11
68.7069999999999936
 21
34.9410000000000025
 31
0.0
  0
LINE
  5
27F
100
AcDbEntity
100
AcDbLine
  8
0
 62
256
370
-1
  6
ByLayer
 10
68.7069999999999936
 20
37.4799999999999969
 30
0.0
 11
68.7069999999999936
 21
39.0300000000000011
 31
0.0
  0
LINE
  5
280
100
AcDbEntity
100
AcDbLine
  8
0
 62
256
370
-1
  6
ByLayer
 10
68.7069999999999936
 20
39.0300000000000011
 30
0.0
 11
70.257000000000005
 21
39.0300000000000011
 31
0.0
  0
LINE
  5
281
100
AcDbEntity
100
AcDbLine
  8
0
 62
256
370
-1
  6
ByLayer
 10
70.257000000000005
 20
39.0300000000000011
 30
0.0
 11
70.257000000000005
 21
37.4799999999999969
 31
0.0
  0
LINE
  5
282
100
AcDbEntity
100
AcDbLine
  8
0
 62
256
370
-1
  6
ByLayer
 10
70.257000000000005
 20
37.4799999999999969
 30
0.0
 11
68.7069999999999936
 21
37.4799999999999969
 31
0.0
  0
LINE
  5
283
100
AcDbEntity
100
AcDbLine
  8
0
 62
256
370
-1
  6
ByLayer
 10
68.7069999999999936
 20
40.0200000000000031
 30
0.0
 11
68.7069999999999936
 21
41.5700000000000003
 31
0.0
  0
LINE
  5
284
100
AcDbEntity
100
AcDbLine
  8
0
 62
256
370
-1
  6
ByLayer
 10
68.7069999999999936
 20
41.5700000000000003
 30
0.0
 11
70.257000000000005
 21
41.5700000000000003
 31
0.0
  0
LINE
  5
285
100
AcDbEntity
100
AcDbLine
  8
0
 62
256
370
-1
  6
ByLayer
 10
70.257000000000005
 20
41.5700000000000003
 30
0.0
 11
70.257000000000005
 21
40.0200000000000031
 31
0.0
  0
LINE
  5
286
100
AcDbEntity
100
AcDbLine
  8
0
 62
256
370
-1
  6
ByLayer
 10
70.257000000000005
 20
40.0200000000000031
 30
0.0
 11
68.7069999999999936
 21
40.0200000000000031
 31
0.0
  0
LINE
  5
287
100
AcDbEntity
100
AcDbLine
  8
0
 62
256
370
-1
  6
ByLayer
 10
69.7399999999999949
 20
64.953000000000003
 30
0.0
 11
69.7399999999999949
 21
66.5030000000000001
 31
0.0
  0
LINE
  5
288
100
AcDbEntity
100
AcDbLine
  8
0
 62
256
370
-1
  6
ByLayer
 10
69.7399999999999949
 20
66.5030000000000001
 30
0.0
 11
71.2900000000000063
 21
66.5030000000000001
 31
0.0
  0
LINE
  5
289
100
AcDbEntity
100
AcDbLine
  8
0
 62
256
370
-1
  6
ByLayer
 10
71.2900000000000063
 20
66.5030000000000001
 30
0.0
 11
71.2900000000000063
 21
64.953000000000003
 31
0.0
  0
LINE
  5
28A
100
AcDbEntity
100
AcDbLine
  8
0
 62
256
370
-1
  6
ByLayer
 10
71.2900000000000063
 20
64.953000000000003
 30
0.0
 11
69.7399999999999949
 21
64.953000000000003
 31
0.0
  0
LINE
  5
28B
100
AcDbEntity
100
AcDbLine
  8
0
 62
256
370
-1
  6
ByLayer
 10
69.7399999999999949
 20
67.492999999999995
 30
0.0
 11
69.7399999999999949
 21
69.0430000000000064
 31
0.0
  0
LINE
  5
28C
100
AcDbEntity
100
AcDbLine
  8
0
 62
256
370
-1
  6
ByLayer
 10
69.7399999999999949
 20
69.0430000000000064
 30
0.0
 11
71.2900000000000063
 21
69.0430000000000064
 31
0.0
  0
LINE
  5
28D
100
AcDbEntity
100
AcDbLine
  8
0
 62
256
370
-1
  6
ByLayer
 10
71.2900000000000063
 20
69.0430000000000064
 30
0.0
 11
71.2900000000000063
 21
67.492999999999995
 31
0.0
  0
LINE
  5
28E
100
AcDbEntity
100
AcDbLine
  8
0
 62
256
370
-1
  6
ByLayer
 10
71.2900000000000063
 20
67.492999999999995
 30
0.0
 11
69.7399999999999949
 21
67.492999999999995
 31
0.0
  0
LINE
  5
28F
100
AcDbEntity
100
AcDbLine
  8
0
 62
256
370
-1
  6
ByLayer
 10
69.7819999999999965
 20
4.6479999999999997
 30
0.0
 11
69.7819999999999965
 21
6.1980000000000004
 31
0.0
  0
LINE
  5
290
100
AcDbEntity
100
AcDbLine
  8
0
 62
256
370
-1
  6
ByLayer
 10
69.7819999999999965
 20
6.1980000000000004
 30
0.0
 11
71.3319999999999936
 21
6.1980000000000004
 31
0.0
  0
LINE
  5
291
100
AcDbEntity
100
AcDbLine
  8
0
 62
256
370
-1
  6
ByLayer
 10
71.3319999999999936
 20
6.1980000000000004
 30
0.0
 11
71.3319999999999936
 21
4.6479999999999997
 31
0.0
  0
LINE
  5
292
100
AcDbEntity
100
AcDbLine
  8
0
 62
256
370
-1
  6
ByLayer
 10
71.3319999999999936
 20
4.6479999999999997
 30
0.0
 11
69.7819999999999965
 21
4.6479999999999997
 31
0.0
  0
LINE
  5
293
100
AcDbEntity
100
AcDbLine
  8
0
 62
256
370
-1
  6
ByLayer
 10
72.2810000000000059
 20
64.953000000000003
 30
0.0
 11
72.2810000000000059
 21
66.5030000000000001
 31
0.0
  0
LINE
  5
294
100
AcDbEntity
100
AcDbLine
  8
0
 62
256
370
-1
  6
ByLayer
 10
72.2810000000000059
 20
66.5030000000000001
 30
0.0
 11
73.8310000000000031
 21
66.5030000000000001
 31
0.0
  0
LINE
  5
295
100
AcDbEntity
100
AcDbLine
  8
0
 62
256
370
-1
  6
ByLayer
 10
73.8310000000000031
 20
66.5030000000000001
 30
0.0
 11
73.8310000000000031
 21
64.953000000000003
 31
0.0
  0
LINE
  5
296
100
AcDbEntity
100
AcDbLine
  8
0
 62
256
370
-1
  6
ByLayer
 10
73.8310000000000031
 20
64.953000000000003
 30
0.0
 11
72.2810000000000059
 21
64.953000000000003
 31
0.0
  0
LINE
  5
297
100
AcDbEntity
100
AcDbLine
  8
0
 62
256
370
-1
  6
ByLayer
 10
72.2810000000000059
 20
67.492999999999995
 30
0.0
 11
72.2810000000000059
 21
69.0430000000000064
 31
0.0
  0
LINE
  5
298
100
AcDbEntity
100
AcDbLine
  8
0
 62
256
370
-1
  6
ByLayer
 10
72.2810000000000059
 20
69.0430000000000064
 30
0.0
 11
73.8310000000000031
 21
69.0430000000000064
 31
0.0
  0
LINE
  5
299
100
AcDbEntity
100
AcDbLine
  8
0
 62
256
370
-1
  6
ByLayer
 10
73.8310000000000031
 20
69.0430000000000064
 30
0.0
 11
73.8310000000000031
 21
67.492999999999995
 31
0.0
  0
LINE
  5
29A
100
AcDbEntity
100
AcDbLine
  8
0
 62
256
370
-1
  6
ByLayer
 10
73.8310000000000031
 20
67.492999999999995
 30
0.0
 11
72.2810000000000059
 21
67.492999999999995
 31
0.0
  0
LINE
  5
29B
100
AcDbEntity
100
AcDbLine
  8
0
 62
256
370
-1
  6
ByLayer
 10
72.3229999999999933
 20
4.6479999999999997
 30
0.0
 11
72.3229999999999933
 21
6.1980000000000004
 31
0.0
  0
LINE
  5
29C
100
AcDbEntity
100
AcDbLine
  8
0
 62
256
370
-1
  6
ByLayer
 10
72.3229999999999933
 20
6.1980000000000004
 30
0.0
 11
73.8730000000000047
 21
6.1980000000000004
 31
0.0
  0
LINE
  5
29D
100
AcDbEntity
100
AcDbLine
  8
0
 62
256
370
-1
  6
ByLayer
 10
73.8730000000000047
 20
6.1980000000000004
 30
0.0
 11
73.8730000000000047
 21
4.6479999999999997
 31
0.0
  0
LINE
  5
29E
100
AcDbEntity
100
AcDbLine
  8
0
 62
256
370
-1
  6
ByLayer
 10
73.8730000000000047
 20
4.6479999999999997
 30
0.0
 11
72.3229999999999933
 21
4.6479999999999997
 31
0.0
  0
LINE
  5
29F
100
AcDbEntity
100
AcDbLine
  8
0
 62
256
370
-1
  6
ByLayer
 10
72.9159999999999968
 20
58.6030000000000015
 30
0.0
 11
72.9159999999999968
 21
60.1529999999999987
 31
0.0
  0
LINE
  5
2A0
100
AcDbEntity
100
AcDbLine
  8
0
 62
256
370
-1
  6
ByLayer
 10
72.9159999999999968
 20
60.1529999999999987
 30
0.0
 11
74.465999999999994
 21
60.1529999999999987
 31
0.0
  0
LINE
  5
2A1
100
AcDbEntity
100
AcDbLine
  8
0
 62
256
370
-1
  6
ByLayer
 10
74.465999999999994
 20
60.1529999999999987
 30
0.0
 11
74.465999999999994
 21
58.6030000000000015
 31
0.0
  0
LINE
  5
2A2
100
AcDbEntity
100
AcDbLine
  8
0
 62
256
370
-1
  6
ByLayer
 10
74.465999999999994
 20
58.6030000000000015
 30
0.0
 11
72.9159999999999968
 21
58.6030000000000015
 31
0.0
  0
LINE
  5
2A3
100
AcDbEntity
100
AcDbLine
  8
0
 62
256
370
-1
  6
ByLayer
 10
72.9159999999999968
 20
61.1430000000000007
 30
0.0
 11
72.9159999999999968
 21
62.6929999999999978
 31
0.0
  0
LINE
  5
2A4
100
AcDbEntity
100
AcDbLine
  8
0
 62
256
370
-1
  6
ByLayer
 10
72.9159999999999968
 20
62.6929999999999978
 30
0.0
 11
74.465999999999994
 21
62.6929999999999978
 31
0.0
  0
LINE
  5
2A5
100
AcDbEntity
100
AcDbLine
  8
0
 62
256
370
-1
  6
ByLayer
 10
74.465999999999994
 20
62.6929999999999978
 30
0.0
 11
74.465999999999994
 21
61.1430000000000007
 31
0.0
  0
LINE
  5
2A6
100
AcDbEntity
100
AcDbLine
  8
0
 62
256
370
-1
  6
ByLayer
 10
74.465999999999994
 20
61.1430000000000007
 30
0.0
 11
72.9159999999999968
 21
61.1430000000000007
 31
0.0
  0
LINE
  5
2A7
100
AcDbEntity
100
AcDbLine
  8
0
 62
256
370
-1
  6
ByLayer
 10
74.820999999999998
 20
64.953000000000003
 30
0.0
 11
74.820999999999998
 21
66.5030000000000001
 31
0.0
  0
LINE
  5
2A8
100
AcDbEntity
100
AcDbLine
  8
0
 62
256
370
-1
  6
ByLayer
 10
74.820999999999998
 20
66.5030000000000001
 30
0.0
 11
76.3709999999999951
 21
66.5030000000000001
 31
0.0
  0
LINE
  5
2A9
100
AcDbEntity
100
AcDbLine
  8
0
 62
256
370
-1
  6
ByLayer
 10
76.3709999999999951
 20
66.5030000000000001
 30
0.0
 11
76.3709999999999951
 21
64.953000000000003
 31
0.0
  0
LINE
  5
2AA
100
AcDbEntity
100
AcDbLine
  8
0
 62
256
370
-1
  6
ByLayer
 10
76.3709999999999951
 20
64.953000000000003
 30
0.0
 11
74.820999999999998
 21
64.953000000000003
 31
0.0
  0
LINE
  5
2AB
100
AcDbEntity
100
AcDbLine
  8
0
 62
256
370
-1
  6
ByLayer
 10
74.820999999999998
 20
67.492999999999995
 30
0.0
 11
74.820999999999998
 21
69.0430000000000064
 31
0.0
  0
LINE
  5
2AC
100
AcDbEntity
100
AcDbLine
  8
0
 62
256
370
-1
  6
ByLayer
 10
74.820999999999998
 20
69.0430000000000064
 30
0.0
 11
76.3709999999999951
 21
69.0430000000000064
 31
0.0
  0
LINE
  5
2AD
100
AcDbEntity
100
AcDbLine
  8
0
 62
256
370
-1
  6
ByLayer
 10
76.3709999999999951
 20
69.0430000000000064
 30
0.0
 11
76.3709999999999951
 21
67.492999999999995
 31
0.0
  0
LINE
  5
2AE
100
AcDbEntity
100
AcDbLine
  8
0
 62
256
370
-1
  6
ByLayer
 10
76.3709999999999951
 20
67.492999999999995
 30
0.0
 11
74.820999999999998
 21
67.492999999999995
 31
0.0
  0
LINE
  5
2AF
100
AcDbEntity
100
AcDbLine
  8
0
 62
256
370
-1
  6
ByLayer
 10
74.8619999999999948
 20
4.6479999999999997
 30
0.0
 11
74.8619999999999948
 21
6.1980000000000004
 31
0.0
  0
LINE
  5
2B0
100
AcDbEntity
100
AcDbLine
  8
0
 62
256
370
-1
  6
ByLayer
 10
74.8619999999999948
 20
6.1980000000000004
 30
0.0
 11
76.4120000000000061
 21
6.1980000000000004
 31
0.0
  0
LINE
  5
2B1
100
AcDbEntity
100
AcDbLine
  8
0
 62
256
370
-1
  6
ByLayer
 10
76.4120000000000061
 20
6.1980000000000004
 30
0.0
 11
76.4120000000000061
 21
4.6479999999999997
 31
0.0
  0
LINE
  5
2B2
100
AcDbEntity
100
AcDbLine
  8
0
 62
256
370
-1
  6
ByLayer
 10
76.4120000000000061
 20
4.6479999999999997
 30
0.0
 11
74.8619999999999948
 21
4.6479999999999997
 31
0.0
  0
LINE
  5
2B3
100
AcDbEntity
100
AcDbLine
  8
0
 62
256
370
-1
  6
ByLayer
 10
75.4560000000000031
 20
58.6030000000000015
 30
0.0
 11
75.4560000000000031
 21
60.1529999999999987
 31
0.0
  0
LINE
  5
2B4
100
AcDbEntity
100
AcDbLine
  8
0
 62
256
370
-1
  6
ByLayer
 10
75.4560000000000031
 20
60.1529999999999987
 30
0.0
 11
77.0060000000000002
 21
60.1529999999999987
 31
0.0
  0
LINE
  5
2B5
100
AcDbEntity
100
AcDbLine
  8
0
 62
256
370
-1
  6
ByLayer
 10
77.0060000000000002
 20
60.1529999999999987
 30
0.0
 11
77.0060000000000002
 21
58.6030000000000015
 31
0.0
  0
LINE
  5
2B6
100
AcDbEntity
100
AcDbLine
  8
0
 62
256
370
-1
  6
ByLayer
 10
77.0060000000000002
 20
58.6030000000000015
 30
0.0
 11
75.4560000000000031
 21
58.6030000000000015
 31
0.0
  0
LINE
  5
2B7
100
AcDbEntity
100
AcDbLine
  8
0
 62
256
370
-1
  6
ByLayer
 10
75.4560000000000031
 20
61.1430000000000007
 30
0.0
 11
75.4560000000000031
 21
62.6929999999999978
 31
0.0
  0
LINE
  5
2B8
100
AcDbEntity
100
AcDbLine
  8
0
 62
256
370
-1
  6
ByLayer
 10
75.4560000000000031
 20
62.6929999999999978
 30
0.0
 11
77.0060000000000002
 21
62.6929999999999978
 31
0.0
  0
LINE
  5
2B9
100
AcDbEntity
100
AcDbLine
  8
0
 62
256
370
-1
  6
ByLayer
 10
77.0060000000000002
 20
62.6929999999999978
 30
0.0
 11
77.0060000000000002
 21
61.1430000000000007
 31
0.0
  0
LINE
  5
2BA
100
AcDbEntity
100
AcDbLine
  8
0
 62
256
370
-1
  6
ByLayer
 10
77.0060000000000002
 20
61.1430000000000007
 30
0.0
 11
75.4560000000000031
 21
61.1430000000000007
 31
0.0
  0
LINE
  5
2BB
100
AcDbEntity
100
AcDbLine
  8
0
 62
256
370
-1
  6
ByLayer
 10
77.3610000000000042
 20
64.953000000000003
 30
0.0
 11
77.3610000000000042
 21
66.5030000000000001
 31
0.0
  0
LINE
  5
2BC
100
AcDbEntity
100
AcDbLine
  8
0
 62
256
370
-1
  6
ByLayer
 10
77.3610000000000042
 20
66.5030000000000001
 30
0.0
 11
78.9110000000000014
 21
66.5030000000000001
 31
0.0
  0
LINE
  5
2BD
100
AcDbEntity
100
AcDbLine
  8
0
 62
256
370
-1
  6
ByLayer
 10
78.9110000000000014
 20
66.5030000000000001
 30
0.0
 11
78.9110000000000014
 21
64.953000000000003
 31
0.0
  0
LINE
  5
2BE
100
AcDbEntity
100
AcDbLine
  8
0
 62
256
370
-1
  6
ByLayer
 10
78.9110000000000014
 20
64.953000000000003
 30
0.0
 11
77.3610000000000042
 21
64.953000000000003
 31
0.0
  0
LINE
  5
2BF
100
AcDbEntity
100
AcDbLine
  8
0
 62
256
370
-1
  6
ByLayer
 10
77.3610000000000042
 20
67.492999999999995
 30
0.0
 11
77.3610000000000042
 21
69.0430000000000064
 31
0.0
  0
LINE
  5
2C0
100
AcDbEntity
100
AcDbLine
  8
0
 62
256
370
-1
  6
ByLayer
 10
77.3610000000000042
 20
69.0430000000000064
 30
0.0
 11
78.9110000000000014
 21
69.0430000000000064
 31
0.0
  0
LINE
  5
2C1
100
AcDbEntity
100
AcDbLine
  8
0
 62
256
370
-1
  6
ByLayer
 10
78.9110000000000014
 20
69.0430000000000064
 30
0.0
 11
78.9110000000000014
 21
67.492999999999995
 31
0.0
  0
LINE
  5
2C2
100
AcDbEntity
100
AcDbLine
  8
0
 62
256
370
-1
  6
ByLayer
 10
78.9110000000000014
 20
67.492999999999995
 30
0.0
 11
77.3610000000000042
 21
67.492999999999995
 31
0.0
  0
LINE
  5
2C3
100
AcDbEntity
100
AcDbLine
  8
0
 62
256
370
-1
  6
ByLayer
 10
77.4030000000000058
 20
4.6479999999999997
 30
0.0
 11
77.4030000000000058
 21
6.1980000000000004
 31
0.0
  0
LINE
  5
2C4
100
AcDbEntity
100
AcDbLine
  8
0
 62
256
370
-1
  6
ByLayer
 10
77.4030000000000058
 20
6.1980000000000004
 30
0.0
 11
78.953000000000003
 21
6.1980000000000004
 31
0.0
  0
LINE
  5
2C5
100
AcDbEntity
100
AcDbLine
  8
0
 62
256
370
-1
  6
ByLayer
 10
78.953000000000003
 20
6.1980000000000004
 30
0.0
 11
78.953000000000003
 21
4.6479999999999997
 31
0.0
  0
LINE
  5
2C6
100
AcDbEntity
100
AcDbLine
  8
0
 62
256
370
-1
  6
ByLayer
 10
78.953000000000003
 20
4.6479999999999997
 30
0.0
 11
77.4030000000000058
 21
4.6479999999999997
 31
0.0
  0
LINE
  5
2C7
100
AcDbEntity
100
AcDbLine
  8
0
 62
256
370
-1
  6
ByLayer
 10
77.9959999999999951
 20
58.6030000000000015
 30
0.0
 11
77.9959999999999951
 21
60.1529999999999987
 31
0.0
  0
LINE
  5
2C8
100
AcDbEntity
100
AcDbLine
  8
0
 62
256
370
-1
  6
ByLayer
 10
77.9959999999999951
 20
60.1529999999999987
 30
0.0
 11
79.5460000000000065
 21
60.1529999999999987
 31
0.0
  0
LINE
  5
2C9
100
AcDbEntity
100
AcDbLine
  8
0
 62
256
370
-1
  6
ByLayer
 10
79.5460000000000065
 20
60.1529999999999987
 30
0.0
 11
79.5460000000000065
 21
58.6030000000000015
 31
0.0
  0
LINE
  5
2CA
100
AcDbEntity
100
AcDbLine
  8
0
 62
256
370
-1
  6
ByLayer
 10
79.5460000000000065
 20
58.6030000000000015
 30
0.0
 11
77.9959999999999951
 21
58.6030000000000015
 31
0.0
  0
LINE
  5
2CB
100
AcDbEntity
100
AcDbLine
  8
0
 62
256
370
-1
  6
ByLayer
 10
77.9959999999999951
 20
61.1430000000000007
 30
0.0
 11
77.9959999999999951
 21
62.6929999999999978
 31
0.0
  0
LINE
  5
2CC
100
AcDbEntity
100
AcDbLine
  8
0
 62
256
370
-1
  6
ByLayer
 10
77.9959999999999951
 20
62.6929999999999978
 30
0.0
 11
79.5460000000000065
 21
62.6929999999999978
 31
0.0
  0
LINE
  5
2CD
100
AcDbEntity
100
AcDbLine
  8
0
 62
256
370
-1
  6
ByLayer
 10
79.5460000000000065
 20
62.6929999999999978
 30
0.0
 11
79.5460000000000065
 21
61.1430000000000007
 31
0.0
  0
LINE
  5
2CE
100
AcDbEntity
100
AcDbLine
  8
0
 62
256
370
-1
  6
ByLayer
 10
79.5460000000000065
 20
61.1430000000000007
 30
0.0
 11
77.9959999999999951
 21
61.1430000000000007
 31
0.0
  0
LINE
  5
2CF
100
AcDbEntity
100
AcDbLine
  8
0
 62
256
370
-1
  6
ByLayer
 10
79.9009999999999962
 20
64.953000000000003
 30
0.0
 11
79.9009999999999962
 21
66.5030000000000001
 31
0.0
  0
LINE
  5
2D0
100
AcDbEntity
100
AcDbLine
  8
0
 62
256
370
-1
  6
ByLayer
 10
79.9009999999999962
 20
66.5030000000000001
 30
0.0
 11
81.4509999999999934
 21
66.5030000000000001
 31
0.0
  0
LINE
  5
2D1
100
AcDbEntity
100
AcDbLine
  8
0
 62
256
370
-1
  6
ByLayer
 10
81.4509999999999934
 20
66.5030000000000001
 30
0.0
 11
81.4509999999999934
 21
64.953000000000003
 31
0.0
  0
LINE
  5
2D2
100
AcDbEntity
100
AcDbLine
  8
0
 62
256
370
-1
  6
ByLayer
 10
81.4509999999999934
 20
64.953000000000003
 30
0.0
 11
79.9009999999999962
 21
64.953000000000003
 31
0.0
  0
LINE
  5
2D3
100
AcDbEntity
100
AcDbLine
  8
0
 62
256
370
-1
  6
ByLayer
 10
79.9009999999999962
 20
67.492999999999995
 30
0.0
 11
79.9009999999999962
 21
69.0430000000000064
 31
0.0
  0
LINE
  5
2D4
100
AcDbEntity
100
AcDbLine
  8
0
 62
256
370
-1
  6
ByLayer
 10
79.9009999999999962
 20
69.0430000000000064
 30
0.0
 11
81.4509999999999934
 21
69.0430000000000064
 31
0.0
  0
LINE
  5
2D5
100
AcDbEntity
100
AcDbLine
  8
0
 62
256
370
-1
  6
ByLayer
 10
81.4509999999999934
 20
69.0430000000000064
 30
0.0
 11
81.4509999999999934
 21
67.492999999999995
 31
0.0
  0
LINE
  5
2D6
100
AcDbEntity
100
AcDbLine
  8
0
 62
256
370
-1
  6
ByLayer
 10
81.4509999999999934
 20
67.492999999999995
 30
0.0
 11
79.9009999999999962
 21
67.492999999999995
 31
0.0
  0
LINE
  5
2D7
100
AcDbEntity
100
AcDbLine
  8
0
 62
256
370
-1
  6
ByLayer
 10
80.5349999999999966
 20
58.6030000000000015
 30
0.0
 11
80.5349999999999966
 21
60.1529999999999987
 31
0.0
  0
LINE
  5
2D8
100
AcDbEntity
100
AcDbLine
  8
0
 62
256
370
-1
  6
ByLayer
 10
80.5349999999999966
 20
60.1529999999999987
 30
0.0
 11
82.0849999999999937
 21
60.1529999999999987
 31
0.0
  0
LINE
  5
2D9
100
AcDbEntity
100
AcDbLine
  8
0
 62
256
370
-1
  6
ByLayer
 10
82.0849999999999937
 20
60.1529999999999987
 30
0.0
 11
82.0849999999999937
 21
58.6030000000000015
 31
0.0
  0
LINE
  5
2DA
100
AcDbEntity
100
AcDbLine
  8
0
 62
256
370
-1
  6
ByLayer
 10
82.0849999999999937
 20
58.6030000000000015
 30
0.0
 11
80.5349999999999966
 21
58.6030000000000015
 31
0.0
  0
LINE
  5
2DB
100
AcDbEntity
100
AcDbLine
  8
0
 62
256
370
-1
  6
ByLayer
 10
80.5349999999999966
 20
61.1430000000000007
 30
0.0
 11
80.5349999999999966
 21
62.6929999999999978
 31
0.0
  0
LINE
  5
2DC
100
AcDbEntity
100
AcDbLine
  8
0
 62
256
370
-1
  6
ByLayer
 10
80.5349999999999966
 20
62.6929999999999978
 30
0.0
 11
82.0849999999999937
 21
62.6929999999999978
 31
0.0
  0
LINE
  5
2DD
100
AcDbEntity
100
AcDbLine
  8
0
 62
256
370
-1
  6
ByLayer
 10
82.0849999999999937
 20
62.6929999999999978
 30
0.0
 11
82.0849999999999937
 21
61.1430000000000007
 31
0.0
  0
LINE
  5
2DE
100
AcDbEntity
100
AcDbLine
  8
0
 62
256
370
-1
  6
ByLayer
 10
82.0849999999999937
 20
61.1430000000000007
 30
0.0
 11
80.5349999999999966
 21
61.1430000000000007
 31
0.0
  0
LINE
  5
2DF
100
AcDbEntity
100
AcDbLine
  8
0
 62
256
370
-1
  6
ByLayer
 10
82.4410000000000025
 20
64.953000000000003
 30
0.0
 11
82.4410000000000025
 21
66.5030000000000001
 31
0.0
  0
LINE
  5
2E0
100
AcDbEntity
100
AcDbLine
  8
0
 62
256
370
-1
  6
ByLayer
 10
82.4410000000000025
 20
66.5030000000000001
 30
0.0
 11
83.9909999999999997
 21
66.5030000000000001
 31
0.0
  0
LINE
  5
2E1
100
AcDbEntity
100
AcDbLine
  8
0
 62
256
370
-1
  6
ByLayer
 10
83.9909999999999997
 20
66.5030000000000001
 30
0.0
 11
83.9909999999999997
 21
64.953000000000003
 31
0.0
  0
LINE
  5
2E2
100
AcDbEntity
100
AcDbLine
  8
0
 62
256
370
-1
  6
ByLayer
 10
83.9909999999999997
 20
64.953000000000003
 30
0.0
 11
82.4410000000000025
 21
64.953000000000003
 31
0.0
  0
LINE
  5
2E3
100
AcDbEntity
100
AcDbLine
  8
0
 62
256
370
-1
  6
ByLayer
 10
82.4410000000000025
 20
67.492999999999995
 30
0.0
 11
82.4410000000000025
 21
69.0430000000000064
 31
0.0
  0
LINE
  5
2E4
100
AcDbEntity
100
AcDbLine
  8
0
 62
256
370
-1
  6
ByLayer
 10
82.4410000000000025
 20
69.0430000000000064
 30
0.0
 11
83.9909999999999997
 21
69.0430000000000064
 31
0.0
  0
LINE
  5
2E5
100
AcDbEntity
100
AcDbLine
  8
0
 62
256
370
-1
  6
ByLayer
 10
83.9909999999999997
 20
69.0430000000000064
 30
0.0
 11
83.9909999999999997
 21
67.492999999999995
 31
0.0
  0
LINE
  5
2E6
100
AcDbEntity
100
AcDbLine
  8
0
 62
256
370
-1
  6
ByLayer
 10
83.9909999999999997
 20
67.492999999999995
 30
0.0
 11
82.4410000000000025
 21
67.492999999999995
 31
0.0
  0
LINE
  5
2E7
100
AcDbEntity
100
AcDbLine
  8
0
 62
256
370
-1
  6
ByLayer
 10
84.9809999999999945
 20
64.953000000000003
 30
0.0
 11
84.9809999999999945
 21
66.5030000000000001
 31
0.0
  0
LINE
  5
2E8
100
AcDbEntity
100
AcDbLine
  8
0
 62
256
370
-1
  6
ByLayer
 10
84.9809999999999945
 20
66.5030000000000001
 30
0.0
 11
86.5310000000000059
 21
66.5030000000000001
 31
0.0
  0
LINE
  5
2E9
100
AcDbEntity
100
AcDbLine
  8
0
 62
256
370
-1
  6
ByLayer
 10
86.5310000000000059
 20
66.5030000000000001
 30
0.0
 11
86.5310000000000059
 21
64.953000000000003
 31
0.0
  0
LINE
  5
2EA
100
AcDbEntity
100
AcDbLine
  8
0
 62
256
370
-1
  6
ByLayer
 10
86.5310000000000059
 20
64.953000000000003
 30
0.0
 11
84.9809999999999945
 21
64.953000000000003
 31
0.0
  0
LINE
  5
2EB
100
AcDbEntity
100
AcDbLine
  8
0
 62
256
370
-1
  6
ByLayer
 10
84.9809999999999945
 20
67.492999999999995
 30
0.0
 11
84.9809999999999945
 21
69.0430000000000064
 31
0.0
  0
LINE
  5
2EC
100
AcDbEntity
100
AcDbLine
  8
0
 62
256
370
-1
  6
ByLayer
 10
84.9809999999999945
 20
69.0430000000000064
 30
0.0
 11
86.5310000000000059
 21
69.0430000000000064
 31
0.0
  0
LINE
  5
2ED
100
AcDbEntity
100
AcDbLine
  8
0
 62
256
370
-1
  6
ByLayer
 10
86.5310000000000059
 20
69.0430000000000064
 30
0.0
 11
86.5310000000000059
 21
67.492999999999995
 31
0.0
  0
LINE
  5
2EE
100
AcDbEntity
100
AcDbLine
  8
0
 62
256
370
-1
  6
ByLayer
 10
86.5310000000000059
 20
67.492999999999995
 30
0.0
 11
84.9809999999999945
 21
67.492999999999995
 31
0.0
  0
LINE
  5
2EF
100
AcDbEntity
100
AcDbLine
  8
0
 62
256
370
-1
  6
ByLayer
 10
85.0229999999999961
 20
4.6479999999999997
 30
0.0
 11
85.0229999999999961
 21
6.1980000000000004
 31
0.0
  0
LINE
  5
2F0
100
AcDbEntity
100
AcDbLine
  8
0
 62
256
370
-1
  6
ByLayer
 10
85.0229999999999961
 20
6.1980000000000004
 30
0.0
 11
86.5729999999999933
 21
6.1980000000000004
 31
0.0
  0
LINE
  5
2F1
100
AcDbEntity
100
AcDbLine
  8
0
 62
256
370
-1
  6
ByLayer
 10
86.5729999999999933
 20
6.1980000000000004
 30
0.0
 11
86.5729999999999933
 21
4.6479999999999997
 31
0.0
  0
LINE
  5
2F2
100
AcDbEntity
100
AcDbLine
  8
0
 62
256
370
-1
  6
ByLayer
 10
86.5729999999999933
 20
4.6479999999999997
 30
0.0
 11
85.0229999999999961
 21
4.6479999999999997
 31
0.0
  0
LINE
  5
2F3
100
AcDbEntity
100
AcDbLine
  8
0
 62
256
370
-1
  6
ByLayer
 10
85.6620000000000061
 20
79.6290000000000049
 30
0.0
 11
85.6620000000000061
 21
81.179000000000002
 31
0.0
  0
LINE
  5
2F4
100
AcDbEntity
100
AcDbLine
  8
0
 62
256
370
-1
  6
ByLayer
 10
85.6620000000000061
 20
81.179000000000002
 30
0.0
 11
87.2120000000000033
 21
81.179000000000002
 31
0.0
  0
LINE
  5
2F5
100
AcDbEntity
100
AcDbLine
  8
0
 62
256
370
-1
  6
ByLayer
 10
87.2120000000000033
 20
81.179000000000002
 30
0.0
 11
87.2120000000000033
 21
79.6290000000000049
 31
0.0
  0
LINE
  5
2F6
100
AcDbEntity
100
AcDbLine
  8
0
 62
256
370
-1
  6
ByLayer
 10
87.2120000000000033
 20
79.6290000000000049
 30
0.0
 11
85.6620000000000061
 21
79.6290000000000049
 31
0.0
  0
LINE
  5
2F7
100
AcDbEntity
100
AcDbLine
  8
0
 62
256
370
-1
  6
ByLayer
 10
86.9950000000000045
 20
85.597999999999999
 30
0.0
 11
86.9950000000000045
 21
87.1479999999999961
 31
0.0
  0
LINE
  5
2F8
100
AcDbEntity
100
AcDbLine
  8
0
 62
256
370
-1
  6
ByLayer
 10
86.9950000000000045
 20
87.1479999999999961
 30
0.0
 11
88.5450000000000017
 21
87.1479999999999961
 31
0.0
  0
LINE
  5
2F9
100
AcDbEntity
100
AcDbLine
  8
0
 62
256
370
-1
  6
ByLayer
 10
88.5450000000000017
 20
87.1479999999999961
 30
0.0
 11
88.5450000000000017
 21
85.597999999999999
 31
0.0
  0
LINE
  5
2FA
100
AcDbEntity
100
AcDbLine
  8
0
 62
256
370
-1
  6
ByLayer
 10
88.5450000000000017
 20
85.597999999999999
 30
0.0
 11
86.9950000000000045
 21
85.597999999999999
 31
0.0
  0
LINE
  5
2FB
100
AcDbEntity
100
AcDbLine
  8
0
 62
256
370
-1
  6
ByLayer
 10
87.4129999999999967
 20
34.0409999999999968
 30
0.0
 11
87.4129999999999967
 21
35.5910000000000011
 31
0.0
  0
LINE
  5
2FC
100
AcDbEntity
100
AcDbLine
  8
0
 62
256
370
-1
  6
ByLayer
 10
87.4129999999999967
 20
35.5910000000000011
 30
0.0
 11
88.9629999999999939
 21
35.5910000000000011
 31
0.0
  0
LINE
  5
2FD
100
AcDbEntity
100
AcDbLine
  8
0
 62
256
370
-1
  6
ByLayer
 10
88.9629999999999939
 20
35.5910000000000011
 30
0.0
 11
88.9629999999999939
 21
34.0409999999999968
 31
0.0
  0
LINE
  5
2FE
100
AcDbEntity
100
AcDbLine
  8
0
 62
256
370
-1
  6
ByLayer
 10
88.9629999999999939
 20
34.0409999999999968
 30
0.0
 11
87.4129999999999967
 21
34.0409999999999968
 31
0.0
  0
LINE
  5
2FF
100
AcDbEntity
100
AcDbLine
  8
0
 62
256
370
-1
  6
ByLayer
 10
87.4129999999999967
 20
36.5810000000000031
 30
0.0
 11
87.4129999999999967
 21
38.1310000000000002
 31
0.0
  0
LINE
  5
300
100
AcDbEntity
100
AcDbLine
  8
0
 62
256
370
-1
  6
ByLayer
 10
87.4129999999999967
 20
38.1310000000000002
 30
0.0
 11
88.9629999999999939
 21
38.1310000000000002
 31
0.0
  0
LINE
  5
301
100
AcDbEntity
100
AcDbLine
  8
0
 62
256
370
-1
  6
ByLayer
 10
88.9629999999999939
 20
38.1310000000000002
 30
0.0
 11
88.9629999999999939
 21
36.5810000000000031
 31
0.0
  0
LINE
  5
302
100
AcDbEntity
100
AcDbLine
  8
0
 62
256
370
-1
  6
ByLayer
 10
88.9629999999999939
 20
36.5810000000000031
 30
0.0
 11
87.4129999999999967
 21
36.5810000000000031
 31
0.0
  0
LINE
  5
303
100
AcDbEntity
100
AcDbLine
  8
0
 62
256
370
-1
  6
ByLayer
 10
87.4129999999999967
 20
41.9149999999999991
 30
0.0
 11
87.4129999999999967
 21
43.4650000000000034
 31
0.0
  0
LINE
  5
304
100
AcDbEntity
100
AcDbLine
  8
0
 62
256
370
-1
  6
ByLayer
 10
87.4129999999999967
 20
43.4650000000000034
 30
0.0
 11
88.9629999999999939
 21
43.4650000000000034
 31
0.0
  0
LINE
  5
305
100
AcDbEntity
100
AcDbLine
  8
0
 62
256
370
-1
  6
ByLayer
 10
88.9629999999999939
 20
43.4650000000000034
 30
0.0
 11
88.9629999999999939
 21
41.9149999999999991
 31
0.0
  0
LINE
  5
306
100
AcDbEntity
100
AcDbLine
  8
0
 62
256
370
-1
  6
ByLayer
 10
88.9629999999999939
 20
41.9149999999999991
 30
0.0
 11
87.4129999999999967
 21
41.9149999999999991
 31
0.0
  0
LINE
  5
307
100
AcDbEntity
100
AcDbLine
  8
0
 62
256
370
-1
  6
ByLayer
 10
87.4129999999999967
 20
44.4549999999999983
 30
0.0
 11
87.4129999999999967
 21
46.0050000000000026
 31
0.0
  0
LINE
  5
308
100
AcDbEntity
100
AcDbLine
  8
0
 62
256
370
-1
  6
ByLayer
 10
87.4129999999999967
 20
46.0050000000000026
 30
0.0
 11
88.9629999999999939
 21
46.0050000000000026
 31
0.0
  0
LINE
  5
309
100
AcDbEntity
100
AcDbLine
  8
0
 62
256
370
-1
  6
ByLayer
 10
88.9629999999999939
 20
46.0050000000000026
 30
0.0
 11
88.9629999999999939
 21
44.4549999999999983
 31
0.0
  0
LINE
  5
30A
100
AcDbEntity
100
AcDbLine
  8
0
 62
256
370
-1
  6
ByLayer
 10
88.9629999999999939
 20
44.4549999999999983
 30
0.0
 11
87.4129999999999967
 21
44.4549999999999983
 31
0.0
  0
LINE
  5
30B
100
AcDbEntity
100
AcDbLine
  8
0
 62
256
370
-1
  6
ByLayer
 10
87.4129999999999967
 20
49.7890000000000015
 30
0.0
 11
87.4129999999999967
 21
51.3389999999999986
 31
0.0
  0
LINE
  5
30C
100
AcDbEntity
100
AcDbLine
  8
0
 62
256
370
-1
  6
ByLayer
 10
87.4129999999999967
 20
51.3389999999999986
 30
0.0
 11
88.9629999999999939
 21
51.3389999999999986
 31
0.0
  0
LINE
  5
30D
100
AcDbEntity
100
AcDbLine
  8
0
 62
256
370
-1
  6
ByLayer
 10
88.9629999999999939
 20
51.3389999999999986
 30
0.0
 11
88.9629999999999939
 21
49.7890000000000015
 31
0.0
  0
LINE
  5
30E
100
AcDbEntity
100
AcDbLine
  8
0
 62
256
370
-1
  6
ByLayer
 10
88.9629999999999939
 20
49.7890000000000015
 30
0.0
 11
87.4129999999999967
 21
49.7890000000000015
 31
0.0
  0
LINE
  5
30F
100
AcDbEntity
100
AcDbLine
  8
0
 62
256
370
-1
  6
ByLayer
 10
87.4129999999999967
 20
52.3290000000000006
 30
0.0
 11
87.4129999999999967
 21
53.8789999999999978
 31
0.0
  0
LINE
  5
310
100
AcDbEntity
100
AcDbLine
  8
0
 62
256
370
-1
  6
ByLayer
 10
87.4129999999999967
 20
53.8789999999999978
 30
0.0
 11
88.9629999999999939
 21
53.8789999999999978
 31
0.0
  0
LINE
  5
311
100
AcDbEntity
100
AcDbLine
  8
0
 62
256
370
-1
  6
ByLayer
 10
88.9629999999999939
 20
53.8789999999999978
 30
0.0
 11
88.9629999999999939
 21
52.3290000000000006
 31
0.0
  0
LINE
  5
312
100
AcDbEntity
100
AcDbLine
  8
0
 62
256
370
-1
  6
ByLayer
 10
88.9629999999999939
 20
52.3290000000000006
 30
0.0
 11
87.4129999999999967
 21
52.3290000000000006
 31
0.0
  0
LINE
  5
313
100
AcDbEntity
100
AcDbLine
  8
0
 62
256
370
-1
  6
ByLayer
 10
87.4129999999999967
 20
57.6629999999999967
 30
0.0
 11
87.4129999999999967
 21
59.213000000000001
 31
0.0
  0
LINE
  5
314
100
AcDbEntity
100
AcDbLine
  8
0
 62
256
370
-1
  6
ByLayer
 10
87.4129999999999967
 20
59.213000000000001
 30
0.0
 11
88.9629999999999939
 21
59.213000000000001
 31
0.0
  0
LINE
  5
315
100
AcDbEntity
100
AcDbLine
  8
0
 62
256
370
-1
  6
ByLayer
 10
88.9629999999999939
 20
59.213000000000001
 30
0.0
 11
88.9629999999999939
 21
57.6629999999999967
 31
0.0
  0
LINE
  5
316
100
AcDbEntity
100
AcDbLine
  8
0
 62
256
370
-1
  6
ByLayer
 10
88.9629999999999939
 20
57.6629999999999967
 30
0.0
 11
87.4129999999999967
 21
57.6629999999999967
 31
0.0
  0
LINE
  5
317
100
AcDbEntity
100
AcDbLine
  8
0
 62
256
370
-1
  6
ByLayer
 10
87.4129999999999967
 20
60.203000000000003
 30
0.0
 11
87.4129999999999967
 21
61.7530000000000001
 31
0.0
  0
LINE
  5
318
100
AcDbEntity
100
AcDbLine
  8
0
 62
256
370
-1
  6
ByLayer
 10
87.4129999999999967
 20
61.7530000000000001
 30
0.0
 11
88.9629999999999939
 21
61.7530000000000001
 31
0.0
  0
LINE
  5
319
100
AcDbEntity
100
AcDbLine
  8
0
 62
256
370
-1
  6
ByLayer
 10
88.9629999999999939
 20
61.7530000000000001
 30
0.0
 11
88.9629999999999939
 21
60.203000000000003
 31
0.0
  0
LINE
  5
31A
100
AcDbEntity
100
AcDbLine
  8
0
 62
256
370
-1
  6
ByLayer
 10
88.9629999999999939
 20
60.203000000000003
 30
0.0
 11
87.4129999999999967
 21
60.203000000000003
 31
0.0
  0
LINE
  5
31B
100
AcDbEntity
100
AcDbLine
  8
0
 62
256
370
-1
  6
ByLayer
 10
87.519999999999996
 20
64.953000000000003
 30
0.0
 11
87.519999999999996
 21
66.5030000000000001
 31
0.0
  0
LINE
  5
31C
100
AcDbEntity
100
AcDbLine
  8
0
 62
256
370
-1
  6
ByLayer
 10
87.519999999999996
 20
66.5030000000000001
 30
0.0
 11
89.0699999999999932
 21
66.5030000000000001
 31
0.0
  0
LINE
  5
31D
100
AcDbEntity
100
AcDbLine
  8
0
 62
256
370
-1
  6
ByLayer
 10
89.0699999999999932
 20
66.5030000000000001
 30
0.0
 11
89.0699999999999932
 21
64.953000000000003
 31
0.0
  0
LINE
  5
31E
100
AcDbEntity
100
AcDbLine
  8
0
 62
256
370
-1
  6
ByLayer
 10
89.0699999999999932
 20
64.953000000000003
 30
0.0
 11
87.519999999999996
 21
64.953000000000003
 31
0.0
  0
LINE
  5
31F
100
AcDbEntity
100
AcDbLine
  8
0
 62
256
370
-1
  6
ByLayer
 10
87.519999999999996
 20
67.492999999999995
 30
0.0
 11
87.519999999999996
 21
69.0430000000000064
 31
0.0
  0
LINE
  5
320
100
AcDbEntity
100
AcDbLine
  8
0
 62
256
370
-1
  6
ByLayer
 10
87.519999999999996
 20
69.0430000000000064
 30
0.0
 11
89.0699999999999932
 21
69.0430000000000064
 31
0.0
  0
LINE
  5
321
100
AcDbEntity
100
AcDbLine
  8
0
 62
256
370
-1
  6
ByLayer
 10
89.0699999999999932
 20
69.0430000000000064
 30
0.0
 11
89.0699999999999932
 21
67.492999999999995
 31
0.0
  0
LINE
  5
322
100
AcDbEntity
100
AcDbLine
  8
0
 62
256
370
-1
  6
ByLayer
 10
89.0699999999999932
 20
67.492999999999995
 30
0.0
 11
87.519999999999996
 21
67.492999999999995
 31
0.0
  0
LINE
  5
323
100
AcDbEntity
100
AcDbLine
  8
0
 62
256
370
-1
  6
ByLayer
 10
87.5619999999999976
 20
4.6479999999999997
 30
0.0
 11
87.5619999999999976
 21
6.1980000000000004
 31
0.0
  0
LINE
  5
324
100
AcDbEntity
100
AcDbLine
  8
0
 62
256
370
-1
  6
ByLayer
 10
87.5619999999999976
 20
6.1980000000000004
 30
0.0
 11
89.1119999999999948
 21
6.1980000000000004
 31
0.0
  0
LINE
  5
325
100
AcDbEntity
100
AcDbLine
  8
0
 62
256
370
-1
  6
ByLayer
 10
89.1119999999999948
 20
6.1980000000000004
 30
0.0
 11
89.1119999999999948
 21
4.6479999999999997
 31
0.0
  0
LINE
  5
326
100
AcDbEntity
100
AcDbLine
  8
0
 62
256
370
-1
  6
ByLayer
 10
89.1119999999999948
 20
4.6479999999999997
 30
0.0
 11
87.5619999999999976
 21
4.6479999999999997
 31
0.0
  0
LINE
  5
327
100
AcDbEntity
100
AcDbLine
  8
0
 62
256
370
-1
  6
ByLayer
 10
89.2180000000000035
 20
79.6290000000000049
 30
0.0
 11
89.2180000000000035
 21
81.179000000000002
 31
0.0
  0
LINE
  5
328
100
AcDbEntity
100
AcDbLine
  8
0
 62
256
370
-1
  6
ByLayer
 10
89.2180000000000035
 20
81.179000000000002
 30
0.0
 11
90.7680000000000007
 21
81.179000000000002
 31
0.0
  0
LINE
  5
329
100
AcDbEntity
100
AcDbLine
  8
0
 62
256
370
-1
  6
ByLayer
 10
90.7680000000000007
 20
81.179000000000002
 30
0.0
 11
90.7680000000000007
 21
79.6290000000000049
 31
0.0
  0
LINE
  5
32A
100
AcDbEntity
100
AcDbLine
  8
0
 62
256
370
-1
  6
ByLayer
 10
90.7680000000000007
 20
79.6290000000000049
 30
0.0
 11
89.2180000000000035
 21
79.6290000000000049
 31
0.0
  0
LINE
  5
32B
100
AcDbEntity
100
AcDbLine
  8
0
 62
256
370
-1
  6
ByLayer
 10
89.5349999999999966
 20
85.597999999999999
 30
0.0
 11
89.5349999999999966
 21
87.1479999999999961
 31
0.0
  0
LINE
  5
32C
100
AcDbEntity
100
AcDbLine
  8
0
 62
256
370
-1
  6
ByLayer
 10
89.5349999999999966
 20
87.1479999999999961
 30
0.0
 11
91.0849999999999937
 21
87.1479999999999961
 31
0.0
  0
LINE
  5
32D
100
AcDbEntity
100
AcDbLine
  8
0
 62
256
370
-1
  6
ByLayer
 10
91.0849999999999937
 20
87.1479999999999961
 30
0.0
 11
91.0849999999999937
 21
85.597999999999999
 31
0.0
  0
LINE
  5
32E
100
AcDbEntity
100
AcDbLine
  8
0
 62
256
370
-1
  6
ByLayer
 10
91.0849999999999937
 20
85.597999999999999
 30
0.0
 11
89.5349999999999966
 21
85.597999999999999
 31
0.0
  0
LINE
  5
32F
100
AcDbEntity
100
AcDbLine
  8
0
 62
256
370
-1
  6
ByLayer
 10
90.061000000000007
 20
64.953000000000003
 30
0.0
 11
90.061000000000007
 21
66.5030000000000001
 31
0.0
  0
LINE
  5
330
100
AcDbEntity
100
AcDbLine
  8
0
 62
256
370
-1
  6
ByLayer
 10
90.061000000000007
 20
66.5030000000000001
 30
0.0
 11
91.6110000000000042
 21
66.5030000000000001
 31
0.0
  0
LINE
  5
331
100
AcDbEntity
100
AcDbLine
  8
0
 62
256
370
-1
  6
ByLayer
 10
91.6110000000000042
 20
66.5030000000000001
 30
0.0
 11
91.6110000000000042
 21
64.953000000000003
 31
0.0
  0
LINE
  5
332
100
AcDbEntity
100
AcDbLine
  8
0
 62
256
370
-1
  6
ByLayer
 10
91.6110000000000042
 20
64.953000000000003
 30
0.0
 11
90.061000000000007
 21
64.953000000000003
 31
0.0
  0
LINE
  5
333
100
AcDbEntity
100
AcDbLine
  8
0
 62
256
370
-1
  6
ByLayer
 10
90.061000000000007
 20
67.492999999999995
 30
0.0
 11
90.061000000000007
 21
69.0430000000000064
 31
0.0
  0
LINE
  5
334
100
AcDbEntity
100
AcDbLine
  8
0
 62
256
370
-1
  6
ByLayer
 10
90.061000000000007
 20
69.0430000000000064
 30
0.0
 11
91.6110000000000042
 21
69.0430000000000064
 31
0.0
  0
LINE
  5
335
100
AcDbEntity
100
AcDbLine
  8
0
 62
256
370
-1
  6
ByLayer
 10
91.6110000000000042
 20
69.0430000000000064
 30
0.0
 11
91.6110000000000042
 21
67.492999999999995
 31
0.0
  0
LINE
  5
336
100
AcDbEntity
100
AcDbLine
  8
0
 62
256
370
-1
  6
ByLayer
 10
91.6110000000000042
 20
67.492999999999995
 30
0.0
 11
90.061000000000007
 21
67.492999999999995
 31
0.0
  0
LINE
  5
337
100
AcDbEntity
100
AcDbLine
  8
0
 62
256
370
-1
  6
ByLayer
 10
90.1029999999999944
 20
4.6479999999999997
 30
0.0
 11
90.1029999999999944
 21
6.1980000000000004
 31
0.0
  0
LINE
  5
338
100
AcDbEntity
100
AcDbLine
  8
0
 62
256
370
-1
  6
ByLayer
 10
90.1029999999999944
 20
6.1980000000000004
 30
0.0
 11
91.6530000000000058
 21
6.1980000000000004
 31
0.0
  0
LINE
  5
339
100
AcDbEntity
100
AcDbLine
  8
0
 62
256
370
-1
  6
ByLayer
 10
91.6530000000000058
 20
6.1980000000000004
 30
0.0
 11
91.6530000000000058
 21
4.6479999999999997
 31
0.0
  0
LINE
  5
33A
100
AcDbEntity
100
AcDbLine
  8
0
 62
256
370
-1
  6
ByLayer
 10
91.6530000000000058
 20
4.6479999999999997
 30
0.0
 11
90.1029999999999944
 21
4.6479999999999997
 31
0.0
  0
LINE
  5
33B
100
AcDbEntity
100
AcDbLine
  8
0
 62
256
370
-1
  6
ByLayer
 10
92.6419999999999959
 20
4.6479999999999997
 30
0.0
 11
92.6419999999999959
 21
6.1980000000000004
 31
0.0
  0
LINE
  5
33C
100
AcDbEntity
100
AcDbLine
  8
0
 62
256
370
-1
  6
ByLayer
 10
92.6419999999999959
 20
6.1980000000000004
 30
0.0
 11
94.1919999999999931
 21
6.1980000000000004
 31
0.0
  0
LINE
  5
33D
100
AcDbEntity
100
AcDbLine
  8
0
 62
256
370
-1
  6
ByLayer
 10
94.1919999999999931
 20
6.1980000000000004
 30
0.0
 11
94.1919999999999931
 21
4.6479999999999997
 31
0.0
  0
LINE
  5
33E
100
AcDbEntity
100
AcDbLine
  8
0
 62
256
370
-1
  6
ByLayer
 10
94.1919999999999931
 20
4.6479999999999997
 30
0.0
 11
92.6419999999999959
 21
4.6479999999999997
 31
0.0
  0
LINE
  5
33F
100
AcDbEntity
100
AcDbLine
  8
0
 62
256
370
-1
  6
ByLayer
 10
93.2729999999999961
 20
51.8629999999999995
 30
0.0
 11
93.2729999999999961
 21
53.4129999999999967
 31
0.0
  0
LINE
  5
340
100
AcDbEntity
100
AcDbLine
  8
0
 62
256
370
-1
  6
ByLayer
 10
93.2729999999999961
 20
53.4129999999999967
 30
0.0
 11
94.8229999999999933
 21
53.4129999999999967
 31
0.0
  0
LINE
  5
341
100
AcDbEntity
100
AcDbLine
  8
0
 62
256
370
-1
  6
ByLayer
 10
94.8229999999999933
 20
53.4129999999999967
 30
0.0
 11
94.8229999999999933
 21
51.8629999999999995
 31
0.0
  0
LINE
  5
342
100
AcDbEntity
100
AcDbLine
  8
0
 62
256
370
-1
  6
ByLayer
 10
94.8229999999999933
 20
51.8629999999999995
 30
0.0
 11
93.2729999999999961
 21
51.8629999999999995
 31
0.0
  0
LINE
  5
343
100
AcDbEntity
100
AcDbLine
  8
0
 62
256
370
-1
  6
ByLayer
 10
93.2729999999999961
 20
54.4029999999999987
 30
0.0
 11
93.2729999999999961
 21
55.953000000000003
 31
0.0
  0
LINE
  5
344
100
AcDbEntity
100
AcDbLine
  8
0
 62
256
370
-1
  6
ByLayer
 10
93.2729999999999961
 20
55.953000000000003
 30
0.0
 11
94.8229999999999933
 21
55.953000000000003
 31
0.0
  0
LINE
  5
345
100
AcDbEntity
100
AcDbLine
  8
0
 62
256
370
-1
  6
ByLayer
 10
94.8229999999999933
 20
55.953000000000003
 30
0.0
 11
94.8229999999999933
 21
54.4029999999999987
 31
0.0
  0
LINE
  5
346
100
AcDbEntity
100
AcDbLine
  8
0
 62
256
370
-1
  6
ByLayer
 10
94.8229999999999933
 20
54.4029999999999987
 30
0.0
 11
93.2729999999999961
 21
54.4029999999999987
 31
0.0
  0
LINE
  5
347
100
AcDbEntity
100
AcDbLine
  8
0
 62
256
370
-1
  6
ByLayer
 10
95.7579999999999956
 20
60.9600000000000009
 30
0.0
 11
95.7579999999999956
 21
62.509999999999998
 31
0.0
  0
LINE
  5
348
100
AcDbEntity
100
AcDbLine
  8
0
 62
256
370
-1
  6
ByLayer
 10
95.7579999999999956
 20
62.509999999999998
 30
0.0
 11
97.3080000000000069
 21
62.509999999999998
 31
0.0
  0
LINE
  5
349
100
AcDbEntity
100
AcDbLine
  8
0
 62
256
370
-1
  6
ByLayer
 10
97.3080000000000069
 20
62.509999999999998
 30
0.0
 11
97.3080000000000069
 21
60.9600000000000009
 31
0.0
  0
LINE
  5
34A
100
AcDbEntity
100
AcDbLine
  8
0
 62
256
370
-1
  6
ByLayer
 10
97.3080000000000069
 20
60.9600000000000009
 30
0.0
 11
95.7579999999999956
 21
60.9600000000000009
 31
0.0
  0
LINE
  5
34B
100
AcDbEntity
100
AcDbLine
  8
0
 62
256
370
-1
  6
ByLayer
 10
95.7579999999999956
 20
66.0400000000000063
 30
0.0
 11
95.7579999999999956
 21
67.5900000000000034
 31
0.0
  0
LINE
  5
34C
100
AcDbEntity
100
AcDbLine
  8
0
 62
256
370
-1
  6
ByLayer
 10
95.7579999999999956
 20
67.5900000000000034
 30
0.0
 11
97.3080000000000069
 21
67.5900000000000034
 31
0.0
  0
LINE
  5
34D
100
AcDbEntity
100
AcDbLine
  8
0
 62
256
370
-1
  6
ByLayer
 10
97.3080000000000069
 20
67.5900000000000034
 30
0.0
 11
97.3080000000000069
 21
66.0400000000000063
 31
0.0
  0
LINE
  5
34E
100
AcDbEntity
100
AcDbLine
  8
0
 62
256
370
-1
  6
ByLayer
 10
97.3080000000000069
 20
66.0400000000000063
 30
0.0
 11
95.7579999999999956
 21
66.0400000000000063
 31
0.0
  0
LINE
  5
34F
100
AcDbEntity
100
AcDbLine
  8
0
 62
256
370
-1
  6
ByLayer
 10
95.7579999999999956
 20
71.1200000000000045
 30
0.0
 11
95.7579999999999956
 21
72.6700000000000017
 31
0.0
  0
LINE
  5
350
100
AcDbEntity
100
AcDbLine
  8
0
 62
256
370
-1
  6
ByLayer
 10
95.7579999999999956
 20
72.6700000000000017
 30
0.0
 11
97.3080000000000069
 21
72.6700000000000017
 31
0.0
  0
LINE
  5
351
100
AcDbEntity
100
AcDbLine
  8
0
 62
256
370
-1
  6
ByLayer
 10
97.3080000000000069
 20
72.6700000000000017
 30
0.0
 11
97.3080000000000069
 21
71.1200000000000045
 31
0.0
  0
LINE
  5
352
100
AcDbEntity
100
AcDbLine
  8
0
 62
256
370
-1
  6
ByLayer
 10
97.3080000000000069
 20
71.1200000000000045
 30
0.0
 11
95.7579999999999956
 21
71.1200000000000045
 31
0.0
  0
LINE
  5
353
100
AcDbEntity
100
AcDbLine
  8
0
 62
256
370
-1
  6
ByLayer
 10
95.7579999999999956
 20
76.2000000000000028
 30
0.0
 11
95.7579999999999956
 21
77.75
 31
0.0
  0
LINE
  5
354
100
AcDbEntity
100
AcDbLine
  8
0
 62
256
370
-1
  6
ByLayer
 10
95.7579999999999956
 20
77.75
 30
0.0
 11
97.3080000000000069
 21
77.75
 31
0.0
  0
LINE
  5
355
100
AcDbEntity
100
AcDbLine
  8
0
 62
256
370
-1
  6
ByLayer
 10
97.3080000000000069
 20
77.75
 30
0.0
 11
97.3080000000000069
 21
76.2000000000000028
 31
0.0
  0
LINE
  5
356
100
AcDbEntity
100
AcDbLine
  8
0
 62
256
370
-1
  6
ByLayer
 10
97.3080000000000069
 20
76.2000000000000028
 30
0.0
 11
95.7579999999999956
 21
76.2000000000000028
 31
0.0
  0
LINE
  5
357
100
AcDbEntity
100
AcDbLine
  8
0
 62
256
370
-1
  6
ByLayer
 10
95.7579999999999956
 20
81.2800000000000011
 30
0.0
 11
95.7579999999999956
 21
82.8299999999999983
 31
0.0
  0
LINE
  5
358
100
AcDbEntity
100
AcDbLine
  8
0
 62
256
370
-1
  6
ByLayer
 10
95.7579999999999956
 20
82.8299999999999983
 30
0.0
 11
97.3080000000000069
 21
82.8299999999999983
 31
0.0
  0
LINE
  5
359
100
AcDbEntity
100
AcDbLine
  8
0
 62
256
370
-1
  6
ByLayer
 10
97.3080000000000069
 20
82.8299999999999983
 30
0.0
 11
97.3080000000000069
 21
81.2800000000000011
 31
0.0
  0
LINE
  5
35A
100
AcDbEntity
100
AcDbLine
  8
0
 62
256
370
-1
  6
ByLayer
 10
97.3080000000000069
 20
81.2800000000000011
 30
0.0
 11
95.7579999999999956
 21
81.2800000000000011
 31
0.0
  0
LINE
  5
35B
100
AcDbEntity
100
AcDbLine
  8
0
 62
256
370
-1
  6
ByLayer
 10
95.7579999999999956
 20
86.3599999999999994
 30
0.0
 11
95.7579999999999956
 21
87.9099999999999966
 31
0.0
  0
LINE
  5
35C
100
AcDbEntity
100
AcDbLine
  8
0
 62
256
370
-1
  6
ByLayer
 10
95.7579999999999956
 20
87.9099999999999966
 30
0.0
 11
97.3080000000000069
 21
87.9099999999999966
 31
0.0
  0
LINE
  5
35D
100
AcDbEntity
100
AcDbLine
  8
0
 62
256
370
-1
  6
ByLayer
 10
97.3080000000000069
 20
87.9099999999999966
 30
0.0
 11
97.3080000000000069
 21
86.3599999999999994
 31
0.0
  0
LINE
  5
35E
100
AcDbEntity
100
AcDbLine
  8
0
 62
256
370
-1
  6
ByLayer
 10
97.3080000000000069
 20
86.3599999999999994
 30
0.0
 11
95.7579999999999956
 21
86.3599999999999994
 31
0.0
  0
LINE
  5
35F
100
AcDbEntity
100
AcDbLine
  8
0
 62
256
370
-1
  6
ByLayer
 10
97.1550000000000011
 20
31.472999999999999
 30
0.0
 11
97.1550000000000011
 21
33.0230000000000032
 31
0.0
  0
LINE
  5
360
100
AcDbEntity
100
AcDbLine
  8
0
 62
256
370
-1
  6
ByLayer
 10
97.1550000000000011
 20
33.0230000000000032
 30
0.0
 11
98.7049999999999983
 21
33.0230000000000032
 31
0.0
  0
LINE
  5
361
100
AcDbEntity
100
AcDbLine
  8
0
 62
256
370
-1
  6
ByLayer
 10
98.7049999999999983
 20
33.0230000000000032
 30
0.0
 11
98.7049999999999983
 21
31.472999999999999
 31
0.0
  0
LINE
  5
362
100
AcDbEntity
100
AcDbLine
  8
0
 62
256
370
-1
  6
ByLayer
 10
98.7049999999999983
 20
31.472999999999999
 30
0.0
 11
97.1550000000000011
 21
31.472999999999999
 31
0.0
  0
LINE
  5
363
100
AcDbEntity
100
AcDbLine
  8
0
 62
256
370
-1
  6
ByLayer
 10
97.1550000000000011
 20
36.472999999999999
 30
0.0
 11
97.1550000000000011
 21
38.0230000000000032
 31
0.0
  0
LINE
  5
364
100
AcDbEntity
100
AcDbLine
  8
0
 62
256
370
-1
  6
ByLayer
 10
97.1550000000000011
 20
38.0230000000000032
 30
0.0
 11
98.7049999999999983
 21
38.0230000000000032
 31
0.0
  0
LINE
  5
365
100
AcDbEntity
100
AcDbLine
  8
0
 62
256
370
-1
  6
ByLayer
 10
98.7049999999999983
 20
38.0230000000000032
 30
0.0
 11
98.7049999999999983
 21
36.472999999999999
 31
0.0
  0
LINE
  5
366
100
AcDbEntity
100
AcDbLine
  8
0
 62
256
370
-1
  6
ByLayer
 10
98.7049999999999983
 20
36.472999999999999
 30
0.0
 11
97.1550000000000011
 21
36.472999999999999
 31
0.0
  0
LINE
  5
367
100
AcDbEntity
100
AcDbLine
  8
0
 62
256
370
-1
  6
ByLayer
 10
98.4980000000000047
 20
3.8100000000000001
 30
0.0
 11
99.4140000000000015
 21
5.3970000000000002
 31
0.0
  0
LINE
  5
368
100
AcDbEntity
100
AcDbLine
  8
0
 62
256
370
-1
  6
ByLayer
 10
99.4140000000000015
 20
5.3970000000000002
 30
0.0
 11
101.2459999999999951
 21
5.3970000000000002
 31
0.0
  0
LINE
  5
369
100
AcDbEntity
100
AcDbLine
  8
0
 62
256
370
-1
  6
ByLayer
 10
101.2459999999999951
 20
5.3970000000000002
 30
0.0
 11
102.1620000000000061
 21
3.8100000000000001
 31
0.0
  0
LINE
  5
36A
100
AcDbEntity
100
AcDbLine
  8
0
 62
256
370
-1
  6
ByLayer
 10
102.1620000000000061
 20
3.8100000000000001
 30
0.0
 11
101.2459999999999951
 21
2.2229999999999999
 31
0.0
  0
LINE
  5
36B
100
AcDbEntity
100
AcDbLine
  8
0
 62
256
370
-1
  6
ByLayer
 10
101.2459999999999951
 20
2.2229999999999999
 30
0.0
 11
99.4140000000000015
 21
2.2229999999999999
 31
0.0
  0
LINE
  5
36C
100
AcDbEntity
100
AcDbLine
  8
0
 62
256
370
-1
  6
ByLayer
 10
99.4140000000000015
 20
2.2229999999999999
 30
0.0
 11
98.4980000000000047
 21
3.8100000000000001
 31
0.0
  0
LINE
  5
36D
100
AcDbEntity
100
AcDbLine
  8
0
 62
256
370
-1
  6
ByLayer
 10
98.4980000000000047
 20
99.0600000000000023
 30
0.0
 11
99.4140000000000015
 21
100.6470000000000056
 31
0.0
  0
LINE
  5
36E
100
AcDbEntity
100
AcDbLine
  8
0
 62
256
370
-1
  6
ByLayer
 10
99.4140000000000015
 20
100.6470000000000056
 30
0.0
 11
101.2459999999999951
 21
100.6470000000000056
 31
0.0
  0
LINE
  5
36F
100
AcDbEntity
100
AcDbLine
  8
0
 62
256
370
-1
  6
ByLayer
 10
101.2459999999999951
 20
100.6470000000000056
 30
0.0
 11
102.1620000000000061
 21
99.0600000000000023
 31
0.0
  0
LINE
  5
370
100
AcDbEntity
100
AcDbLine
  8
0
 62
256
370
-1
  6
ByLayer
 10
102.1620000000000061
 20
99.0600000000000023
 30
0.0
 11
101.2459999999999951
 21
97.472999999999999
 31
0.0
  0
LINE
  5
371
100
AcDbEntity
100
AcDbLine
  8
0
 62
256
370
-1
  6
ByLayer
 10
101.2459999999999951
 20
97.472999999999999
 30
0.0
 11
99.4140000000000015
 21
97.472999999999999
 31
0.0
  0
LINE
  5
372
100
AcDbEntity
100
AcDbLine
  8
0
 62
256
370
-1
  6
ByLayer
 10
99.4140000000000015
 20
97.472999999999999
 30
0.0
 11
98.4980000000000047
 21
99.0600000000000023
 31
0.0
  0
LINE
  5
373
100
AcDbEntity
100
AcDbLine
  8
0
 62
256
370
-1
  6
ByLayer
 10
98.9830000000000041
 20
11.1059999999999999
 30
0.0
 11
98.9830000000000041
 21
12.6560000000000006
 31
0.0
  0
LINE
  5
374
100
AcDbEntity
100
AcDbLine
  8
0
 62
256
370
-1
  6
ByLayer
 10
98.9830000000000041
 20
12.6560000000000006
 30
0.0
 11
100.5330000000000013
 21
12.6560000000000006
 31
0.0
  0
LINE
  5
375
100
AcDbEntity
100
AcDbLine
  8
0
 62
256
370
-1
  6
ByLayer
 10
100.5330000000000013
 20
12.6560000000000006
 30
0.0
 11
100.5330000000000013
 21
11.1059999999999999
 31
0.0
  0
LINE
  5
376
100
AcDbEntity
100
AcDbLine
  8
0
 62
256
370
-1
  6
ByLayer
 10
100.5330000000000013
 20
11.1059999999999999
 30
0.0
 11
98.9830000000000041
 21
11.1059999999999999
 31
0.0
  0
LINE
  5
377
100
AcDbEntity
100
AcDbLine
  8
0
 62
256
370
-1
  6
ByLayer
 10
98.9830000000000041
 20
13.6460000000000008
 30
0.0
 11
98.9830000000000041
 21
15.1959999999999997
 31
0.0
  0
LINE
  5
378
100
AcDbEntity
100
AcDbLine
  8
0
 62
256
370
-1
  6
ByLayer
 10
98.9830000000000041
 20
15.1959999999999997
 30
0.0
 11
100.5330000000000013
 21
15.1959999999999997
 31
0.0
  0
LINE
  5
379
100
AcDbEntity
100
AcDbLine
  8
0
 62
256
370
-1
  6
ByLayer
 10
100.5330000000000013
 20
15.1959999999999997
 30
0.0
 11
100.5330000000000013
 21
13.6460000000000008
 31
0.0
  0
LINE
  5
37A
100
AcDbEntity
100
AcDbLine
  8
0
 62
256
370
-1
  6
ByLayer
 10
100.5330000000000013
 20
13.6460000000000008
 30
0.0
 11
98.9830000000000041
 21
13.6460000000000008
 31
0.0
  0
LINE
  5
37B
100
AcDbEntity
100
AcDbLine
  8
0
 62
256
370
-1
  6
ByLayer
 10
101.9899999999999949
 20
93.1200000000000045
 30
0.0
 11
101.9899999999999949
 21
94.6700000000000017
 31
0.0
  0
LINE
  5
37C
100
AcDbEntity
100
AcDbLine
  8
0
 62
256
370
-1
  6
ByLayer
 10
101.9899999999999949
 20
94.6700000000000017
 30
0.0
 11
103.5400000000000063
 21
94.6700000000000017
 31
0.0
  0
LINE
  5
37D
100
AcDbEntity
100
AcDbLine
  8
0
 62
256
370
-1
  6
ByLayer
 10
103.5400000000000063
 20
94.6700000000000017
 30
0.0
 11
103.5400000000000063
 21
93.1200000000000045
 31
0.0
  0
LINE
  5
37E
100
AcDbEntity
100
AcDbLine
  8
0
 62
256
370
-1
  6
ByLayer
 10
103.5400000000000063
 20
93.1200000000000045
 30
0.0
 11
101.9899999999999949
 21
93.1200000000000045
 31
0.0
  0
ENDSEC
  0
SECTION
  2
OBJECTS
  0
DICTIONARY
  5
C
100
AcDbDictionary
280
0
281
1
  3
ACAD_GROUP
350
D
  3
ACAD_LAYOUT
350
1A
  3
ACAD_MLINESTYLE
350
17
  3
ACAD_PLOTSETTINGS
350
19
  3
ACAD_PLOTSTYLENAME
350
E
  3
AcDbVariableDictionary
350
37F
  0
DICTIONARY
  5
D
100
AcDbDictionary
280
0
281
1
  0
ACDBDICTIONARYWDFLT
  5
E
100
AcDbDictionary
281
1
  3
Normal
350
F
100
AcDbDictionaryWithDefault
340
F
  0
ACDBPLACEHOLDER
  5
F
  0
DICTIONARY
  5
17
100
AcDbDictionary
280
0
281
1
  3
Standard
350
18
  0
MLINESTYLE
  5
18
100
AcDbMlineStyle
  2
STANDARD
 70
0
  3

 62
256
 51
90.0
 52
90.0
 71
2
 49
0.5
 62
256
  6
BYLAYER
 49
-0.5
 62
256
  6
BYLAYER
  0
DICTIONARY
  5
19
100
AcDbDictionary
280
0
281
1
  0
DICTIONARY
  5
1A
100
AcDbDictionary
281
1
  3
Layout1
350
1E
  3
Layout2
350
26
  3
Model
350
22
  0
LAYOUT
  5
1E
100
AcDbPlotSettings
  1

  2
C:\Program Files\AutoCAD 2002\plotters\DWF ePlot (optimized for plotting).pc3
  4

  6

 40
0.0
 41
0.0
 42
0.0
 43
0.0
 44
0.0
 45
0.0
 46
0.0
 47
0.0
 48
0.0
 49
0.0
140
0.0
141
0.0
142
1.0
143
1.0
 70
688
 72
0
 73
0
 74
5
  7

 75
16
147
1.0
148
0.0
149
0.0
100
AcDbLayout
  1
Layout1
 70
1
 71
1
 10
0.0
 20
0.0
 11
420.0
 21
297.0
 12
0.0
 22
0.0
 32
0.0
 14
100000000000000000000.0
 24
100000000000000000000.0
 34
100000000000000000000.0
 15
-100000000000000000000.0
 25
-100000000000000000000.0
 35
-100000000000000000000.0
146
0.0
 13
0.0
 23
0.0
 33
0.0
 16
1.0
 26
0.0
 36
0.0
 17
0.0
 27
1.0
 37
0.0
 76
0
330
1B
  0
LAYOUT
  5
22
100
AcDbPlotSettings
  1

  2
C:\Program Files\AutoCAD 2002\plotters\DWF ePlot (optimized for plotting).pc3
  4

  6

 40
0.0
 41
0.0
 42
0.0
 43
0.0
 44
0.0
 45
0.0
 46
0.0
 47
0.0
 48
0.0
 49
0.0
140
0.0
141
0.0
142
1.0
143
1.0
 70
1712
 72
0
 73
0
 74
0
  7

 75
0
147
1.0
148
0.0
149
0.0
100
AcDbLayout
  1
Model
 70
1
 71
0
 10
0.0
 20
0.0
 11
12.0
 21
9.0
 12
0.0
 22
0.0
 32
0.0
 14
0.0
 24
0.0
 34
0.0
 15
0.0
 25
0.0
 35
0.0
146
0.0
 13
0.0
 23
0.0
 33
0.0
 16
1.0
 26
0.0
 36
0.0
 17
0.0
 27
1.0
 37
0.0
 76
0
330
1F
  0
LAYOUT
  5
26
100
AcDbPlotSettings
  1

  2
C:\Program Files\AutoCAD 2002\plotters\DWF ePlot (optimized for plotting).pc3
  4

  6

 40
0.0
 41
0.0
 42
0.0
 43
0.0
 44
0.0
 45
0.0
 46
0.0
 47
0.0
 48
0.0
 49
0.0
140
0.0
141
0.0
142
1.0
143
1.0
 70
688
 72
0
 73
0
 74
5
  7

 75
16
147
1.0
148
0.0
149
0.0
100
AcDbLayout
  1
Layout2
 70
1
 71
2
 10
0.0
 20
0.0
 11
12.0
 21
9.0
 12
0.0
 22
0.0
 32
0.0
 14
0.0
 24
0.0
 34
0.0
 15
0.0
 25
0.0
 35
0.0
146
0.0
 13
0.0
 23
0.0
 33
0.0
 16
1.0
 26
0.0
 36
0.0
 17
0.0
 27
1.0
 37
0.0
 76
0
330
23
  0
DICTIONARY
  5
37F
100
AcDbDictionary
281
1
  3
DIMASSOC
350
381
  3
HIDETEXT
350
380
  0
DICTIONARYVAR
  5
380
100
DictionaryVariables
280
0
  1
2
  0
DICTIONARYVAR
  5
381
100
DictionaryVariables
280
0
  1
1
  0
ENDSEC
  0
EOF
